<svg width="22" height="21" viewBox="0 0 22 21" fill="none" xmlns="http://www.w3.org/2000/svg">
<path d="M4.77673 10.9633C4.77673 9.57464 5.02669 8.24707 5.52661 6.98061C6.01542 5.75858 6.70142 4.68375 7.58461 3.75612C8.4678 2.8285 9.47598 2.12583 10.6091 1.64813C11.7423 2.12583 12.7505 2.8285 13.6336 3.75612C14.5168 4.68375 15.2028 5.75858 15.6916 6.98061C16.1916 8.24707 16.4415 9.57464 16.4415 10.9633C16.4415 11.641 16.3804 12.3075 16.2582 12.963L17.8746 14.4794C17.9413 14.5461 17.9829 14.6266 17.9996 14.721C18.0163 14.8155 18.0024 14.9071 17.958 14.996L15.875 18.7954C15.8194 18.8954 15.7361 18.962 15.625 18.9954C15.5139 19.0287 15.4084 19.0176 15.3084 18.962C15.275 18.9509 15.2417 18.9287 15.2084 18.8954L13.3587 17.029C13.192 16.8735 12.9921 16.7957 12.7588 16.7957H8.45947C8.22618 16.7957 8.02621 16.8735 7.85957 17.029L6.00986 18.8954C5.92099 18.9731 5.821 19.012 5.70991 19.012C5.59882 19.012 5.49883 18.9731 5.40996 18.8954C5.38774 18.8731 5.36552 18.8398 5.3433 18.7954L3.2603 14.996C3.21587 14.9071 3.20198 14.8155 3.21864 14.721C3.23531 14.6266 3.27697 14.5461 3.34362 14.4794L4.96003 12.963C4.83783 12.3075 4.77673 11.641 4.77673 10.9633ZM6.00986 16.5291L6.69309 15.8625C6.92638 15.6292 7.19578 15.4487 7.50129 15.3209C7.8068 15.1932 8.12619 15.1293 8.45947 15.1293H12.7588C13.0921 15.1293 13.4115 15.1932 13.717 15.3209C14.0225 15.4487 14.2919 15.6292 14.5252 15.8625L15.2084 16.5291L16.0249 15.0293L15.1084 14.1795C14.9084 13.9795 14.764 13.7462 14.6751 13.4796C14.5863 13.2129 14.5696 12.9408 14.6252 12.663C14.7251 12.0965 14.7751 11.5299 14.7751 10.9633C14.7751 9.89681 14.6029 8.87475 14.2585 7.89713C13.9142 6.94173 13.4281 6.08353 12.8004 5.32254C12.1728 4.56155 11.4423 3.95331 10.6091 3.49783C9.77593 3.95331 9.04549 4.56155 8.41781 5.32254C7.79013 6.08353 7.3041 6.94173 6.95971 7.89713C6.61532 8.87475 6.44313 9.89681 6.44313 10.9633C6.44313 11.5299 6.49312 12.0965 6.5931 12.663C6.64865 12.9408 6.63199 13.2129 6.54311 13.4796C6.45424 13.7462 6.30982 13.9795 6.10985 14.1795L5.19333 15.0293L6.00986 16.5291ZM10.6091 10.9633C10.3092 10.9633 10.0314 10.8883 9.77593 10.7383C9.52041 10.5884 9.31767 10.3856 9.16769 10.1301C9.01772 9.87459 8.94273 9.59686 8.94273 9.2969C8.94273 8.99695 9.01772 8.71922 9.16769 8.4637C9.31767 8.20819 9.52041 8.00544 9.77593 7.85547C10.0314 7.70549 10.3092 7.6305 10.6091 7.6305C10.9091 7.6305 11.1868 7.70549 11.4423 7.85547C11.6978 8.00544 11.9006 8.20819 12.0506 8.4637C12.2005 8.71922 12.2755 8.99695 12.2755 9.2969C12.2755 9.59686 12.2005 9.87459 12.0506 10.1301C11.9006 10.3856 11.6978 10.5884 11.4423 10.7383C11.1868 10.8883 10.9091 10.9633 10.6091 10.9633Z" fill="#0052CC"/>
</svg>
