<svg width="73" height="74" viewBox="0 0 73 74" fill="none" xmlns="http://www.w3.org/2000/svg">
<circle cx="36.5" cy="37" r="36.5" fill="#EBF3FF"/>
<mask id="mask0_3_944" style="mask-type:alpha" maskUnits="userSpaceOnUse" x="18" y="18" width="38" height="39">
<rect x="18" y="18.5" width="38" height="38" fill="#D9D9D9"/>
</mask>
<g mask="url(#mask0_3_944)">
<path d="M37 45.4166C35.0736 45.4166 33.3913 44.8162 31.9531 43.6155C30.5149 42.4148 29.6111 40.9041 29.2416 39.0833H21.1666V35.9166H29.2416C29.6111 34.0958 30.5149 32.585 31.9531 31.3843C33.3913 30.1836 35.0736 29.5833 37 29.5833C38.9263 29.5833 40.6086 30.1836 42.0468 31.3843C43.485 32.585 44.3888 34.0958 44.7583 35.9166H52.8333V39.0833H44.7583C44.3888 40.9041 43.485 42.4148 42.0468 43.6155C40.6086 44.8162 38.9263 45.4166 37 45.4166ZM37 42.2499C38.3194 42.2499 39.4409 41.7881 40.3645 40.8645C41.2882 39.9409 41.75 38.8194 41.75 37.4999C41.75 36.1805 41.2882 35.0589 40.3645 34.1353C39.4409 33.2117 38.3194 32.7499 37 32.7499C35.6805 32.7499 34.559 33.2117 33.6354 34.1353C32.7118 35.0589 32.25 36.1805 32.25 37.4999C32.25 38.8194 32.7118 39.9409 33.6354 40.8645C34.559 41.7881 35.6805 42.2499 37 42.2499Z" fill="#4C93FD"/>
</g>
</svg>
