<svg width="73" height="74" viewBox="0 0 73 74" fill="none" xmlns="http://www.w3.org/2000/svg">
<circle cx="36.5" cy="37" r="36.5" fill="#EBF3FF"/>
<mask id="mask0_3_965" style="mask-type:alpha" maskUnits="userSpaceOnUse" x="18" y="18" width="38" height="39">
<rect x="18" y="18.5" width="38" height="38" fill="#D9D9D9"/>
</mask>
<g mask="url(#mask0_3_965)">
<path d="M22.7499 53.3333C21.8791 53.3333 21.1336 53.0232 20.5135 52.403C19.8933 51.7829 19.5833 51.0374 19.5833 50.1666V32.7499H22.7499V50.1666H49.6666V53.3333H22.7499ZM29.0833 46.9999C28.2124 46.9999 27.4669 46.6898 26.8468 46.0697C26.2267 45.4496 25.9166 44.7041 25.9166 43.8333V26.4166H33.8333V23.2499C33.8333 22.3791 34.1433 21.6336 34.7635 21.0135C35.3836 20.3933 36.1291 20.0833 36.9999 20.0833H43.3333C44.2041 20.0833 44.9496 20.3933 45.5697 21.0135C46.1898 21.6336 46.4999 22.3791 46.4999 23.2499V26.4166H54.4166V43.8333C54.4166 44.7041 54.1065 45.4496 53.4864 46.0697C52.8662 46.6898 52.1208 46.9999 51.2499 46.9999H29.0833ZM29.0833 43.8333H51.2499V29.5833H29.0833V43.8333ZM36.9999 26.4166H43.3333V23.2499H36.9999V26.4166Z" fill="#4C93FD"/>
</g>
</svg>
