<svg width="238" height="504" viewBox="0 0 238 504" fill="none" xmlns="http://www.w3.org/2000/svg">
<path d="M141.57 221.369C141.57 221.369 113.033 307.121 110.563 322.639C108.092 338.157 109.683 357.437 111.159 367.191C112.636 376.944 127.841 461.149 127.841 461.149C127.841 461.149 124.079 459.871 123.809 462.569C123.539 465.266 124.476 476.766 124.476 476.766C124.476 476.766 120.544 482.289 110.165 488.295C99.787 494.3 94.7327 496.117 97.8278 498.091C100.923 500.064 114.183 500.76 119.592 499.951C125.002 499.141 139.554 497.452 141.925 497.111C144.296 496.77 151.451 498.247 153.737 494.116C156.023 489.984 154.362 477.476 154.93 473.047C155.498 468.617 152.289 461.575 152.275 460.553C152.261 459.531 149.435 364.365 149.435 364.365L151.224 340.727C151.224 340.727 150.699 363.244 153.283 365.742C155.867 368.241 182.885 462.214 182.885 462.214L180.258 466.345L183.523 475.432L180.954 481.267C180.954 481.267 168.659 492.753 163.633 495.592C158.607 498.432 153.538 499.212 156.307 501.527C159.075 503.841 186.193 502.52 186.193 502.52L214.587 496.77C214.587 496.77 218.847 491.915 218.108 487.854C217.37 483.794 213.608 469.298 213.608 469.298C213.608 469.298 214.516 450.274 213.48 449.621C212.444 448.968 207.191 441.968 206.793 439.257C206.395 436.545 203.442 383.404 200.319 374.474C197.196 365.544 193.32 351.559 193.32 351.559C194.554 350.297 195.372 348.686 195.662 346.945C195.658 344.676 195.473 342.412 195.109 340.173C195.109 340.173 224.739 263.081 226.087 258.68C227.436 254.278 233.555 230.512 233.555 221.014C233.555 211.516 232.874 204.389 232.874 204.389C232.874 204.389 209.803 214.909 186.391 215.931C162.98 216.953 142.294 215.59 142.294 215.59L141.57 221.369Z" fill="#263238"/>
<path d="M171.015 503.67C164.115 503.67 157.286 503.329 155.824 502.108C155.505 501.892 155.244 501.6 155.065 501.258C154.887 500.916 154.796 500.535 154.802 500.149C154.986 498.857 156.619 498.133 159.061 497.026C160.339 496.458 161.787 495.819 163.221 495.009C167.863 492.383 179.079 482.019 180.258 480.883L182.742 475.417L179.576 466.6C179.541 466.5 179.53 466.393 179.542 466.287C179.554 466.181 179.59 466.08 179.647 465.99L182.089 462.114C171.356 424.746 154.745 368.596 152.771 366.253C151.636 365.16 151.039 361.043 150.727 356.4L150.116 364.436C150.244 368.241 152.956 459.559 152.956 460.552C153.112 461.197 153.307 461.833 153.538 462.455C154.475 465.209 156.051 469.823 155.611 473.16C155.469 475.434 155.469 477.714 155.611 479.989C155.767 485.44 155.937 491.63 154.376 494.47C152.445 497.963 147.604 497.849 144.437 497.778C143.653 497.723 142.865 497.723 142.081 497.778C140.973 497.963 137.254 498.431 132.952 498.971C128.11 499.567 122.616 500.248 119.734 500.688C114.183 501.512 100.837 500.83 97.5008 498.715C97.1563 498.543 96.8618 498.286 96.6455 497.968C96.4292 497.65 96.2983 497.281 96.2656 496.898C96.2656 495.265 98.736 493.93 104.032 490.977C105.721 490.055 107.666 488.976 109.853 487.712C118.854 482.487 122.985 477.603 123.794 476.581C123.652 474.778 122.886 465.025 123.141 462.483C123.163 462.099 123.275 461.726 123.467 461.393C123.659 461.06 123.927 460.777 124.249 460.567C125.091 460.113 126.067 459.972 127.003 460.169C125.228 450.373 111.883 376.305 110.506 367.247C108.759 355.804 107.567 337.219 109.895 322.482C112.337 307.178 139.454 225.557 140.917 221.17L141.584 215.491C141.602 215.308 141.691 215.141 141.832 215.024C141.973 214.907 142.154 214.85 142.336 214.866C142.549 214.866 163.263 216.215 186.348 215.207C209.433 214.199 232.334 203.849 232.575 203.735C232.677 203.69 232.788 203.669 232.899 203.675C233.011 203.68 233.119 203.712 233.216 203.767C233.313 203.823 233.395 203.9 233.456 203.993C233.518 204.086 233.556 204.192 233.569 204.303C233.569 204.374 234.25 211.572 234.25 220.999C234.25 230.426 228.287 253.88 226.754 258.864C225.434 263.194 197.777 335.175 195.832 340.243C196.196 342.468 196.371 344.719 196.357 346.973C196.113 348.762 195.325 350.432 194.1 351.757C194.739 354.057 198.189 366.253 200.972 374.246C203.414 381.246 205.728 414.638 206.835 430.681C207.162 435.267 207.389 438.575 207.474 439.199C207.843 441.698 213.054 448.57 213.849 449.067C214.218 449.308 215.268 449.933 214.303 469.27C214.658 470.689 218.051 483.879 218.789 487.726C219.627 492.071 215.283 497.026 215.098 497.238C214.998 497.353 214.864 497.433 214.715 497.466L186.32 503.216C184.048 503.343 177.489 503.67 171.015 503.67ZM181.024 466.473L184.162 475.275C184.233 475.448 184.233 475.642 184.162 475.815L181.578 481.635C181.548 481.724 181.494 481.803 181.422 481.863C180.911 482.345 169.013 493.448 163.973 496.287C162.59 497.05 161.168 497.742 159.714 498.36C158.195 499.042 156.307 499.879 156.236 500.39C156.236 500.461 156.321 500.703 156.761 501.072C158.621 502.619 175.785 502.406 186.164 501.895L214.189 496.216C214.914 495.336 218.023 491.347 217.398 488.095C216.631 484.106 212.94 469.724 212.897 469.639C212.883 469.568 212.883 469.496 212.897 469.426C213.295 460.907 213.437 451.58 212.968 450.273C211.549 449.138 206.509 442.365 206.083 439.512C205.998 438.873 205.77 435.707 205.444 430.993C204.336 415.007 202.022 381.742 199.651 374.928C196.556 366.083 192.68 352.112 192.638 351.97C192.603 351.851 192.602 351.724 192.635 351.604C192.667 351.484 192.732 351.375 192.822 351.289C193.932 350.145 194.678 348.697 194.966 347.129C194.95 344.913 194.765 342.701 194.412 340.513C194.378 340.392 194.378 340.265 194.412 340.144C194.711 339.377 224.057 263.024 225.391 258.693C226.91 253.738 232.816 230.412 232.816 221.241C232.816 213.9 232.405 207.923 232.22 205.623C227.691 207.568 207.062 215.916 186.405 216.825C165.748 217.734 146.652 216.74 142.89 216.527L142.294 221.624C142.294 221.624 142.294 221.723 142.294 221.766C141.996 222.618 113.728 307.632 111.301 322.923C108.987 337.489 110.179 355.903 111.911 367.247C113.331 376.873 128.437 460.339 128.593 461.191C128.612 461.312 128.6 461.435 128.558 461.549C128.516 461.664 128.445 461.765 128.352 461.844C128.259 461.928 128.146 461.986 128.023 462.011C127.901 462.036 127.774 462.027 127.656 461.986C126.804 461.672 125.868 461.672 125.015 461.986C124.873 462.081 124.757 462.21 124.678 462.361C124.599 462.513 124.558 462.681 124.561 462.852C124.291 465.479 125.228 476.837 125.228 476.965C125.242 477.131 125.197 477.297 125.101 477.433C124.944 477.66 120.955 483.112 110.562 489.16C108.362 490.438 106.417 491.517 104.727 492.454C100.951 494.541 97.6996 496.344 97.6286 497.168C97.6286 497.267 97.7706 497.466 98.1965 497.735C101.036 499.51 113.814 500.348 119.493 499.51C122.332 499.07 127.883 498.388 132.739 497.792C136.998 497.253 140.718 496.784 141.811 496.614C142.68 496.537 143.554 496.537 144.423 496.614C147.462 496.614 151.607 496.784 153.112 494.044C154.532 491.545 154.319 485.298 154.177 480.273C154.017 477.909 154.017 475.537 154.177 473.174C154.56 470.164 153.07 465.749 152.161 463.108C151.847 462.362 151.628 461.58 151.508 460.779C151.508 459.786 148.668 365.543 148.668 364.592L150.457 340.882C150.472 340.696 150.559 340.524 150.7 340.402C150.84 340.279 151.024 340.217 151.21 340.229C151.301 340.233 151.391 340.254 151.474 340.293C151.557 340.331 151.631 340.386 151.693 340.453C151.755 340.52 151.804 340.599 151.835 340.685C151.867 340.771 151.881 340.862 151.877 340.953C151.678 349.543 152.005 363.783 153.723 365.444C156.378 368.014 180.698 452.602 183.537 462.228C183.581 462.426 183.551 462.633 183.452 462.81L181.024 466.473Z" fill="#263238"/>
<path d="M224.008 252.617C223.924 252.637 223.836 252.637 223.752 252.617C211.897 248.088 211.77 225.443 211.77 224.477C211.77 224.289 211.844 224.109 211.977 223.976C212.111 223.842 212.291 223.768 212.479 223.768C212.668 223.768 212.848 223.842 212.981 223.976C213.114 224.109 213.189 224.289 213.189 224.477C213.189 224.705 213.317 247.108 224.263 251.296C224.351 251.329 224.432 251.38 224.5 251.444C224.569 251.508 224.624 251.586 224.662 251.672C224.7 251.758 224.721 251.85 224.723 251.944C224.726 252.038 224.709 252.132 224.675 252.219C224.612 252.341 224.516 252.443 224.398 252.513C224.28 252.583 224.145 252.619 224.008 252.617Z" fill="white"/>
<path d="M226.76 247.862H226.604C226.513 247.842 226.426 247.804 226.349 247.75C226.273 247.696 226.207 247.628 226.157 247.549C226.107 247.469 226.073 247.381 226.057 247.289C226.041 247.196 226.044 247.102 226.065 247.01C227.945 237.352 228.736 227.513 228.422 217.678C228.418 217.491 228.486 217.309 228.613 217.172C228.741 217.034 228.916 216.951 229.103 216.94C229.196 216.936 229.289 216.951 229.377 216.983C229.465 217.015 229.545 217.064 229.613 217.128C229.682 217.191 229.737 217.267 229.777 217.352C229.816 217.437 229.838 217.528 229.841 217.621C230.154 227.58 229.354 237.542 227.456 247.323C227.418 247.478 227.328 247.615 227.202 247.713C227.076 247.811 226.92 247.864 226.76 247.862Z" fill="white"/>
<path d="M201.286 301.456H201.102C200.925 301.409 200.773 301.296 200.678 301.14C200.583 300.984 200.552 300.797 200.591 300.619C200.591 300.42 200.761 299.937 206.341 288.082C206.372 287.987 206.423 287.9 206.491 287.826C206.559 287.752 206.641 287.693 206.733 287.654C206.825 287.614 206.925 287.594 207.025 287.596C207.125 287.597 207.224 287.62 207.315 287.662C207.405 287.705 207.486 287.766 207.552 287.842C207.617 287.917 207.666 288.006 207.695 288.102C207.723 288.198 207.731 288.299 207.718 288.399C207.705 288.498 207.671 288.593 207.618 288.679C202.905 298.745 202.053 300.704 201.939 300.974C201.893 301.111 201.805 301.231 201.689 301.318C201.572 301.404 201.431 301.452 201.286 301.456Z" fill="white"/>
<path d="M208.892 285.031C208.788 285.034 208.685 285.009 208.594 284.96C208.509 284.921 208.433 284.867 208.369 284.799C208.306 284.73 208.257 284.65 208.225 284.563C208.194 284.476 208.18 284.383 208.184 284.29C208.189 284.197 208.212 284.106 208.253 284.023C214.273 271.245 221.669 255.713 221.669 255.713L222.961 256.323C222.961 256.323 215.55 271.855 209.531 284.619C209.477 284.743 209.388 284.849 209.274 284.922C209.16 284.995 209.027 285.033 208.892 285.031Z" fill="white"/>
<path d="M154.147 320.225H153.991C153.9 320.205 153.813 320.167 153.737 320.113C153.661 320.059 153.596 319.99 153.547 319.911C153.498 319.831 153.466 319.743 153.452 319.651C153.438 319.558 153.442 319.464 153.466 319.374L165.888 266.076L152.926 254.818C152.791 254.682 152.715 254.498 152.715 254.307C152.715 254.115 152.791 253.931 152.926 253.796C152.986 253.725 153.059 253.666 153.142 253.624C153.225 253.582 153.315 253.557 153.408 253.551C153.501 253.544 153.594 253.556 153.682 253.586C153.769 253.616 153.85 253.663 153.92 253.725L167.152 265.267C167.249 265.352 167.322 265.461 167.362 265.583C167.402 265.706 167.408 265.837 167.379 265.963L154.857 319.672C154.823 319.833 154.734 319.977 154.604 320.079C154.474 320.18 154.312 320.232 154.147 320.225Z" fill="white"/>
<path d="M151.51 331.883H151.354C151.263 331.863 151.176 331.824 151.099 331.771C151.023 331.717 150.957 331.648 150.907 331.569C150.857 331.49 150.823 331.402 150.807 331.309C150.791 331.217 150.794 331.122 150.815 331.031L152.121 325.451C152.141 325.36 152.179 325.274 152.233 325.198C152.287 325.121 152.356 325.057 152.435 325.008C152.515 324.959 152.603 324.926 152.696 324.912C152.788 324.898 152.882 324.903 152.973 324.926C153.155 324.97 153.313 325.084 153.411 325.244C153.51 325.403 153.541 325.595 153.498 325.778L152.206 331.357C152.165 331.51 152.074 331.644 151.948 331.739C151.822 331.835 151.668 331.885 151.51 331.883Z" fill="white"/>
<path d="M86.2968 98.4755L52.3224 113.241C52.3224 113.241 72.5963 71.0745 73.4197 68.6041C74.2432 66.1338 62.1896 45.3203 62.4593 44.4685C62.7291 43.6166 73.15 31.0377 73.4197 28.2976C73.6895 25.5575 79.4536 15.9743 75.0666 15.4206C70.6796 14.8669 47.3958 36.5747 46.8421 42.0265C46.2884 47.4783 57.2489 66.1621 58.3563 67.7807C59.4637 69.3992 1.90726 131.073 0.814063 140.94C-0.279139 150.807 4.37764 157.111 12.598 158.204C20.8183 159.297 85.4733 137.107 95.3405 134.367C105.208 131.626 108.487 135.957 108.487 135.957C108.487 135.957 139.452 173.495 141.653 178.151C143.853 182.808 142.746 200.072 140.233 205.269C137.72 210.465 135.022 219.466 136.399 220.886C138.011 222.986 140.306 224.457 142.888 225.046C146.991 226.139 175.542 229.66 191.741 227.189C207.94 224.719 227.093 216.229 231.494 212.992C235.895 209.755 236.42 205.893 236.42 200.924C236.42 195.955 233.127 191.611 230.94 186.727C228.754 181.843 214.23 136.581 208.224 122.057C202.219 107.533 204.121 96.5872 181.377 83.7244C158.633 70.8615 131.956 73.488 131.956 73.488L86.2968 98.4755Z" fill="#4C93FD"/>
<path d="M177.882 228.808C162.946 228.808 146.179 226.707 142.743 225.784C140.319 225.267 138.133 223.965 136.525 222.079C136.326 221.866 136.141 221.653 135.943 221.454C133.969 219.481 137.732 209.046 139.634 205.028C142.104 199.817 142.985 182.709 141.054 178.507C138.924 173.978 108.314 136.838 108.002 136.454C108.002 136.454 104.779 132.493 95.5793 135.035C93.0664 135.73 86.8905 137.732 79.0536 140.259C48.5859 150.112 18.3454 159.653 12.5528 158.886C3.80723 157.722 -0.948925 150.808 0.158474 140.841C0.825752 134.878 19.0411 113.355 40.9903 87.9274C49.097 78.5429 56.7494 69.6696 57.6439 67.9091C55.926 65.1548 45.6328 47.5216 46.1865 41.942C46.6125 37.768 57.9846 26.3248 65.9635 19.9644C70.5493 16.3015 73.6586 14.541 75.2061 14.7397C75.5846 14.7654 75.9514 14.882 76.2752 15.0797C76.599 15.2775 76.8702 15.5505 77.0659 15.8755C78.1875 17.778 76.711 21.4835 75.419 24.7489C74.8901 25.9174 74.4764 27.1347 74.1839 28.3835C73.9851 30.3285 70.0098 35.6809 65.5944 41.4735C64.6006 42.7796 63.5784 44.1142 63.266 44.5969C63.55 45.4346 65.0833 48.3592 66.5598 51.2129C72.1252 61.8894 74.6665 67.2418 74.1554 68.8177C73.403 71.0325 57.7006 103.786 53.8389 111.836L86.0387 97.8231L131.627 72.8782C131.712 72.8371 131.803 72.8084 131.896 72.793C132.166 72.793 159.056 70.2233 181.743 83.0577C199.689 93.2231 202.486 102.224 205.723 112.645C206.632 115.57 207.569 118.58 208.889 121.76C212.481 130.406 219.012 149.729 224.265 165.261C227.743 175.554 230.753 184.442 231.633 186.415C232.23 187.835 232.925 189.098 233.607 190.39C235.438 193.897 237.17 197.219 237.17 200.939C237.17 205.539 236.773 209.954 231.96 213.575C227.147 217.195 207.909 225.515 191.909 227.957C187.26 228.577 182.572 228.862 177.882 228.808ZM101.329 132.749C106.852 132.749 108.953 135.432 109.053 135.588C110.302 137.093 140.088 173.211 142.289 177.896C144.646 182.908 143.41 200.371 140.869 205.638C138.03 211.615 136.085 219.566 136.894 220.446L137.533 221.113C138.959 222.801 140.908 223.965 143.07 224.421C146.633 225.373 175.127 229.064 191.639 226.551C207.725 224.095 226.906 215.534 231.051 212.439C234.97 209.486 235.694 206.249 235.694 200.939C235.694 197.56 234.047 194.394 232.286 191.001C231.605 189.695 230.867 188.346 230.27 186.94C229.376 184.91 226.494 176.42 222.859 165.644C217.62 150.141 211.09 130.832 207.526 122.243C206.177 118.991 205.226 115.939 204.317 113C201.166 102.863 198.44 94.1175 180.977 84.2219C159.553 72.0831 134.239 73.943 132.124 74.1276L86.635 99.044L52.6606 113.838C52.5265 113.894 52.3784 113.908 52.2362 113.878C52.094 113.847 51.9646 113.774 51.8655 113.667C51.7662 113.563 51.7008 113.432 51.678 113.29C51.6552 113.148 51.676 113.002 51.7377 112.872C58.7513 98.2916 72.1678 70.2091 72.8067 68.2924C73.1474 66.8727 68.0364 57.0623 65.2963 51.795C61.8747 45.2074 61.6759 44.6963 61.8463 44.1852C62.6092 42.8953 63.4833 41.6744 64.4586 40.5364C67.0993 37.0723 72.5937 29.8742 72.7641 28.1705C73.0629 26.787 73.5103 25.4399 74.0987 24.1526C75.1067 21.6397 76.6116 17.8206 75.8449 16.5286C75.7611 16.3891 75.6424 16.2739 75.5005 16.1942C75.3586 16.1146 75.1984 16.0732 75.0357 16.0743C74.2123 15.9607 71.6141 17.2101 66.8438 21.015C58.4531 27.702 47.9328 38.705 47.6063 42.013C47.1094 46.9963 57.3315 64.814 58.9642 67.2986C59.5605 68.193 59.1346 68.9881 42.0409 88.7793C26.1823 107.151 2.21712 134.921 1.54984 140.926C0.513425 150.183 4.68745 156.345 12.709 157.41C18.6577 158.233 56.1815 146.052 78.5992 138.839C86.4362 136.298 92.6263 134.31 95.1818 133.601C97.1823 133.037 99.2508 132.75 101.329 132.749Z" fill="#263238"/>
<path d="M50.707 138.91C50.52 138.895 50.3459 138.809 50.2214 138.668C50.0969 138.528 50.0318 138.345 50.0397 138.157L50.3237 133.898C50.3272 133.804 50.3497 133.712 50.3898 133.627C50.43 133.542 50.487 133.466 50.5573 133.404C50.6276 133.341 50.7098 133.294 50.799 133.264C50.8882 133.234 50.9825 133.223 51.0761 133.231C51.1707 133.236 51.2632 133.26 51.3483 133.302C51.4333 133.344 51.5092 133.402 51.5714 133.474C51.6335 133.545 51.6808 133.628 51.7104 133.718C51.7399 133.808 51.7511 133.903 51.7434 133.998L51.4595 138.257C51.4449 138.443 51.3578 138.615 51.217 138.737C51.0762 138.86 50.893 138.922 50.707 138.91Z" fill="#263238"/>
<path d="M43.6148 141.38C43.5397 141.394 43.4627 141.394 43.3876 141.38C43.2089 141.322 43.0606 141.194 42.9754 141.027C42.8902 140.859 42.8751 140.664 42.9333 140.486L51.6931 113.099C51.7456 112.933 51.857 112.793 52.0061 112.704C52.1553 112.615 52.3318 112.584 52.5024 112.616C52.6742 112.644 52.8292 112.735 52.937 112.872C53.0448 113.009 53.0974 113.181 53.0845 113.354L51.9345 130.803C51.9165 130.987 51.8284 131.158 51.6884 131.279C51.5485 131.401 51.3672 131.464 51.182 131.456C51.0887 131.451 50.9974 131.427 50.9134 131.386C50.8293 131.345 50.7541 131.288 50.6921 131.218C50.6301 131.148 50.5826 131.067 50.5521 130.979C50.5217 130.89 50.509 130.797 50.5147 130.704L51.2814 119.047L44.2821 140.926C44.2302 141.06 44.1385 141.176 44.0193 141.257C43.9001 141.338 43.759 141.381 43.6148 141.38Z" fill="#263238"/>
<path d="M57.5319 100.549C43.6611 99.981 42.071 89.0774 42.0568 88.9781C42.0446 88.8848 42.051 88.7901 42.0755 88.6994C42.1 88.6086 42.1421 88.5236 42.1994 88.4491C42.2568 88.3746 42.3282 88.3121 42.4097 88.2652C42.4912 88.2184 42.5811 88.188 42.6743 88.1759C42.7676 88.1638 42.8623 88.1701 42.953 88.1946C43.0438 88.2191 43.1288 88.2612 43.2033 88.3186C43.2778 88.3759 43.3403 88.4474 43.3872 88.5289C43.434 88.6103 43.4644 88.7003 43.4765 88.7935C43.4765 89.191 44.9672 98.6181 57.6029 99.1292C57.7899 99.1402 57.9655 99.2232 58.0925 99.3609C58.2196 99.4986 58.2884 99.6802 58.2844 99.8675C58.2808 99.962 58.2584 100.055 58.2184 100.141C58.1784 100.226 58.1217 100.303 58.0516 100.367C57.9815 100.43 57.8994 100.479 57.8102 100.51C57.721 100.542 57.6263 100.555 57.5319 100.549Z" fill="#263238"/>
<path d="M105.477 133.544C99.2222 129.457 92.5079 126.121 85.4727 123.605L105.477 133.544Z" fill="white"/>
<path d="M105.474 134.254C105.334 134.249 105.198 134.21 105.076 134.14C98.8611 130.105 92.1891 126.821 85.2001 124.358C85.0213 124.3 84.8731 124.173 84.7879 124.005C84.7027 123.837 84.6876 123.643 84.7458 123.464C84.7731 123.374 84.8182 123.291 84.8784 123.219C84.9386 123.147 85.0128 123.089 85.0963 123.046C85.1798 123.004 85.2711 122.979 85.3645 122.972C85.458 122.966 85.5517 122.979 85.6402 123.009C92.7271 125.53 99.4973 128.865 105.815 132.948C105.971 133.054 106.08 133.218 106.117 133.404C106.154 133.59 106.117 133.783 106.014 133.941C105.952 134.03 105.872 134.103 105.778 134.157C105.685 134.211 105.581 134.244 105.474 134.254Z" fill="#263238"/>
<path d="M82.4922 127.922H82.3643C81.2853 127.738 80.178 127.567 79.0706 127.411C78.8823 127.385 78.7122 127.285 78.5977 127.133C78.4832 126.981 78.4337 126.79 78.4601 126.602C78.4864 126.414 78.5865 126.243 78.7383 126.129C78.89 126.014 79.081 125.965 79.2693 125.991C80.3909 126.147 81.4983 126.318 82.6057 126.517C82.794 126.532 82.9685 126.621 83.091 126.765C83.2135 126.908 83.2738 127.095 83.2588 127.283C83.2437 127.472 83.1545 127.646 83.0107 127.769C82.867 127.891 82.6804 127.951 82.4922 127.936V127.922Z" fill="#263238"/>
<path d="M101.916 132.337H101.717C101.646 132.337 94.6186 130.278 86.1996 128.631C86.1079 128.616 86.0202 128.582 85.942 128.532C85.8638 128.482 85.7968 128.416 85.7449 128.339C85.693 128.262 85.6575 128.175 85.6404 128.084C85.6234 127.992 85.6253 127.898 85.6459 127.808C85.6804 127.623 85.7863 127.46 85.9406 127.354C86.0948 127.248 86.2849 127.207 86.4693 127.24C94.9878 128.901 102.086 130.945 102.086 130.974C102.275 131 102.445 131.1 102.559 131.252C102.674 131.404 102.723 131.595 102.697 131.783C102.671 131.971 102.571 132.141 102.419 132.256C102.267 132.37 102.076 132.42 101.888 132.393L101.916 132.337Z" fill="#263238"/>
<path d="M153.974 189.595C153.662 189.595 153.35 189.496 151.689 188.175C151.617 188.116 151.557 188.044 151.514 187.961C151.471 187.879 151.444 187.789 151.436 187.696C151.428 187.604 151.439 187.51 151.468 187.422C151.496 187.333 151.543 187.252 151.603 187.181C151.723 187.037 151.894 186.946 152.08 186.927C152.266 186.909 152.452 186.964 152.597 187.082C153.068 187.517 153.581 187.902 154.131 188.232C154.288 188.268 154.429 188.356 154.53 188.482C154.631 188.609 154.685 188.766 154.684 188.928C154.673 189.108 154.594 189.278 154.462 189.402C154.33 189.526 154.156 189.595 153.974 189.595Z" fill="#263238"/>
<path d="M150.081 186.556C149.91 186.553 149.745 186.493 149.612 186.386C146.021 183.248 141.193 178.762 141.094 178.719C141.026 178.656 140.972 178.579 140.935 178.493C140.898 178.408 140.879 178.316 140.879 178.223C140.879 178.129 140.898 178.037 140.935 177.952C140.972 177.866 141.026 177.789 141.094 177.726C141.16 177.659 141.238 177.606 141.325 177.57C141.412 177.534 141.504 177.516 141.598 177.516C141.692 177.516 141.785 177.534 141.871 177.57C141.958 177.606 142.036 177.659 142.102 177.726C142.102 177.726 146.958 182.24 150.535 185.364C150.606 185.424 150.664 185.497 150.707 185.58C150.749 185.663 150.774 185.753 150.78 185.846C150.787 185.938 150.775 186.031 150.745 186.119C150.715 186.207 150.668 186.288 150.606 186.358C150.464 186.491 150.275 186.562 150.081 186.556Z" fill="#263238"/>
<path d="M200.83 226.309C200.711 226.31 200.593 226.281 200.489 226.224C200.384 226.167 200.296 226.084 200.233 225.983C200.132 225.824 200.097 225.633 200.137 225.449C200.177 225.265 200.288 225.105 200.446 225.003L224.837 209.656C224.998 209.559 225.19 209.529 225.373 209.571C225.556 209.614 225.715 209.725 225.817 209.883C225.869 209.961 225.904 210.05 225.92 210.142C225.936 210.235 225.934 210.33 225.913 210.421C225.892 210.513 225.852 210.599 225.797 210.675C225.741 210.751 225.671 210.815 225.59 210.862L201.199 226.21C201.086 226.274 200.959 226.308 200.83 226.309Z" fill="#263238"/>
<path d="M200.289 205.767C200.142 205.766 199.998 205.721 199.877 205.639C199.723 205.53 199.617 205.365 199.582 205.179C199.548 204.994 199.587 204.802 199.692 204.645C206.039 195.516 211.405 176.25 214.032 165.616C214.077 165.428 214.195 165.265 214.36 165.164C214.525 165.063 214.724 165.032 214.912 165.077C215.1 165.122 215.263 165.24 215.364 165.405C215.465 165.57 215.497 165.769 215.451 165.957C212.797 176.705 207.387 196.127 200.913 205.454C200.843 205.554 200.749 205.634 200.64 205.689C200.531 205.743 200.41 205.77 200.289 205.767Z" fill="#263238"/>
<path d="M215.737 162.265H215.581C215.489 162.245 215.403 162.207 215.326 162.153C215.249 162.099 215.184 162.031 215.134 161.952C215.083 161.873 215.049 161.784 215.034 161.692C215.018 161.599 215.02 161.505 215.041 161.413C215.68 158.673 216.021 156.998 216.035 156.998C216.073 156.81 216.184 156.644 216.343 156.538C216.503 156.431 216.699 156.392 216.887 156.43C217.075 156.468 217.241 156.579 217.347 156.738C217.454 156.898 217.493 157.094 217.455 157.282C217.455 157.282 217.114 158.971 216.475 161.74C216.43 161.898 216.333 162.037 216.199 162.132C216.064 162.228 215.901 162.275 215.737 162.265Z" fill="#263238"/>
<path d="M207.404 201.38C207.267 201.384 207.133 201.344 207.02 201.266C206.863 201.164 206.751 201.004 206.712 200.82C206.672 200.636 206.706 200.445 206.808 200.286C210.811 194.167 215.979 171.693 216.036 171.466C216.079 171.277 216.195 171.114 216.359 171.011C216.523 170.909 216.721 170.876 216.909 170.919C217.097 170.962 217.261 171.079 217.363 171.242C217.466 171.406 217.499 171.604 217.456 171.792C217.243 172.715 212.174 194.721 208.043 201.053C207.977 201.161 207.883 201.249 207.77 201.307C207.657 201.365 207.53 201.39 207.404 201.38Z" fill="#263238"/>
<path d="M66.6073 83.4261C70.1851 75.8447 73.1239 69.5694 73.4221 68.6608C74.2455 66.1904 62.1919 45.377 62.4617 44.5252C62.7314 43.6733 73.1523 31.0944 73.4221 28.3543C73.6918 25.6142 79.456 16.0309 75.069 15.4772C70.682 14.9235 47.3982 36.5746 46.8445 42.0264C46.2908 47.4782 57.2512 66.162 58.3586 67.7805C58.5858 68.1355 56.1864 71.1595 52.2821 75.8163C53.8012 79.536 57.521 84.2495 66.6073 83.4261Z" fill="white"/>
<path d="M64.4921 84.1808C56.2434 84.1808 52.907 79.2117 51.6151 76.0882C51.5663 75.9686 51.5512 75.838 51.5712 75.7104C51.5912 75.5828 51.6456 75.4631 51.7286 75.3642C53.8547 73.0246 55.8141 70.5386 57.5922 67.9247C55.8601 65.0852 45.5811 47.5372 46.1348 41.9576C46.5608 37.7836 57.9329 26.3405 65.9118 19.98C70.4976 16.3171 73.6069 14.5566 75.1544 14.7554C75.5329 14.781 75.8997 14.8976 76.2235 15.0954C76.5473 15.2931 76.8185 15.5661 77.0142 15.8912C78.1358 17.7936 76.6593 21.4991 75.3673 24.7646C74.8384 25.933 74.4247 27.1503 74.1322 28.3991C73.9334 30.3441 69.9581 35.6966 65.5427 41.4891C64.5489 42.7953 63.5267 44.1298 63.2143 44.6126C63.4983 45.4502 65.0316 48.3749 66.5082 51.2286C72.0735 61.905 74.6149 67.2574 74.1038 68.8334C73.9902 69.1315 73.692 70.0685 67.2464 83.6697C67.192 83.7819 67.1101 83.8785 67.0084 83.9505C66.9066 84.0225 66.7882 84.0675 66.6643 84.0814C65.9118 84.1524 65.1736 84.1808 64.4921 84.1808ZM53.1058 75.9321C54.6817 79.4814 58.2026 83.3289 66.139 82.7042C71.2785 71.8148 72.5846 68.9043 72.755 68.379C73.0957 66.9593 67.9847 57.1489 65.2446 51.8816C61.823 45.294 61.6242 44.7829 61.7946 44.2718C62.5576 42.9819 63.4316 41.761 64.4069 40.6231C67.0476 37.1589 72.542 29.9608 72.7124 28.2571C73.0112 26.8736 73.4586 25.5265 74.047 24.2392C75.055 21.7263 76.5599 17.9072 75.7933 16.6152C75.7094 16.4758 75.5907 16.3605 75.4488 16.2808C75.3069 16.2012 75.1467 16.1599 74.984 16.1609C74.1606 16.0473 71.5624 17.2967 66.7921 21.1016C58.4014 27.7886 47.8811 38.7916 47.5546 42.0996C47.0577 47.0829 57.2798 64.9007 58.9125 67.3852C59.3384 67.9815 59.5372 68.2797 53.1058 75.9321Z" fill="#263238"/>
<path d="M55.2536 44.8963C55.0839 44.8911 54.9207 44.8297 54.7897 44.7218C54.6586 44.6139 54.5671 44.4655 54.5295 44.3C54.3165 43.4623 56.5597 38.479 61.2023 29.4921C61.2452 29.4091 61.304 29.3354 61.3753 29.2751C61.4467 29.2149 61.5292 29.1693 61.6182 29.141C61.7072 29.1126 61.8009 29.1021 61.894 29.11C61.987 29.1178 62.0776 29.1439 62.1606 29.1868C62.2436 29.2297 62.3172 29.2885 62.3775 29.3599C62.4377 29.4312 62.4833 29.5138 62.5117 29.6028C62.54 29.6918 62.5506 29.7854 62.5427 29.8785C62.5348 29.9716 62.5087 30.0622 62.4658 30.1451C59.2998 36.2642 55.9918 43.15 55.9208 44.0728C55.9438 44.1607 55.9481 44.2523 55.9336 44.3419C55.9191 44.4316 55.8861 44.5172 55.8367 44.5933C55.7873 44.6695 55.7225 44.7345 55.6465 44.7842C55.5706 44.8339 55.4851 44.8673 55.3955 44.8821L55.2536 44.8963Z" fill="#263238"/>
<path d="M49.4081 43.589C49.2509 43.5888 49.0979 43.5375 48.9724 43.4427C48.8469 43.348 48.7556 43.2149 48.7125 43.0637C48.173 41.1754 53.7241 32.9977 56.1377 29.5761C56.2466 29.4218 56.4114 29.3162 56.5971 29.2817C56.7827 29.2472 56.9745 29.2866 57.1315 29.3915C57.2083 29.4453 57.2736 29.5138 57.3238 29.593C57.374 29.6722 57.408 29.7605 57.4238 29.8529C57.4397 29.9453 57.437 30.04 57.4161 30.1314C57.3952 30.2227 57.3564 30.3091 57.3019 30.3854C53.7241 35.4538 49.9476 41.6013 50.0896 42.6945C50.1375 42.8752 50.1122 43.0675 50.0192 43.2297C49.9261 43.3918 49.7729 43.5107 49.5927 43.5606L49.4081 43.589Z" fill="#263238"/>
<path d="M115.613 129.427L126.574 151.632L131.784 151.901L136.171 126.971L132.608 121.221L130.137 136.838L123.564 136.554L115.897 125.054L115.613 129.427Z" fill="#8A8A8A"/>
<path d="M131.792 152.611L126.596 152.341C126.468 152.335 126.344 152.294 126.237 152.225C126.13 152.155 126.043 152.058 125.985 151.943L115.025 129.753C114.997 129.631 114.997 129.505 115.025 129.384L115.309 125.011C115.31 124.859 115.36 124.712 115.452 124.591C115.545 124.471 115.674 124.384 115.82 124.343C115.967 124.303 116.122 124.312 116.263 124.368C116.404 124.425 116.523 124.526 116.601 124.656L124.069 135.858L129.662 136.099L132.019 121.107C132.044 120.962 132.111 120.828 132.212 120.722C132.313 120.616 132.444 120.542 132.587 120.51C132.729 120.481 132.876 120.497 133.008 120.556C133.141 120.614 133.252 120.712 133.325 120.837L136.889 126.587C136.983 126.734 137.019 126.911 136.988 127.084L132.601 152.029C132.588 152.121 132.556 152.209 132.507 152.288C132.459 152.367 132.395 152.436 132.319 152.49C132.244 152.545 132.159 152.583 132.068 152.604C131.977 152.625 131.884 152.627 131.792 152.611ZM127.036 150.935L131.196 151.163L135.455 127.112L133.056 123.179L130.883 136.908C130.865 137.083 130.779 137.244 130.644 137.355C130.508 137.467 130.334 137.52 130.159 137.505L123.586 137.235C123.473 137.232 123.363 137.202 123.264 137.147C123.165 137.093 123.081 137.016 123.018 136.923L116.516 127.169L116.388 129.256L127.036 150.935Z" fill="#263238"/>
<path d="M126.575 151.633L117.488 217.779L127.994 239.87L139.253 216.913L131.785 151.903L126.575 151.633Z" fill="#8A8A8A"/>
<path d="M127.999 240.578C127.864 240.579 127.732 240.54 127.618 240.467C127.505 240.394 127.415 240.289 127.36 240.166L116.854 218.075C116.82 217.945 116.82 217.808 116.854 217.677L125.955 151.574C125.979 151.399 126.069 151.239 126.205 151.126C126.342 151.013 126.516 150.955 126.693 150.964L131.889 151.234C132.059 151.239 132.221 151.305 132.346 151.42C132.471 151.534 132.55 151.69 132.571 151.858L139.953 216.882C139.995 217.012 139.995 217.151 139.953 217.28L128.695 240.237C128.624 240.355 128.521 240.45 128.397 240.511C128.274 240.571 128.136 240.595 127.999 240.578ZM118.231 217.663L128.013 238.179L138.519 216.726L131.151 152.525L127.19 152.313L118.231 217.663Z" fill="#263238"/>
<path d="M124.941 148.324L133.346 142.971L135.958 128.178L131.003 131.315L130.137 136.838L123.564 136.554L123.322 136.213L120 138.329L124.941 148.324Z" fill="#263238"/>
<path d="M131.795 151.901L131.809 151.83L131.695 151.901H131.795Z" fill="#263238"/>
<path d="M134.032 171.408L122.887 178.507L120.914 192.917L135.438 183.661L134.032 171.408Z" fill="#263238"/>
<path d="M133.186 164.096L131.795 151.9H131.696L126.059 155.478L124.086 169.889L133.186 164.096Z" fill="#263238"/>
<path d="M136.27 190.986L119.73 201.521L117.742 215.931L137.675 203.239L136.27 190.986Z" fill="#263238"/>
<path d="M134.742 226.125L139.257 216.911L138.533 210.564L119.75 222.519L124.549 232.613L134.742 226.125Z" fill="#263238"/>
<path d="M107.946 103.956C107.946 103.956 105.745 117.373 106.029 123.407C106.313 129.44 109.309 140.117 109.309 140.117L122.74 124.769L145.2 138.797C145.2 138.797 144.405 110.26 144.405 109.436C144.405 108.613 139.194 77.918 137.547 74.9081C136.651 73.4976 135.379 72.3651 133.874 71.6377C132.369 70.9104 130.691 70.6172 129.029 70.7909C126.573 71.3446 107.946 103.956 107.946 103.956Z" fill="#4C93FD"/>
<path d="M109.306 140.828H109.15C109.026 140.8 108.912 140.739 108.82 140.651C108.727 140.564 108.66 140.453 108.625 140.331C108.497 139.891 105.587 129.498 105.317 123.45C105.047 117.402 107.148 104.397 107.248 103.858C107.256 103.774 107.28 103.692 107.319 103.616C112.998 93.6782 126.386 70.6784 128.885 70.1247C130.693 69.9148 132.525 70.2223 134.166 71.0114C135.807 71.8005 137.19 73.0388 138.156 74.5827C139.973 77.9333 145.098 109.224 145.098 109.452C145.098 110.247 145.907 138.457 145.907 138.741C145.915 138.87 145.886 138.999 145.823 139.112C145.76 139.225 145.666 139.318 145.552 139.38C145.443 139.446 145.318 139.481 145.19 139.481C145.063 139.481 144.937 139.446 144.828 139.38L122.879 125.722L109.846 140.615C109.776 140.686 109.692 140.742 109.599 140.779C109.506 140.816 109.406 140.832 109.306 140.828ZM108.625 104.199C108.398 105.618 106.481 117.8 106.737 123.379C107.246 128.543 108.196 133.654 109.576 138.656L122.127 124.302C122.24 124.179 122.392 124.099 122.558 124.076C122.724 124.053 122.892 124.087 123.035 124.174L144.331 137.449C144.161 131.77 143.551 110.161 143.551 109.437C143.451 107.89 138.269 77.9617 136.778 75.25C135.957 73.9807 134.806 72.9595 133.447 72.2965C132.089 71.6335 130.575 71.3538 129.069 71.4876C127.365 72.3821 115.61 91.9461 108.625 104.199Z" fill="#263238"/>
<path d="M70.1005 29.1093C70.1005 29.1093 69.3907 49.1845 69.8592 57.206C70.3277 65.2276 69.1493 71.6164 71.2789 78.2182C73.4085 84.82 75.7653 97.6261 77.8807 101.885C79.0815 104.371 80.9613 106.466 83.3029 107.929C85.6445 109.391 88.3521 110.16 91.1127 110.148C97.7287 110.148 105.04 104.711 108.59 101.175C112.139 97.6403 118.272 92.657 121.566 86.2965C124.86 79.9361 122.049 63.8646 122.517 59.3214C122.986 54.7783 123.937 47.0407 123.937 47.0407C123.937 47.0407 128.651 35.4698 124.874 30.0038C121.098 24.5377 104.331 18.4328 91.5812 19.6254C83.6252 20.536 76.1338 23.8435 70.1005 29.1093Z" fill="white"/>
<path d="M91.1175 110.813C88.2245 110.831 85.3859 110.026 82.9326 108.493C80.4792 106.96 78.5123 104.761 77.2609 102.152C75.9547 99.5541 74.5918 93.9461 73.2714 88.5227C72.377 84.8739 71.4683 81.1116 70.6023 78.4425C69.1825 73.9419 69.1825 69.4981 69.2535 64.7988C69.2535 62.3994 69.2535 59.9149 69.1541 57.2457C68.6856 49.281 69.3813 29.2768 69.3955 29.0781C69.4004 28.8954 69.4768 28.722 69.6085 28.5953C75.7543 23.2107 83.4069 19.8454 91.5293 18.9553C104.307 17.7627 121.514 23.967 125.461 29.646C129.408 35.3249 125.106 46.044 124.638 47.2224C124.524 48.1168 123.672 55.2439 123.218 59.4038C123.145 61.6971 123.225 63.9928 123.459 66.2753C123.914 72.9197 124.553 82.0203 122.196 86.5776C119.498 91.7739 115.097 95.9621 111.462 99.3553C110.596 100.165 109.787 100.931 109.077 101.641C104.861 105.858 97.5632 110.813 91.1175 110.813ZM70.801 29.4756C70.7158 32.0027 70.1337 49.8347 70.5739 57.2032C70.73 59.9291 70.7017 62.4278 70.6733 64.8556C70.6733 69.6401 70.5739 73.7574 71.951 78.045C72.8313 80.7567 73.7541 84.5616 74.6485 88.2387C75.9547 93.577 77.3035 99.114 78.5244 101.556C79.6741 103.918 81.4643 105.909 83.6909 107.302C85.9176 108.695 88.491 109.434 91.1175 109.435C97.5916 109.435 104.832 103.927 108.154 100.661C108.879 99.9516 109.702 99.1707 110.582 98.3473C114.075 95.0535 118.433 90.9504 121.017 85.9671C123.19 81.7079 122.579 72.8913 122.125 66.4031C121.884 64.045 121.803 61.6733 121.883 59.3044C122.352 54.8606 123.303 47.0804 123.303 47.0094C123.295 46.9482 123.295 46.8861 123.303 46.8248C123.303 46.7113 127.832 35.5521 124.311 30.4978C120.577 25.117 104.08 19.2534 91.6571 20.4034C83.9608 21.2982 76.7028 24.4554 70.801 29.4756Z" fill="#263238"/>
<path d="M82.2733 77.4062C80.9711 77.5157 79.6605 77.3513 78.4258 76.9235C77.9715 76.6111 76.5659 75.6741 82.3301 58.8359L80.5128 51.9502C80.4895 51.857 80.4848 51.7601 80.499 51.6651C80.5131 51.57 80.5458 51.4787 80.5952 51.3963C80.6447 51.3139 80.7099 51.242 80.7871 51.1848C80.8643 51.1276 80.952 51.0862 81.0452 51.0629C81.1384 51.0396 81.2354 51.0348 81.3304 51.049C81.4254 51.0631 81.5168 51.0959 81.5992 51.1453C81.6816 51.1947 81.7534 51.2599 81.8106 51.3371C81.8678 51.4143 81.9093 51.5021 81.9326 51.5953L83.8208 58.694C83.8563 58.8289 83.8563 58.9708 83.8208 59.1057C81.3504 66.2896 79.0647 74.3679 79.3912 75.8019C80.527 76.2278 86.6035 75.9297 91.814 75.4044C92.0016 75.3884 92.1882 75.4461 92.334 75.5654C92.4798 75.6847 92.5734 75.8561 92.5948 76.0432C92.6107 76.2294 92.5524 76.4143 92.4328 76.5578C92.3132 76.7013 92.1419 76.7919 91.9559 76.8099C90.0961 76.9803 85.6239 77.4062 82.2733 77.4062Z" fill="#263238"/>
<path d="M90.4609 44.4554C90.4609 44.4554 90.2196 47.0535 91.1708 47.5221C92.122 47.9906 101.322 51.5399 102.742 51.0714C104.161 50.6029 102.273 48.7004 101.081 48.2319C99.888 47.7634 89.9356 42.3258 90.4609 44.4554Z" fill="#263238"/>
<path d="M102.384 51.8096C99.6864 51.8096 91.1963 48.3596 90.7988 48.1608C89.5636 47.5503 89.6204 45.3214 89.6914 44.4837C89.6573 44.3023 89.6737 44.115 89.7388 43.9422C89.8039 43.7695 89.9152 43.6179 90.0605 43.5041C90.9691 42.7942 93.2407 43.5041 99.7432 46.8121L101.291 47.5787C102.214 47.9479 103.931 49.2824 103.889 50.5176C103.879 50.7996 103.779 51.071 103.602 51.2911C103.426 51.5112 103.182 51.6682 102.909 51.7386C102.739 51.788 102.562 51.8119 102.384 51.8096ZM91.0969 44.7108C90.9776 45.4651 91.0915 46.2379 91.4234 46.9256C92.8432 47.6355 101.362 50.7306 102.469 50.4324C102.064 49.7723 101.47 49.2483 100.765 48.9275C100.524 48.8423 99.9135 48.53 99.1043 48.1324C97.429 47.2522 92.5593 44.8102 91.0969 44.6683V44.7108Z" fill="#263238"/>
<path d="M81.1953 48.2307C81.1953 48.2307 73.6423 52.4899 72.2225 52.7171C70.8028 52.9442 73.1738 49.8776 73.1738 49.8776C73.1738 49.8776 78.8528 43.503 80.2725 44.4542C81.6922 45.4054 81.1953 48.2307 81.1953 48.2307Z" fill="#263238"/>
<path d="M72.0752 53.442C71.9002 53.4483 71.7266 53.4084 71.5721 53.3261C71.4175 53.2438 71.2874 53.1222 71.195 52.9734C71.0388 52.7179 70.6271 52.0222 72.6147 49.4525C75.4542 46.3007 79.0603 42.7939 80.6647 43.8587C82.269 44.9235 81.9708 48.0185 81.914 48.3451C81.8931 48.45 81.8507 48.5496 81.7896 48.6375C81.7286 48.7254 81.6501 48.7999 81.5591 48.8562C80.2813 49.566 73.8215 53.1154 72.3449 53.4136L72.0752 53.442ZM79.827 45.0371C79.1029 45.0371 76.2493 47.479 73.6937 50.3611C73.3461 50.8132 73.0283 51.2874 72.7425 51.7809C74.3894 51.1278 78.0665 49.1543 80.5369 47.7772C80.6079 46.9821 80.5369 45.5056 79.8554 45.0371H79.827Z" fill="#263238"/>
<path d="M98.5353 60.5832C96.3625 60.53 94.2874 59.6696 92.7144 58.1697C92.5845 58.0322 92.5145 57.8488 92.5198 57.6598C92.5251 57.4707 92.6053 57.2915 92.7428 57.1616C92.8802 57.0317 93.0637 56.9618 93.2527 56.9671C93.4417 56.9724 93.6209 57.0526 93.7508 57.19C94.8603 58.2846 96.3126 58.9639 97.8639 59.1138C99.4151 59.2638 100.971 58.8752 102.269 58.0135C102.432 57.9184 102.625 57.8904 102.808 57.9355C102.991 57.9805 103.149 58.0951 103.249 58.2548C103.34 58.4183 103.366 58.6104 103.322 58.7923C103.277 58.9742 103.165 59.1323 103.008 59.2345C101.67 60.0886 100.122 60.5554 98.5353 60.5832Z" fill="#263238"/>
<path d="M76.4998 60.9949C75.3683 61.0005 74.2541 60.7171 73.2628 60.1715C73.182 60.1235 73.1116 60.0597 73.0561 59.9839C73.0006 59.9081 72.9611 59.8217 72.9398 59.7302C72.9186 59.6386 72.9162 59.5437 72.9326 59.4512C72.9491 59.3587 72.9841 59.2704 73.0356 59.1918C73.0836 59.113 73.1467 59.0444 73.2214 58.9902C73.2961 58.936 73.3809 58.8972 73.4707 58.876C73.5606 58.8549 73.6538 58.8518 73.7448 58.8671C73.8359 58.8823 73.923 58.9155 74.001 58.9647C75.0986 59.5424 76.361 59.7265 77.5779 59.4863C78.7947 59.246 79.8924 58.5959 80.688 57.6443C80.8217 57.5106 81.003 57.4355 81.192 57.4355C81.3811 57.4355 81.5624 57.5106 81.696 57.6443C81.8297 57.778 81.9048 57.9593 81.9048 58.1483C81.9048 58.3374 81.8297 58.5187 81.696 58.6523C81.0345 59.3754 80.2326 59.956 79.3392 60.3587C78.4458 60.7615 77.4797 60.978 76.4998 60.9949Z" fill="#263238"/>
<path d="M122.518 59.2918C122.944 55.2172 123.753 48.4592 123.938 47.224L119.238 44.6543C119.238 44.6543 120.658 62.1171 118.77 71.7998C116.882 81.4824 113.574 84.5774 109.797 85.9972C106.021 87.4169 104.118 85.5287 104.118 85.5287C104.118 85.5287 95.1453 77.0102 87.0812 76.7973C80.0677 76.5843 74.6869 84.2935 73.4375 86.2528C74.9282 92.3293 76.4473 99.0304 77.8671 101.87C79.0678 104.356 80.9476 106.451 83.2892 107.913C85.6308 109.375 88.3385 110.145 91.0991 110.133C97.7151 110.133 105.027 104.695 108.576 101.16C112.125 97.6249 118.259 92.6416 121.553 86.2811C124.846 79.9207 122.049 63.8208 122.518 59.2918Z" fill="#263238"/>
<path d="M91.1143 110.815C88.2212 110.834 85.3826 110.029 82.9293 108.496C80.476 106.963 78.509 104.764 77.2576 102.155C75.9514 99.557 74.5885 93.949 73.2681 88.5114L72.757 86.4385C72.7145 86.2498 72.7449 86.052 72.8422 85.8848C74.3471 83.5423 79.9409 75.9466 87.1248 76.1028C95.3167 76.3442 104.162 84.6213 104.588 85.033C104.659 85.104 106.249 86.5805 109.514 85.3453C112.78 84.1102 116.102 81.6398 118.033 71.7158C119.878 62.2319 118.501 44.9253 118.487 44.7407C118.476 44.6126 118.5 44.4839 118.557 44.3684C118.613 44.253 118.7 44.155 118.808 44.085C118.916 44.015 119.041 43.9757 119.169 43.9711C119.298 43.9666 119.425 43.997 119.538 44.0592L124.237 46.629C124.36 46.6993 124.46 46.8036 124.526 46.9295C124.591 47.0554 124.619 47.1975 124.606 47.3388C124.45 48.574 123.641 55.332 123.186 59.3925C123.113 61.6858 123.194 63.9815 123.428 66.264C123.882 72.9084 124.521 82.0089 122.164 86.5663C119.467 91.7626 115.065 95.9508 111.431 99.344C110.565 100.153 109.755 100.92 109.046 101.63C104.857 105.861 97.5599 110.815 91.1143 110.815ZM74.2051 86.3959L74.6452 88.1848C75.9514 93.5373 77.3002 99.0742 78.5211 101.516C79.6708 103.878 81.461 105.869 83.6876 107.262C85.9143 108.655 88.4877 109.395 91.1143 109.396C97.5883 109.396 104.829 103.887 108.151 100.622C108.875 99.9119 109.699 99.131 110.579 98.3076C114.072 95.0138 118.43 90.9107 121.014 85.9274C123.186 81.6682 122.576 72.8516 122.121 66.3634C121.88 64.0053 121.8 61.6336 121.88 59.2647C122.278 55.5591 122.973 49.6388 123.215 47.6654L120.091 45.9475C120.375 50.2067 121.113 63.7511 119.509 71.9856C117.436 82.6052 113.589 85.3737 110.082 86.6799C105.936 88.2416 103.764 86.1404 103.665 86.041C103.565 85.9416 94.8056 77.7355 87.1532 77.5225C80.6792 77.2954 75.5397 84.3941 74.2051 86.3959Z" fill="#263238"/>
<path d="M98.4209 92.6263C98.4209 92.6263 93.466 85.5276 88.7524 84.3634C84.0389 83.1992 79.0698 92.3849 80.7167 94.046C82.3636 95.7071 84.7346 89.5596 89.2352 91.4479C93.7358 93.3361 96.3055 96.4028 98.4209 92.6263Z" fill="white"/>
<path d="M96.0239 95.1264C94.5557 94.9409 93.1508 94.4159 91.9208 93.5931C90.9532 93.0666 89.9579 92.5927 88.9393 92.1733C86.7671 91.2505 85.1628 92.585 83.7573 93.7634C82.6499 94.7146 81.3721 95.7795 80.2221 94.6153C79.0722 93.4511 79.924 90.9381 81.0598 88.9363C82.6925 86.0968 85.7307 82.9592 88.9252 83.7542C93.8375 84.9894 98.8633 92.0029 99.0053 92.2727C99.0743 92.3861 99.1107 92.5162 99.1107 92.6489C99.1107 92.7816 99.0743 92.9118 99.0053 93.0251C98.7571 93.6209 98.3455 94.1344 97.8179 94.5062C97.2904 94.878 96.6684 95.093 96.0239 95.1264ZM87.5054 90.3702C88.1853 90.3769 88.8567 90.5218 89.4788 90.7962C90.5427 91.2548 91.5807 91.7714 92.5881 92.3437C95.3424 93.8344 96.464 94.3313 97.5572 92.6702C96.4782 91.2505 92.3751 85.9974 88.556 85.0462C86.2986 84.4925 83.7857 86.9061 82.2807 89.561C81.0598 91.7048 80.932 93.2665 81.2018 93.5363C81.4715 93.806 81.8548 93.4369 82.8345 92.6134C84.0759 91.3271 85.7391 90.5307 87.5196 90.3702H87.5054Z" fill="#263238"/>
<path d="M69.39 16.584C69.39 16.584 62.2913 14.4686 57.8191 16.8254C54.8862 18.5989 52.5749 21.2375 51.2031 24.3784L60.4172 25.0883L64.6765 27.2179C64.6765 27.2179 62.7882 27.2179 61.837 29.816C61.1924 31.68 60.6427 33.5754 60.1901 35.495C62.8563 34.1387 65.7392 33.2594 68.7085 32.8969C73.8906 31.9247 79.0144 30.6639 84.0559 29.1204L85.2344 36.9148C88.5738 34.791 92.1407 33.048 95.8682 31.7185C98.7103 30.8528 101.301 29.3137 103.421 27.2321C103.421 27.2321 115.702 31.9457 115.461 34.0753C115.219 36.2049 110.974 41.4011 112.394 43.048C113.814 44.6949 117.59 48.2443 117.59 48.2443L131.788 56.28C135.545 49.8433 138.18 42.8149 139.582 35.495C142.166 22.7173 130.368 9.04521 120.444 5.2687C110.52 1.49218 103.208 2.91192 97.075 3.13908C92.1472 3.10017 87.2368 2.54824 82.4232 1.49219L88.1022 7.39831C85.5538 8.40678 82.9517 9.27414 80.3078 9.99644C77.9369 10.465 73.9332 11.6433 72.982 11.1748C72.0307 10.7063 68.7227 8.5767 68.7227 8.5767C68.7227 8.5767 67.0191 15.647 69.39 16.584Z" fill="#263238"/>
<path d="M131.731 56.9771C131.607 56.9728 131.485 56.9387 131.376 56.8777L117.179 48.8562L117.051 48.7568C116.895 48.6006 113.218 45.1648 111.798 43.5037C110.606 42.084 111.969 39.5994 113.218 37.1717C113.834 36.1814 114.312 35.1114 114.638 33.9915C114.453 33.0544 109.399 30.3569 103.478 28.0427C101.334 30.0454 98.7603 31.5313 95.9538 32.3872C92.2895 33.6922 88.7842 35.4067 85.5045 37.4982C85.3997 37.5541 85.2826 37.5834 85.1638 37.5834C85.0449 37.5834 84.9279 37.5541 84.8231 37.4982C84.7159 37.4502 84.623 37.3752 84.5534 37.2807C84.4837 37.1862 84.4397 37.0753 84.4255 36.9587L83.3607 29.9736C78.5448 31.4468 73.6481 32.6413 68.6948 33.5513C65.8218 33.9027 63.0311 34.7481 60.4461 36.0501C60.3301 36.1264 60.1944 36.1671 60.0556 36.1671C59.9169 36.1671 59.7811 36.1264 59.6652 36.0501C59.5565 35.9672 59.4734 35.8552 59.4257 35.7271C59.378 35.5989 59.3675 35.4599 59.3955 35.326C59.8566 33.3808 60.4205 31.4615 61.085 29.5761C61.3962 28.5989 62.0072 27.7446 62.8313 27.1341L60.1338 25.7854L51.0616 25.0897C50.9488 25.0811 50.8397 25.0457 50.7434 24.9864C50.6471 24.9272 50.5663 24.8457 50.5079 24.7489C50.459 24.6495 50.4336 24.5403 50.4336 24.4295C50.4336 24.3187 50.459 24.2095 50.5079 24.1101C51.9316 20.8132 54.3552 18.047 57.4362 16.2021C60.7016 14.4842 65.1454 14.9669 67.6442 15.4638C67.2379 13.1033 67.3396 10.6833 67.9423 8.36511C67.9732 8.2564 68.0272 8.15567 68.1007 8.06988C68.1742 7.98409 68.2655 7.91528 68.3682 7.8682C68.4692 7.81593 68.5812 7.78865 68.6948 7.78865C68.8084 7.78865 68.9204 7.81593 69.0213 7.8682C69.0213 7.8682 72.3009 9.96943 73.2096 10.4237C74.8275 10.3787 76.432 10.1161 77.9799 9.64288C78.7323 9.47251 79.3996 9.30215 80.0669 9.18857C82.332 8.59072 84.5601 7.86067 86.7397 7.00216L81.8132 1.8627C81.7072 1.75324 81.64 1.61199 81.6221 1.46066C81.6041 1.30933 81.6363 1.15628 81.7138 1.02505C81.7904 0.895689 81.9054 0.793387 82.0428 0.732329C82.1801 0.671271 82.3331 0.654489 82.4805 0.684312C87.2349 1.71881 92.0823 2.26587 96.9477 2.31702C97.9841 2.31702 99.0489 2.20343 100.156 2.13244C105.537 1.76331 112.224 1.2948 120.601 4.48922C130.397 8.22314 142.891 22.165 140.179 35.5248C138.766 42.9326 136.097 50.0441 132.285 56.5512C132.234 56.6617 132.157 56.7581 132.061 56.8323C131.964 56.9065 131.851 56.9561 131.731 56.9771ZM117.988 47.6636L131.476 55.3018C134.958 49.0758 137.435 42.339 138.816 35.3402C141.4 22.7045 129.474 9.47252 120.146 5.92316C112.054 2.84232 105.807 3.26824 100.27 3.65157C99.1483 3.65157 98.0692 3.79355 97.0186 3.83614C92.7905 3.85531 88.5712 3.44623 84.4255 2.61516L88.5286 6.87439C88.6063 6.95962 88.6633 7.06155 88.6953 7.17233C88.7273 7.2831 88.7334 7.39975 88.7131 7.51327C88.6868 7.62778 88.6329 7.73415 88.5562 7.8232C88.4796 7.91225 88.3823 7.98129 88.273 8.02438C85.6897 9.05501 83.0494 9.9367 80.3651 10.6651C79.7688 10.7787 79.0589 10.949 78.3207 11.1194C75.325 11.8151 73.4509 12.2126 72.6417 11.7725C71.8324 11.3324 70.2565 10.3528 69.1917 9.69967C68.7374 12.2552 68.6096 15.4922 69.6744 15.9181C69.8363 15.9913 69.9648 16.1224 70.0347 16.2857C70.1046 16.449 70.1108 16.6326 70.0519 16.8002C69.9931 16.9678 69.8736 17.1073 69.7169 17.191C69.5603 17.2748 69.3779 17.2968 69.2059 17.2527C69.2059 17.2527 62.3485 15.2509 58.1745 17.4373C55.6598 18.9331 53.6291 21.1216 52.3252 23.7409L60.5029 24.3656C60.5876 24.353 60.6737 24.353 60.7584 24.3656L65.0176 26.4952C65.1619 26.565 65.2783 26.6816 65.3479 26.8259C65.4175 26.9703 65.4362 27.1339 65.401 27.2903C65.3631 27.4468 65.2741 27.5862 65.1481 27.6865C65.0221 27.7868 64.8663 27.8422 64.7053 27.844C64.7053 27.844 63.2855 27.844 62.5331 29.9736C62.022 31.3933 61.5677 32.9834 61.2837 34.105C63.6276 33.103 66.0969 32.4248 68.6238 32.089C73.7682 31.1271 78.8542 29.8758 83.8576 28.3409C83.9574 28.3124 84.0621 28.3052 84.1649 28.3199C84.2676 28.3346 84.3661 28.3708 84.4539 28.4261C84.5387 28.4782 84.6107 28.5485 84.6647 28.6321C84.7188 28.7156 84.7535 28.8101 84.7663 28.9088L85.7885 35.6384C88.9162 33.7073 92.2495 32.1311 95.7267 30.939C98.4474 30.1218 100.931 28.6608 102.967 26.6798C103.065 26.5755 103.191 26.5023 103.33 26.4695C103.469 26.4366 103.614 26.4456 103.748 26.4952C108.519 28.3409 116.526 31.7625 116.242 34.0908C115.899 35.4256 115.343 36.6961 114.595 37.8532C113.772 39.3723 112.394 41.9278 112.948 42.5809C114.183 44.0716 117.435 47.1951 117.988 47.6636Z" fill="#263238"/>
<path d="M126.291 69.2288C128.416 68.0588 130.269 66.4524 131.729 64.5153C133.617 61.6758 139.04 50.8148 132.666 47.7481C127.838 45.4197 124.644 49.5938 123.366 51.7518C123.082 54.2221 122.742 57.1468 122.514 59.319C122.046 63.8054 124.871 79.8627 121.563 86.2941C118.255 92.7256 112.122 97.6521 108.587 101.173C106.89 102.837 105.047 104.343 103.078 105.674L109.055 107.306C110.729 111.837 113.126 116.066 116.154 119.828C119.142 123.655 122.376 127.283 125.837 130.689C125.837 130.689 127.256 122.171 131.033 103.288C134.809 84.4059 131.97 73.4739 131.97 73.4739L126.291 69.2288Z" fill="white"/>
<path d="M125.827 131.357C125.642 131.355 125.465 131.285 125.33 131.158C121.851 127.728 118.598 124.077 115.591 120.226C112.6 116.49 110.206 112.314 108.492 107.846L102.884 106.313C102.753 106.279 102.634 106.206 102.543 106.105C102.453 106.005 102.393 105.879 102.373 105.745C102.351 105.611 102.367 105.473 102.42 105.347C102.472 105.222 102.56 105.114 102.671 105.035C104.602 103.733 106.408 102.255 108.066 100.62C108.79 99.91 109.614 99.1291 110.494 98.3056C113.986 95.0118 118.345 90.9088 120.929 85.9255C123.101 81.6663 122.491 72.8497 122.036 66.3614C121.795 64.0034 121.714 61.6317 121.795 59.2627C122.022 57.0905 122.363 54.1517 122.647 51.6955C122.665 51.5962 122.698 51.5004 122.746 51.4116C124.01 49.2536 127.545 44.5116 132.968 47.1523C133.739 47.5055 134.421 48.0267 134.964 48.6778C135.507 49.3288 135.897 50.0931 136.106 50.9147C137.426 55.7418 133.707 62.8405 132.301 64.9417C131.025 66.7064 129.414 68.202 127.559 69.3429L132.372 72.9633C132.501 73.0583 132.596 73.1929 132.642 73.3466C132.755 73.8009 135.481 84.5909 131.705 103.417C127.928 122.243 126.523 130.704 126.508 130.789C126.486 130.915 126.431 131.032 126.349 131.129C126.266 131.226 126.16 131.3 126.04 131.343C125.97 131.36 125.898 131.364 125.827 131.357ZM104.73 105.333L109.244 106.583C109.359 106.615 109.464 106.675 109.55 106.756C109.637 106.838 109.702 106.939 109.741 107.051C111.39 111.494 113.738 115.645 116.698 119.346C119.403 122.782 122.294 126.066 125.358 129.185C125.898 126.104 127.417 117.643 130.328 103.119C133.721 86.0817 131.747 75.5898 131.336 73.9145L125.87 69.8114C125.773 69.743 125.697 69.6507 125.647 69.5437C125.597 69.4367 125.576 69.3186 125.586 69.2009C125.597 69.0798 125.637 68.9634 125.704 68.8618C125.771 68.7603 125.862 68.6768 125.969 68.6189C127.985 67.499 129.745 65.971 131.137 64.1325C132.784 61.6621 135.836 55.2591 134.743 51.2696C134.585 50.6471 134.289 50.0684 133.876 49.5766C133.463 49.0849 132.944 48.693 132.358 48.4301C128.241 46.4425 125.415 49.7647 124.067 52.0363C123.783 54.464 123.442 57.3177 123.229 59.4331C123.155 61.7265 123.236 64.0221 123.47 66.3047C123.925 72.9491 124.563 82.0496 122.207 86.607C119.509 91.8032 115.108 95.9915 111.473 99.3847C110.607 100.194 109.798 100.961 109.088 101.67C107.729 102.999 106.272 104.223 104.73 105.333Z" fill="#263238"/>
<path d="M109.062 107.264L117.325 109.62L113.308 115.527C111.676 112.889 110.256 110.126 109.062 107.264Z" fill="#263238"/>
<path d="M113.3 116.237C113.181 116.239 113.064 116.208 112.961 116.148C112.859 116.088 112.774 116.001 112.718 115.896C111.071 113.216 109.646 110.405 108.458 107.491C108.415 107.37 108.406 107.24 108.434 107.114C108.462 106.988 108.524 106.873 108.615 106.782C108.702 106.685 108.815 106.616 108.941 106.58C109.066 106.545 109.199 106.546 109.324 106.583L117.587 108.94C117.694 108.972 117.792 109.028 117.873 109.105C117.954 109.181 118.017 109.275 118.056 109.38C118.095 109.487 118.108 109.603 118.094 109.717C118.079 109.83 118.037 109.939 117.971 110.033L113.967 115.925C113.894 116.032 113.793 116.117 113.676 116.172C113.559 116.227 113.429 116.249 113.3 116.237ZM110.247 108.343C111.179 110.349 112.212 112.306 113.342 114.207L116.182 110.047L110.247 108.343Z" fill="#263238"/>
<path d="M158.902 100.932L165.703 272.252L181.05 273.346C181.05 273.346 194.197 217.976 198.087 199.093C201.977 180.21 203.298 168.143 203.028 153.065C202.758 137.987 199.18 106.767 199.18 106.767C199.18 106.767 191.244 93.3364 184.387 88.6797" fill="#4C93FD"/>
<path d="M181.11 273.986L165.706 272.892C165.532 272.879 165.37 272.801 165.25 272.676C165.129 272.55 165.059 272.385 165.053 272.211L158.195 100.962C158.191 100.774 158.26 100.593 158.387 100.455C158.514 100.317 158.69 100.234 158.877 100.223C158.97 100.219 159.063 100.234 159.151 100.266C159.238 100.298 159.319 100.348 159.387 100.411C159.456 100.474 159.511 100.55 159.55 100.635C159.59 100.72 159.612 100.811 159.615 100.905L166.444 271.529L180.556 272.523C181.976 266.532 193.817 216.529 197.395 198.881C201.299 179.672 202.577 167.647 202.321 153.009C202.051 138.684 198.772 109.31 198.502 106.924C197.664 105.505 190.282 93.4653 183.992 89.1919C183.861 89.0776 183.777 88.9193 183.755 88.747C183.733 88.5747 183.775 88.4003 183.873 88.2568C183.971 88.1133 184.118 88.0108 184.287 87.9686C184.455 87.9263 184.633 87.9474 184.787 88.0277C191.687 92.7128 199.467 105.774 199.794 106.328C199.848 106.414 199.882 106.511 199.893 106.612C199.893 106.924 203.457 138.059 203.741 152.981C204.025 167.902 202.704 179.842 198.786 199.165C194.995 217.877 181.919 272.892 181.749 273.446C181.718 273.594 181.638 273.728 181.522 273.825C181.406 273.923 181.261 273.979 181.11 273.986Z" fill="#263238"/>
<path d="M190.069 133.673H189.856C189.678 133.614 189.529 133.487 189.444 133.319C189.359 133.152 189.344 132.957 189.402 132.778C190.822 128.306 191.659 125.424 191.659 125.424C191.715 125.245 191.838 125.095 192.002 125.005C192.166 124.915 192.359 124.892 192.54 124.941C192.629 124.967 192.713 125.011 192.785 125.069C192.858 125.127 192.918 125.2 192.963 125.281C193.008 125.363 193.036 125.453 193.047 125.545C193.057 125.638 193.048 125.732 193.022 125.821C193.022 125.821 192.171 128.661 190.751 133.204C190.7 133.344 190.608 133.464 190.485 133.548C190.363 133.632 190.218 133.675 190.069 133.673Z" fill="#263238"/>
<path d="M163.025 200.84C162.931 200.854 162.835 200.854 162.741 200.84C162.57 200.762 162.436 200.621 162.367 200.446C162.298 200.272 162.3 200.077 162.372 199.903C162.443 199.747 169.03 184.357 176.569 167.561C180.828 158.205 184.946 146.265 187.686 137.96C187.713 137.87 187.758 137.787 187.818 137.715C187.879 137.644 187.953 137.585 188.036 137.542C188.12 137.5 188.211 137.475 188.305 137.468C188.398 137.462 188.492 137.475 188.58 137.506C188.759 137.564 188.907 137.691 188.993 137.859C189.078 138.026 189.093 138.221 189.035 138.4C186.28 146.762 182.12 158.731 177.861 168.144C170.28 184.925 163.664 200.301 163.664 200.457C163.602 200.573 163.51 200.67 163.397 200.737C163.285 200.805 163.156 200.84 163.025 200.84Z" fill="#263238"/>
<path d="M180.003 180.553C179.88 180.556 179.758 180.526 179.651 180.467C179.543 180.408 179.452 180.322 179.389 180.216C179.325 180.111 179.291 179.991 179.289 179.868C179.287 179.745 179.318 179.623 179.378 179.516C179.837 178.595 180.24 177.646 180.585 176.677C180.617 176.589 180.665 176.509 180.729 176.441C180.792 176.372 180.868 176.317 180.952 176.279C181.037 176.24 181.129 176.219 181.222 176.217C181.315 176.215 181.407 176.231 181.494 176.265C181.671 176.329 181.815 176.461 181.895 176.631C181.975 176.801 181.984 176.997 181.92 177.174C181.548 178.199 181.121 179.204 180.642 180.183C180.581 180.299 180.488 180.394 180.375 180.46C180.262 180.525 180.133 180.557 180.003 180.553Z" fill="#263238"/>
<path d="M182.745 173.013H182.546C182.455 172.987 182.37 172.943 182.296 172.884C182.223 172.824 182.161 172.751 182.116 172.667C182.071 172.584 182.044 172.493 182.035 172.398C182.025 172.304 182.035 172.209 182.064 172.118C185.201 161.669 188.58 145.64 188.623 145.484C188.641 145.393 188.678 145.306 188.73 145.229C188.782 145.151 188.849 145.085 188.927 145.034C189.005 144.982 189.092 144.947 189.183 144.929C189.275 144.911 189.369 144.912 189.46 144.93C189.643 144.971 189.803 145.081 189.906 145.238C190.009 145.394 190.048 145.584 190.014 145.768C190.014 145.938 186.578 162.024 183.427 172.53C183.381 172.674 183.289 172.798 183.166 172.885C183.043 172.972 182.896 173.017 182.745 173.013Z" fill="#263238"/>
<path d="M184.159 258.651L165.702 257.828C165.609 257.824 165.517 257.802 165.432 257.763C165.348 257.724 165.271 257.669 165.208 257.6C165.145 257.531 165.096 257.451 165.063 257.363C165.031 257.276 165.017 257.183 165.02 257.09C165.015 256.994 165.032 256.898 165.068 256.809C165.104 256.72 165.159 256.641 165.23 256.576C165.3 256.51 165.384 256.462 165.475 256.433C165.567 256.404 165.664 256.395 165.759 256.408L184.116 257.232C184.304 257.232 184.485 257.306 184.618 257.439C184.751 257.573 184.826 257.753 184.826 257.941C184.826 258.13 184.751 258.31 184.618 258.443C184.485 258.576 184.304 258.651 184.116 258.651H184.159Z" fill="#263238"/>
<path d="M165.702 272.252C165.702 272.252 163.559 298.688 163.559 300.973C163.559 303.259 165.39 319.941 165.844 321.318C166.299 322.695 177.955 331.37 179.091 331.37C180.226 331.37 186.644 332.051 187.779 330.22C188.915 328.389 189.384 327.253 187.779 326.798C185.814 326.518 183.826 326.442 181.845 326.571L179.332 325.421C179.332 325.421 188.688 324.513 189.384 324.285C190.079 324.058 193.487 321.773 194.182 320.168C194.348 319.597 194.391 318.997 194.311 318.408C194.23 317.819 194.027 317.253 193.714 316.747C193.714 316.747 197.15 313.538 197.377 312.402C197.604 311.266 197.831 308.058 196.241 308.512C194.761 309.234 193.438 310.243 192.351 311.479H186.672C186.672 311.479 192.607 307.604 193.288 306.454C194.225 304.13 194.707 301.648 194.708 299.142C194.481 297.722 191.513 299.369 190.818 300.746C190.122 302.123 188.986 305.772 188.986 305.772L182.143 306.681L179.9 303.642C179.9 303.642 184.471 289.445 184.471 286.506C184.471 283.567 181.163 273.274 181.163 273.274L165.702 272.252Z" fill="white"/>
<path d="M182.74 332.123C181.874 332.123 180.951 332.123 180.028 332.038H179.205C177.657 332.038 165.816 323.065 165.291 321.489C164.766 319.913 162.863 303.203 162.863 300.903C162.863 298.603 164.922 273.203 165.007 272.124C165.025 271.94 165.113 271.769 165.253 271.648C165.393 271.526 165.574 271.463 165.76 271.471L181.107 272.565C181.248 272.577 181.383 272.631 181.494 272.719C181.605 272.808 181.688 272.927 181.732 273.062C181.874 273.487 185.082 283.468 185.082 286.506C185.082 289.346 181.306 301.243 180.582 303.543L182.399 305.886L188.39 305.091C188.891 303.495 189.473 301.927 190.137 300.392C190.559 299.67 191.154 299.064 191.867 298.628C192.58 298.192 193.391 297.94 194.225 297.893C194.508 297.922 194.772 298.046 194.976 298.245C195.179 298.443 195.31 298.704 195.347 298.986C195.406 301.653 194.923 304.305 193.927 306.78C192.465 308.295 190.82 309.621 189.029 310.727H192.096C193.203 309.471 194.569 308.469 196.099 307.788C196.343 307.715 196.601 307.705 196.85 307.76C197.098 307.814 197.329 307.932 197.519 308.101C198.726 309.222 198.115 312.36 198.087 312.502C197.86 313.609 195.702 315.796 194.609 316.846C194.888 317.393 195.053 317.991 195.094 318.603C195.136 319.216 195.053 319.83 194.85 320.41C194.055 322.256 190.42 324.669 189.625 324.91C189.114 325.081 185.366 325.493 182.399 325.791C184.268 325.668 186.145 325.763 187.993 326.075C188.304 326.135 188.595 326.27 188.842 326.468C189.09 326.666 189.285 326.921 189.412 327.21C189.796 328.176 189.143 329.34 188.376 330.561C187.609 331.782 185.38 332.123 182.74 332.123ZM179.346 330.589H180.099C184.358 330.817 186.8 330.589 187.297 329.752C187.993 328.616 188.305 327.92 188.206 327.665C188.106 327.409 188.021 327.48 187.695 327.381C185.814 327.112 183.91 327.045 182.016 327.182C181.91 327.217 181.795 327.217 181.689 327.182L179.176 326.046C179.032 325.982 178.914 325.872 178.839 325.733C178.764 325.595 178.738 325.435 178.764 325.28C178.794 325.125 178.871 324.984 178.986 324.877C179.101 324.77 179.247 324.702 179.403 324.683C182.924 324.343 188.731 323.746 189.341 323.576C189.952 323.406 193.132 321.219 193.714 319.856C193.839 319.391 193.867 318.905 193.797 318.429C193.726 317.953 193.558 317.496 193.303 317.088C193.215 316.949 193.178 316.783 193.199 316.62C193.22 316.457 193.297 316.306 193.416 316.193C194.758 315.053 195.921 313.718 196.866 312.232C197.148 311.216 197.098 310.137 196.724 309.151C195.317 309.829 194.069 310.797 193.061 311.991C192.995 312.064 192.914 312.122 192.823 312.161C192.732 312.2 192.635 312.22 192.536 312.218H186.857C186.705 312.221 186.555 312.174 186.432 312.085C186.309 311.995 186.219 311.867 186.175 311.721C186.129 311.576 186.132 311.419 186.183 311.276C186.234 311.132 186.331 311.009 186.459 310.926C188.746 309.54 190.891 307.933 192.862 306.127C193.69 303.945 194.123 301.632 194.14 299.298C193.098 299.553 192.19 300.192 191.599 301.087C190.946 302.393 189.824 305.985 189.81 306.014C189.769 306.143 189.693 306.258 189.59 306.345C189.487 306.433 189.362 306.49 189.228 306.511L182.371 307.419C182.247 307.438 182.121 307.423 182.006 307.376C181.891 307.328 181.791 307.25 181.717 307.149L179.432 304.182C179.361 304.091 179.314 303.984 179.294 303.87C179.274 303.756 179.282 303.639 179.318 303.529C180.582 299.611 183.861 288.948 183.861 286.606C183.861 284.263 181.363 276.057 180.724 274.055L166.526 273.047C166.185 277.307 164.439 298.986 164.439 301.002C164.439 303.373 166.285 319.913 166.682 321.12C167.307 322.341 177.827 330.334 179.346 330.689V330.589Z" fill="#263238"/>
<path d="M182.118 312.518C181.506 312.54 180.894 312.474 180.301 312.319C178.881 311.837 174.523 308.06 173.671 307.393C173.531 307.267 173.444 307.093 173.428 306.906C173.413 306.718 173.469 306.532 173.586 306.385C173.711 306.244 173.887 306.158 174.075 306.144C174.263 306.131 174.45 306.192 174.594 306.314C176.499 308.053 178.562 309.612 180.755 310.971C182.703 311.146 184.665 311.06 186.59 310.715C186.776 310.69 186.965 310.739 187.115 310.85C187.266 310.961 187.368 311.126 187.4 311.311C187.414 311.404 187.41 311.498 187.387 311.588C187.365 311.679 187.325 311.764 187.269 311.84C187.214 311.915 187.144 311.978 187.064 312.026C186.984 312.075 186.896 312.107 186.803 312.121C185.251 312.35 183.687 312.482 182.118 312.518Z" fill="#263238"/>
<path d="M180.977 319.445C178.762 319.445 172.018 313.581 170.684 312.346C170.616 312.282 170.562 312.205 170.525 312.12C170.488 312.034 170.469 311.942 170.469 311.849C170.469 311.756 170.488 311.664 170.525 311.578C170.562 311.493 170.616 311.416 170.684 311.352C170.744 311.281 170.817 311.223 170.9 311.181C170.983 311.139 171.073 311.114 171.166 311.107C171.258 311.101 171.351 311.113 171.439 311.143C171.527 311.172 171.608 311.22 171.678 311.281C175.397 314.561 179.912 317.968 181.034 317.968C182.61 317.968 190.007 316.62 193.698 315.91C193.884 315.876 194.076 315.917 194.232 316.023C194.389 316.129 194.498 316.292 194.536 316.478C194.569 316.664 194.528 316.856 194.422 317.012C194.316 317.169 194.153 317.277 193.968 317.315C193.471 317.457 183.078 319.445 180.977 319.445Z" fill="#263238"/>
<path d="M179.382 326.061C179.288 326.079 179.191 326.079 179.098 326.061C179.098 326.061 176.599 324.925 175.279 324.485C173.958 324.045 170.125 319.643 169.017 318.323C168.957 318.253 168.91 318.171 168.882 318.083C168.853 317.994 168.842 317.901 168.85 317.808C168.858 317.716 168.885 317.625 168.928 317.543C168.971 317.461 169.031 317.388 169.103 317.329C169.249 317.209 169.436 317.151 169.624 317.167C169.812 317.183 169.987 317.272 170.111 317.414C172.24 319.984 174.995 322.895 175.79 323.093C177.209 323.562 179.637 324.669 179.737 324.726C179.88 324.796 179.996 324.912 180.066 325.056C180.136 325.199 180.155 325.362 180.12 325.518C180.086 325.674 180 325.814 179.876 325.915C179.752 326.016 179.598 326.072 179.438 326.075L179.382 326.061Z" fill="#263238"/>
</svg>
