<svg width="231" height="479" viewBox="0 0 231 479" fill="none" xmlns="http://www.w3.org/2000/svg">
<path d="M66.8718 221.678L59.8527 241.147C59.8527 241.147 21.1581 297.684 10.3349 314.989C-0.488265 332.293 0.792588 330.141 1.36897 336.097C1.94536 342.053 27.0757 424.617 27.6137 433.275C27.9564 437.966 27.9564 442.675 27.6137 447.365L37.8605 445.738C36.3774 449.598 34.3782 453.239 31.9173 456.561C28.0748 461.428 27.588 463.58 21.0941 468.448C14.6002 473.315 9.74576 473.315 13.5243 475.479C17.3028 477.644 33.5312 477.644 38.3984 474.404C43.2657 471.163 46.519 465.207 49.2216 462.504L53.5509 458.175L55.1648 463.042C55.1648 463.042 60.5828 457.099 62.7346 456.01C64.8865 454.922 66.5772 451.681 66.5772 451.681C66.5772 451.681 64.9505 447.365 63.3366 444.111C61.7228 440.858 55.216 436.004 55.216 436.004C55.216 436.004 50.5409 391.174 46.2501 370.065C41.9592 348.957 44.7002 348.56 43.6115 345.306C42.8467 343.092 41.944 340.927 40.9089 338.825L86.3151 280.175C86.71 279.763 87.2039 279.459 87.7497 279.291C88.2613 279.139 88.8022 279.113 89.326 279.215C89.8499 279.317 90.3412 279.545 90.7579 279.879C91.1745 280.212 91.5042 280.642 91.7187 281.131C91.9331 281.62 92.026 282.153 91.9893 282.685C90.8366 299.746 88.9409 349.444 91.2464 356.347C93.949 364.455 113.533 394.517 115.032 397.45C118.874 404.969 137.024 428.447 140.277 435.478C143.531 442.51 146.759 450.08 146.759 450.08L156.493 444.137C156.493 444.137 159.208 447.916 156.493 451.169C153.778 454.422 145.683 466.847 139.74 470.638C133.796 474.429 135.897 477.67 135.897 477.67C135.897 477.67 157.531 477.119 161.309 476.581C165.088 476.043 167.803 471.714 170.506 467.935C172.886 464.275 175.054 460.482 177 456.574L181.329 460.417C181.329 460.417 184.031 454.999 185.658 450.669C186.652 447.891 187.196 444.973 187.272 442.024C187.272 442.024 180.791 436.068 176.462 434.454C172.132 432.84 168.341 431.2 168.341 431.2L162.936 423.093C162.936 423.093 148.334 372.256 141.84 359.818C138.355 352.839 133.795 346.451 128.327 340.887C128.327 340.887 145.811 276.845 149.051 262.832C150.999 254.451 152.445 245.961 153.381 237.407C139.853 227.782 124.335 221.321 107.974 218.502C80.3976 213.571 66.8718 221.678 66.8718 221.678Z" fill="#263238" stroke="#263238" stroke-linecap="round" stroke-linejoin="round"/>
<path d="M95.0954 228.493V234.615C95.0954 234.615 85.5658 244.145 86.5905 247.219C87.6152 250.293 89.9976 263.87 89.9976 263.87" stroke="#7A7A7A" stroke-linecap="round" stroke-linejoin="round"/>
<path d="M101.911 228.827L102.59 235.641C102.59 235.641 93.7391 246.874 93.3933 248.577C93.2761 250.399 93.3923 252.229 93.7391 254.021" stroke="#7A7A7A" stroke-linecap="round" stroke-linejoin="round"/>
<path d="M111.447 233.936C119.595 236.167 127.486 239.25 134.989 243.132" stroke="#7A7A7A" stroke-linecap="round" stroke-linejoin="round"/>
<path d="M135.335 247.782C129.537 245.44 123.609 243.43 117.583 241.762" stroke="#7A7A7A" stroke-linecap="round" stroke-linejoin="round"/>
<path d="M143.447 250.96L139.604 249.448" stroke="#7A7A7A" stroke-linecap="round" stroke-linejoin="round"/>
<path d="M110.815 265.804C117.36 263.499 125.955 261.155 133.243 261.514" stroke="#7A7A7A" stroke-linecap="round" stroke-linejoin="round"/>
<path d="M100.558 270.032C100.558 270.032 102.518 269.071 105.682 267.791" stroke="#7A7A7A" stroke-linecap="round" stroke-linejoin="round"/>
<path d="M76.1812 249.127L78.4226 251.304" stroke="#7A7A7A" stroke-linecap="round" stroke-linejoin="round"/>
<path d="M65.4788 238.701L72.8949 245.938" stroke="#7A7A7A" stroke-linecap="round" stroke-linejoin="round"/>
<path d="M66.8467 231.9L79.1044 233.258" stroke="#7A7A7A" stroke-linecap="round" stroke-linejoin="round"/>
<path d="M137.072 101.207C137.072 101.207 115.605 103.768 109.418 105.216C103.232 106.663 98.8642 106.663 97.404 108.482C95.9439 110.301 82.8536 121.944 76.667 125.197C70.4805 128.45 51.921 133.574 51.5495 134.662C51.1781 135.751 54.1112 153.952 53.3683 159.767C52.6254 165.582 51.921 169.233 51.921 169.233L86.504 155.771C86.504 155.771 77.7686 189.252 74.4896 197.616C71.2106 205.98 70.4933 211.45 67.9444 213.268C65.3955 215.087 63.2053 214.729 63.2053 217.995C63.2053 221.261 65.3955 225.68 66.4843 226C67.573 226.32 90.1416 223.438 98.877 224.911C107.612 226.384 140.722 240.563 147.639 245.29C154.556 250.016 154.914 247.851 157.463 242.728C160.012 237.605 160.025 227.089 160.025 225.987C160.025 224.886 187.294 164.903 187.294 164.903C187.294 164.903 191.291 195.106 195.3 197.296C199.309 199.486 208.761 199.115 213.129 190.38C217.497 181.644 226.591 168.605 222.236 158.358C217.881 148.111 211.989 135.431 208.761 128.143C205.534 120.855 202.575 120.138 194.211 116.871C185.847 113.605 163.637 103.038 161.46 102.68C159.282 102.321 137.072 101.207 137.072 101.207Z" fill="#4C93FD" stroke="#263238" stroke-linecap="round" stroke-linejoin="round"/>
<path d="M122.013 200.813C129.442 210.765 140.918 227.019 143.723 236.062" stroke="#263238" stroke-linecap="round" stroke-linejoin="round"/>
<path d="M115.475 192.295C115.475 192.295 116.487 193.576 118.139 195.715" stroke="#263238" stroke-linecap="round" stroke-linejoin="round"/>
<path d="M151.28 233.693C151.6 234.334 151.894 234.974 152.189 235.589" stroke="#263238" stroke-linecap="round" stroke-linejoin="round"/>
<path d="M144.663 221.948C144.663 221.948 146.917 225.547 149.248 229.8" stroke="#263238" stroke-linecap="round" stroke-linejoin="round"/>
<path d="M81.595 222.421C81.595 222.421 105.124 220.999 110.299 221.947" stroke="#263238" stroke-linecap="round" stroke-linejoin="round"/>
<path d="M105.584 224.292C105.584 224.292 119.674 225.714 125.361 228.058" stroke="#263238" stroke-linecap="round" stroke-linejoin="round"/>
<path d="M187.288 164.693L183.433 152.012L182.728 163.181L167.371 162.477L183.433 171.904L187.288 164.693Z" fill="#263238" stroke="#263238" stroke-linecap="round" stroke-linejoin="round"/>
<path d="M86.4812 156.687L97.3941 117.75" stroke="#263238" stroke-linecap="round" stroke-linejoin="round"/>
<path d="M91.9388 136.31L87.8017 125.845L87.0972 149.925L81.8713 150.617L86.4824 155.599L91.9388 136.31Z" fill="#263238" stroke="#263238" stroke-linecap="round" stroke-linejoin="round"/>
<path d="M55.175 131.583C55.175 131.583 63.9104 139.947 65.4218 146.492C66.9332 153.037 61.7842 163.233 59.2353 167.242C56.6864 171.251 53.7789 172.365 46.4908 173.069C39.2028 173.774 31.2102 167.6 30.8516 161.414C30.493 155.227 39.5358 130.122 55.175 131.583Z" fill="white" stroke="#263238" stroke-linecap="round" stroke-linejoin="round"/>
<path d="M119.969 143.586C119.969 143.586 101.409 166.155 86.8459 174.519C72.2827 182.883 63.1886 188.71 63.1886 188.71L58.0652 213.047C58.0652 213.047 78.4435 210.139 84.6301 207.923C90.8166 205.707 92.3152 204.644 92.3152 204.644C92.3152 204.644 105.124 177.746 113.795 162.799C122.466 147.851 123.619 145.699 123.619 145.699L119.969 143.586Z" fill="#263238" stroke="#263238" stroke-linecap="round" stroke-linejoin="round"/>
<path d="M122.51 117.019C122.51 118.108 119.948 143.584 119.948 143.584L123.586 145.774L147.602 127.932C147.602 127.932 148.691 123.577 147.243 123.577C145.796 123.577 134.14 131.941 134.14 131.941L123.894 127.932L124.982 117.39L122.51 117.019Z" fill="#263238" stroke="#263238" stroke-linecap="round" stroke-linejoin="round"/>
<path d="M135.228 131.174L134.152 131.942L132.781 131.404L121.049 132.519C120.767 135.426 120.498 138.167 120.293 140.204L132.692 139.025L144.437 130.29L135.228 131.174Z" fill="#4C93FD" stroke="#263238" stroke-linecap="round" stroke-linejoin="round"/>
<path d="M112.346 165.36L97.4365 166.782C94.1405 169.653 90.5956 172.225 86.8438 174.467L85.0378 175.518L107.965 173.327C109.464 170.561 110.937 167.845 112.346 165.36Z" fill="#4C93FD" stroke="#263238" stroke-linecap="round" stroke-linejoin="round"/>
<path d="M61.4399 197.074L97.6753 193.628C98.8793 191.182 100.237 188.505 101.646 185.636L63.0666 189.312L61.4399 197.074Z" fill="#4C93FD" stroke="#263238" stroke-linecap="round" stroke-linejoin="round"/>
<path d="M115.657 148.567C113.595 150.898 110.918 153.819 107.882 156.918L117.796 155.971C120.14 151.923 121.562 149.425 122.407 147.927L115.657 148.567Z" fill="#4C93FD" stroke="#263238" stroke-linecap="round" stroke-linejoin="round"/>
<path d="M139.604 94.465C139.604 94.465 128.691 99.9215 127.231 102.47C125.771 105.019 123.222 113.742 117.766 120.658C112.309 127.575 106.123 132.301 111.579 130.124C117.035 127.947 124.733 119.877 124.733 119.877L128.012 130.124C128.012 130.124 129.831 130.854 133.136 129.394C136.44 127.934 143.677 122.849 143.677 125.756C143.677 128.664 141.5 142.856 143.677 140.678C145.855 138.501 146.956 131.213 155.692 124.296C164.427 117.379 172.074 113.383 172.432 105.378C172.791 97.3726 170.255 95.5538 162.967 93.7349C155.679 91.9161 140.334 92.9792 139.604 94.465Z" fill="white" stroke="#263238" stroke-linecap="round" stroke-linejoin="round"/>
<path d="M135.966 87.5478C135.966 87.5478 137.055 93.3629 133.776 102.828C130.497 112.294 122.863 133.031 129.408 130.853C135.953 128.676 161.429 107.926 163.62 105.019C165.81 102.111 171.305 80.2598 171.305 80.2598C171.305 80.2598 149.838 86.0876 143.638 86.8177C137.439 87.5478 135.966 87.5478 135.966 87.5478Z" fill="#A8A8A8" stroke="#263238" stroke-linecap="round" stroke-linejoin="round"/>
<path d="M135.978 87.548C136.361 90.9803 136.109 94.4536 135.235 97.7949C166.258 91.8261 171.279 80.2344 171.279 80.2344C171.279 80.2344 149.811 86.0622 143.612 86.7923C137.413 87.5224 135.978 87.548 135.978 87.548Z" fill="#263238" stroke="#263238" stroke-linecap="round" stroke-linejoin="round"/>
<path d="M182.188 71.5373C182.188 71.5373 178.909 67.5283 192.742 63.1606C206.575 58.7929 214.581 54.4251 212.762 46.0612C210.943 37.6972 201.119 35.5069 201.119 35.5069C201.119 35.5069 209.483 19.8549 204.026 16.5759C198.57 13.297 192.012 18.0361 192.012 18.0361C192.012 18.0361 193.472 6.39317 187.644 6.02172C181.816 5.65027 176.001 10.7609 176.001 10.7609C176.001 10.7609 175.643 -1.25353 165.447 0.936731C155.252 3.12699 158.902 13.6684 158.902 13.6684C158.902 13.6684 147.259 8.94206 143.25 16.2301C139.241 23.5182 142.52 26.4769 142.52 26.4769C142.52 26.4769 138.524 27.9371 138.524 31.9462C138.524 35.9552 142.161 39.9515 145.069 40.3102C147.976 40.6688 152.344 38.4913 155.995 39.2214C159.645 39.9515 173.453 47.9568 169.456 60.6885C165.46 73.4202 170.186 75.6104 172.018 76.6992C173.85 77.7879 180.741 74.4449 182.188 71.5373Z" fill="#263238" stroke="#263238" stroke-linecap="round" stroke-linejoin="round"/>
<path d="M178.538 50.786C178.538 50.786 183.661 44.5995 183.661 40.6032C183.661 36.607 169.828 26.77 161.464 26.77C153.1 26.77 141.086 36.9528 141.086 39.5017C141.086 42.0506 141.086 43.5108 139.267 45.3296C137.448 47.1484 130.531 50.786 128.713 54.7951C126.894 58.8042 120.707 84.9976 122.155 86.445C123.602 87.8923 131.864 89.4678 134.169 89.3653C141.854 88.9938 157.096 89.3653 162.194 87.5465C165.378 86.3605 168.33 84.6266 170.917 82.4231C174.426 82.5967 177.929 81.9749 181.164 80.6043C185.531 78.414 190.629 71.5102 185.89 68.5899C181.151 65.6695 174.247 67.1425 174.247 67.1425C174.247 67.1425 173.158 65.6823 174.977 63.1334C176.796 60.5845 176.796 60.956 176.796 59.1372C176.796 57.3184 175.643 53.6935 178.538 50.786Z" fill="#A8A8A8" stroke="#263238" stroke-linecap="round" stroke-linejoin="round"/>
<path d="M151.632 41.3213C150.629 43.484 148.971 45.2764 146.893 46.4447C143.255 48.635 135.98 50.0823 137.799 53.0027C139.617 55.923 143.985 56.2688 146.893 56.2688C147.7 56.2684 148.479 55.9725 149.083 55.4368C149.688 54.9011 150.075 54.1629 150.172 53.3613" stroke="#263238" stroke-linecap="round" stroke-linejoin="round"/>
<path d="M136.7 60.9567C140.779 61.7731 144.916 62.2572 149.073 62.404C153.663 62.6262 158.249 61.8844 162.535 60.2266C162.535 60.2266 155.618 69.6921 151.622 72.5996C149.589 74.203 147.243 75.3629 144.735 76.0049C142.227 76.6468 139.612 76.7565 137.059 76.3269C131.602 75.2382 130.142 72.3178 131.602 70.1404C133.063 67.9629 136.7 60.9567 136.7 60.9567Z" fill="#263238" stroke="#263238" stroke-linecap="round" stroke-linejoin="round"/>
<path d="M158.577 65.35C160.806 62.6218 162.535 60.2266 162.535 60.2266C158.249 61.8844 153.663 62.6262 149.073 62.404C144.916 62.2572 140.778 61.7731 136.7 60.9567L135.188 63.7745C142.657 66.6028 150.797 67.1511 158.577 65.35Z" fill="white" stroke="#263238" stroke-linecap="round" stroke-linejoin="round"/>
<path d="M131.309 70.6401C130.426 72.7407 132.065 75.264 137.06 76.2631C141.436 77.0676 145.953 76.2088 149.728 73.8551C150.855 73.1378 151.624 72.5742 151.624 72.5742C151.624 72.5742 142.44 75.9941 131.309 70.6401Z" fill="white" stroke="#263238" stroke-linecap="round" stroke-linejoin="round"/>
<path d="M158.909 48.6102C158.909 48.6102 164.032 46.7914 166.914 51.1719" stroke="#263238" stroke-linecap="round" stroke-linejoin="round"/>
<path d="M146.887 44.9599C146.887 44.9599 145.44 42.7825 142.161 44.9599" stroke="#263238" stroke-linecap="round" stroke-linejoin="round"/>
<path d="M165.087 38.0557C165.087 38.0557 169.814 40.2331 170.211 47.5084" stroke="#263238" stroke-width="2" stroke-linecap="round" stroke-linejoin="round"/>
<path d="M150.891 36.6213C149.449 36.3684 147.967 36.4694 146.573 36.9156C145.178 37.3618 143.913 38.1399 142.886 39.183" stroke="#263238" stroke-width="2" stroke-linecap="round" stroke-linejoin="round"/>
<path d="M203.665 164.333C203.665 164.333 190.562 173.428 189.102 176.707C187.641 179.986 189.832 196.726 191.343 201.85C192.854 206.973 197.901 207.306 204.818 207.678C211.734 208.049 219.368 208.036 223.377 201.12C227.386 194.203 226.285 186.569 219.74 178.564C215.032 173.132 209.627 168.347 203.665 164.333Z" fill="white" stroke="#263238" stroke-linecap="round" stroke-linejoin="round"/>
<path d="M213.489 79.1702C213.489 79.1702 209.122 75.174 207.303 75.904C205.484 76.6341 196.018 79.1702 197.466 83.1793C198.913 87.1884 206.201 85.3567 208.75 84.6267C210.011 84.3251 211.145 83.637 211.995 82.6585C212.845 81.6801 213.367 80.4604 213.489 79.1702Z" fill="#A8A8A8" stroke="#263238" stroke-linecap="round" stroke-linejoin="round"/>
<path d="M224.044 79.1711C224.044 79.1711 218.921 72.2545 215.309 73.7147C211.697 75.1748 210.569 80.6313 210.569 80.6313C210.569 80.6313 205.113 81.72 204.024 83.9103L202.935 86.0877C202.935 86.0877 198.196 86.4463 197.466 88.6494C197.023 90.0644 196.782 91.5347 196.749 93.0171C195.942 93.3015 195.219 93.7834 194.647 94.4188C194.074 95.0542 193.669 95.8229 193.47 96.6547C192.74 99.5623 193.47 100.664 194.93 104.34C196.39 108.016 201.117 113.075 202.615 114.894C204.114 116.713 209.532 118.16 209.903 119.262C210.275 120.363 210.262 122.899 208.802 130.905C207.342 138.91 203.345 159.647 200.066 170.931C196.787 182.216 193.163 185.853 197.159 195.677C201.155 205.502 205.536 206.962 210.992 205.502C215.165 204.345 218.967 202.129 222.028 199.067C225.09 196.005 227.307 192.203 228.463 188.031C231.37 177.118 228.091 158.571 228.091 146.185C228.091 133.799 228.463 113.075 228.091 103.917C227.72 94.7591 224.044 79.1711 224.044 79.1711Z" fill="#A8A8A8" stroke="#263238" stroke-linecap="round" stroke-linejoin="round"/>
<path d="M101.032 83.1799C101.032 83.1799 91.208 85.3574 86.8403 86.0875C82.4726 86.8176 79.1552 84.6273 78.4763 82.4499C77.7975 80.2724 72.6484 77.7235 72.6484 77.7235C72.6484 77.7235 74.4673 75.5332 85.0215 72.6001C95.5757 69.6669 102.134 75.1618 102.134 75.1618L101.032 83.1799Z" fill="#A8A8A8" stroke="#263238" stroke-linecap="round" stroke-linejoin="round"/>
<path d="M66.5354 87.4719L75.1172 84.9102C78.7548 83.8215 81.0219 78.8262 81.0219 78.8262C81.0219 78.8262 81.3805 81.3879 83.5836 81.0036C85.7867 80.6194 95.598 79.9149 97.7883 79.9149C99.9785 79.9149 108.701 77.3532 108.701 74.087C108.701 70.8209 100.696 62.0854 99.2356 59.5365C97.7755 56.9876 93.4206 55.8989 90.5002 55.8989C87.5799 55.8989 84.6851 57.7177 75.9497 63.1742C67.2143 68.6306 61.3864 71.5509 59.5676 74.087C57.7488 76.6231 30.4282 123.938 28.6734 129.394C26.9187 134.851 22.1283 145.764 23.217 150.131C24.5619 155.524 29.7494 160.89 33.5919 164.618C38.9587 169.856 50.4736 167.628 53.8934 160.929C56.801 155.203 57.736 147.006 57.736 140.679C57.736 132.302 55.9172 126.487 57.736 114.844C59.5548 103.201 66.5354 87.4719 66.5354 87.4719Z" fill="#A8A8A8" stroke="#263238" stroke-linecap="round" stroke-linejoin="round"/>
<path d="M95.575 80.99C95.575 80.99 95.575 84.269 96.6637 84.6277C97.7524 84.9863 105.04 85.3578 105.399 83.1803C105.758 81.0029 105.399 79.9013 103.58 79.1712C101.761 78.4411 96.305 78.8126 95.575 80.99Z" fill="#A8A8A8" stroke="#263238" stroke-linecap="round" stroke-linejoin="round"/>
<path d="M81.0205 78.8126L84.2867 76.2637L81.7378 73.7148" stroke="#263238" stroke-linecap="round" stroke-linejoin="round"/>
<path d="M88.661 60.6108C88.661 60.6108 94.1174 71.5365 95.219 73.714C96.3205 75.8914 95.5776 75.5328 94.1174 76.6215C92.6572 77.7102 87.2136 80.6306 87.2136 80.6306" stroke="#263238" stroke-linecap="round" stroke-linejoin="round"/>
<path d="M95.2805 59.8818C95.2805 59.8818 102.966 73.715 102.197 75.1752C101.429 76.6354 95.6392 80.9903 95.6392 80.9903" stroke="#263238" stroke-linecap="round" stroke-linejoin="round"/>
<path d="M101.402 63.1597C101.402 63.1597 106.858 72.2537 106.128 74.8026C105.398 77.3515 102.375 79.1191 102.375 79.1191" stroke="#263238" stroke-linecap="round" stroke-linejoin="round"/>
</svg>
