<svg width="48" height="49" viewBox="0 0 48 49" fill="none" xmlns="http://www.w3.org/2000/svg">
<rect y="0.679688" width="47.99" height="47.99" rx="23.995" fill="#DBEAFE"/>
<path d="M24.0001 32.3418C22.8664 32.3418 21.7827 32.1251 20.749 31.6916C19.7598 31.2692 18.879 30.6718 18.1065 29.8993C17.334 29.1269 16.7366 28.246 16.3143 27.2568C15.8808 26.2232 15.6641 25.1395 15.6641 24.0058C15.6641 22.8721 15.8808 21.7884 16.3143 20.7548C16.7366 19.7656 17.334 18.8847 18.1065 18.1122C18.879 17.3398 19.7598 16.7424 20.749 16.32C21.7827 15.8865 22.8664 15.6698 24.0001 15.6698C25.1338 15.6698 26.2174 15.8865 27.2511 16.32C28.2403 16.7424 29.1211 17.3398 29.8936 18.1122C30.6661 18.8847 31.2635 19.7656 31.6859 20.7548C32.1193 21.7884 32.3361 22.8721 32.3361 24.0058C32.3361 25.1395 32.1193 26.2232 31.6859 27.2568C31.2635 28.246 30.6661 29.1269 29.8936 29.8993C29.1211 30.6718 28.2403 31.2692 27.2511 31.6916C26.2174 32.1251 25.1338 32.3418 24.0001 32.3418ZM24.0001 30.6746C25.2116 30.6746 26.3341 30.3689 27.3678 29.7576C28.3681 29.1686 29.1628 28.3739 29.7519 27.3735C30.3632 26.3399 30.6689 25.2173 30.6689 24.0058C30.6689 22.7943 30.3632 21.6717 29.7519 20.6381C29.1628 19.6377 28.3681 18.843 27.3678 18.254C26.3341 17.6427 25.2116 17.337 24.0001 17.337C22.7886 17.337 21.666 17.6427 20.6323 18.254C19.632 18.843 18.8373 19.6377 18.2482 20.6381C17.6369 21.6717 17.3313 22.7943 17.3313 24.0058C17.3313 25.2173 17.6369 26.3399 18.2482 27.3735C18.8373 28.3739 19.632 29.1686 20.6323 29.7576C21.666 30.3689 22.7886 30.6746 24.0001 30.6746ZM23.1665 26.5066H24.8337V28.1738H23.1665V26.5066ZM24.8337 25.1395V25.673H23.1665V24.4226C23.1665 24.1892 23.247 23.9919 23.4082 23.8307C23.5694 23.6696 23.7667 23.589 24.0001 23.589C24.3446 23.589 24.6392 23.4667 24.8837 23.2222C25.1282 22.9777 25.2505 22.6832 25.2505 22.3386C25.2505 21.994 25.1282 21.6995 24.8837 21.455C24.6392 21.2105 24.3446 21.0882 24.0001 21.0882C23.7 21.0882 23.436 21.1827 23.2081 21.3716C22.9803 21.5606 22.833 21.7995 22.7663 22.0885L21.1325 21.7717C21.2214 21.3272 21.4048 20.927 21.6827 20.5714C21.9605 20.2157 22.2995 19.9351 22.6996 19.7294C23.0998 19.5238 23.5332 19.421 24.0001 19.421C24.5336 19.421 25.0226 19.5516 25.4672 19.8128C25.9118 20.074 26.2647 20.4269 26.5259 20.8715C26.7871 21.316 26.9177 21.8051 26.9177 22.3386C26.9177 22.9944 26.7232 23.5779 26.3341 24.0892C25.9451 24.6004 25.445 24.9505 24.8337 25.1395Z" fill="#4C93FD"/>
</svg>
