<svg width="48" height="49" viewBox="0 0 48 49" fill="none" xmlns="http://www.w3.org/2000/svg">
<rect y="0.679688" width="47.99" height="47.99" rx="23.995" fill="#DBEAFE"/>
<path d="M23.9937 19.4266C25.2046 19.4266 26.3267 19.7321 27.3599 20.3431C28.3597 20.9319 29.154 21.7262 29.7428 22.7261C30.3538 23.7593 30.6593 24.8813 30.6593 26.0922C30.6593 27.3031 30.3538 28.4252 29.7428 29.4583C29.154 30.4582 28.3597 31.2525 27.3599 31.8413C26.3267 32.4523 25.2046 32.7578 23.9937 32.7578C22.7828 32.7578 21.6608 32.4523 20.6276 31.8413C19.6278 31.2525 18.8334 30.4582 18.2446 29.4583C17.6336 28.4252 17.3281 27.3031 17.3281 26.0922C17.3281 24.8813 17.6336 23.7593 18.2446 22.7261C18.8334 21.7262 19.6278 20.9319 20.6276 20.3431C21.6608 19.7321 22.7828 19.4266 23.9937 19.4266ZM23.9937 21.093C23.0939 21.093 22.2551 21.3208 21.4775 21.7762C20.722 22.2206 20.1221 22.8205 19.6777 23.5759C19.2223 24.3536 18.9945 25.1951 18.9945 26.1005C18.9945 27.006 19.2223 27.8419 19.6777 28.6085C20.1221 29.3639 20.722 29.9638 21.4775 30.4082C22.2551 30.8637 23.0939 31.0914 23.9937 31.0914C24.8936 31.0914 25.7323 30.8637 26.51 30.4082C27.2654 29.9638 27.8653 29.3639 28.3097 28.6085C28.7652 27.8419 28.9929 27.006 28.9929 26.1005C28.9929 25.1951 28.7652 24.3536 28.3097 23.5759C27.8653 22.8205 27.2654 22.2206 26.51 21.7762C25.7323 21.3208 24.8936 21.093 23.9937 21.093ZM23.9937 22.3428L25.0935 24.5758L27.5598 24.9257L25.7768 26.6755L26.1934 29.1251L23.9937 27.9752L21.7941 29.1251L22.2107 26.6755L20.4276 24.9257L22.8939 24.5758L23.9937 22.3428ZM28.9929 15.2606V17.7602L27.8598 18.7101C26.9044 18.2101 25.8934 17.9046 24.8269 17.7935V15.2606H28.9929ZM23.1605 15.2606V17.7935C22.094 17.9046 21.0831 18.2101 20.1277 18.7101L18.9945 17.7602V15.2606H23.1605Z" fill="#3B82F6"/>
</svg>
