<svg width="18" height="17" viewBox="0 0 18 17" fill="none" xmlns="http://www.w3.org/2000/svg">
<path d="M9.14125 1.30843L14.6213 2.52176C14.7724 2.55732 14.8968 2.63732 14.9946 2.76176C15.0924 2.88621 15.1413 3.02399 15.1413 3.1751V9.82843C15.1413 10.504 14.9835 11.1351 14.6679 11.7218C14.3524 12.3084 13.9146 12.7884 13.3546 13.1618L9.14125 15.9751L4.92792 13.1618C4.36792 12.7884 3.93014 12.3084 3.61458 11.7218C3.29903 11.1351 3.14125 10.504 3.14125 9.82843V3.1751C3.14125 3.02399 3.19014 2.88621 3.28792 2.76176C3.3857 2.63732 3.51014 2.55732 3.66125 2.52176L9.14125 1.30843ZM9.14125 2.66843L4.47458 3.70843V9.82843C4.47458 10.2818 4.57903 10.704 4.78792 11.0951C4.99681 11.4862 5.28792 11.8062 5.66125 12.0551L9.14125 14.3751L12.6213 12.0551C12.9946 11.8062 13.2857 11.4862 13.4946 11.0951C13.7035 10.704 13.8079 10.2818 13.8079 9.82843V3.70843L9.14125 2.66843ZM12.1146 6.12176L13.0479 7.06843L8.80792 11.3084L5.98125 8.48176L6.92792 7.5351L8.80792 9.42843L12.1146 6.12176Z" fill="#16A34A"/>
</svg>
