<svg width="23" height="22" viewBox="0 0 23 22" fill="none" xmlns="http://www.w3.org/2000/svg">
<path d="M8.56416 1.83341V3.66675H13.8431V1.83341H15.6028V3.66675H19.1221C19.3684 3.66675 19.5766 3.75536 19.7467 3.93258C19.9168 4.1098 20.0019 4.32675 20.0019 4.58341V19.2501C20.0019 19.5067 19.9168 19.7237 19.7467 19.9009C19.5766 20.0781 19.3684 20.1667 19.1221 20.1667H3.28522C3.03887 20.1667 2.83064 20.0781 2.66054 19.9009C2.49045 19.7237 2.4054 19.5067 2.4054 19.2501V4.58341C2.4054 4.32675 2.49045 4.1098 2.66054 3.93258C2.83064 3.75536 3.03887 3.66675 3.28522 3.66675H6.80452V1.83341H8.56416ZM18.2422 11.0001H4.16504V18.3334H18.2422V11.0001ZM6.80452 5.50008H4.16504V9.16675H18.2422V5.50008H15.6028V7.33341H13.8431V5.50008H8.56416V7.33341H6.80452V5.50008Z" fill="#0052CC"/>
</svg>
