<svg width="23" height="22" viewBox="0 0 23 22" fill="none" xmlns="http://www.w3.org/2000/svg">
<path d="M19.1219 7.33341V19.2501C19.1219 19.5067 19.0369 19.7237 18.8668 19.9009C18.6967 20.0781 18.4885 20.1667 18.2421 20.1667H4.16492C3.91857 20.1667 3.71034 20.0781 3.54024 19.9009C3.37014 19.7237 3.2851 19.5067 3.2851 19.2501V2.75008C3.2851 2.49341 3.37014 2.27647 3.54024 2.09925C3.71034 1.92202 3.91857 1.83341 4.16492 1.83341H13.843L19.1219 7.33341ZM17.3623 8.25008H12.9632V3.66675H5.04474V18.3334H17.3623V8.25008ZM7.68422 6.41675H10.3237V8.25008H7.68422V6.41675ZM7.68422 10.0834H14.7228V11.9167H7.68422V10.0834ZM7.68422 13.7501H14.7228V15.5834H7.68422V13.7501Z" fill="#0052CC"/>
</svg>
