<svg width="23" height="22" viewBox="0 0 23 22" fill="none" xmlns="http://www.w3.org/2000/svg">
<path d="M4.1632 14.2083H18.2404V4.12492H4.1632V14.2083ZM12.0816 16.0416V17.8749H15.6009V19.7083H6.80267V17.8749H10.322V16.0416H3.28337C3.03702 16.0416 2.8288 15.953 2.6587 15.7758C2.4886 15.5985 2.40355 15.3816 2.40355 15.1249V3.20825C2.40355 2.96381 2.4886 2.74992 2.6587 2.56658C2.8288 2.38325 3.03702 2.29158 3.28337 2.29158H19.1202C19.3666 2.29158 19.5748 2.3802 19.7449 2.55742C19.915 2.73464 20 2.95158 20 3.20825V15.1249C20 15.3694 19.915 15.5833 19.7449 15.7666C19.5748 15.9499 19.3666 16.0416 19.1202 16.0416H12.0816Z" fill="#0052CC"/>
</svg>
