<svg width="26" height="25" viewBox="0 0 26 25" fill="none" xmlns="http://www.w3.org/2000/svg">
<path d="M13.0461 4.31152C14.1926 4.31152 15.2923 4.33819 16.3455 4.39152L16.8454 4.41152C18.605 4.49152 19.7914 4.61819 20.4046 4.79152C20.8846 4.92486 21.2978 5.17152 21.6444 5.53152C21.991 5.89152 22.2243 6.31819 22.3443 6.81152C22.5176 7.47819 22.6442 8.47152 22.7242 9.79152C22.7642 10.5649 22.7908 11.3515 22.8042 12.1515V12.4715C22.7908 13.2715 22.7642 14.0582 22.7242 14.8315C22.6442 16.1515 22.5176 17.1449 22.3443 17.8115C22.2243 18.3049 21.991 18.7315 21.6444 19.0915C21.2978 19.4515 20.8846 19.6982 20.4046 19.8315C19.7914 20.0049 18.605 20.1315 16.8454 20.2115L16.3455 20.2315C15.2923 20.2715 14.1926 20.2982 13.0461 20.3115H12.5662C11.3265 20.2982 10.1467 20.2715 9.02692 20.2315C7.12064 20.1515 5.84756 20.0182 5.20769 19.8315C4.72778 19.6982 4.31453 19.4515 3.96793 19.0915C3.62134 18.7315 3.38805 18.3049 3.26807 17.8115C3.09478 17.1449 2.96813 16.1515 2.88815 14.8315C2.84816 14.0582 2.8215 13.2715 2.80817 12.4715V12.1515C2.8215 11.3515 2.84816 10.5649 2.88815 9.79152C2.96813 8.47152 3.09478 7.47819 3.26807 6.81152C3.38805 6.31819 3.62134 5.89152 3.96793 5.53152C4.31453 5.17152 4.72778 4.92486 5.20769 4.79152C5.84756 4.60486 7.12064 4.47152 9.02692 4.39152C10.1334 4.35152 11.3131 4.32486 12.5662 4.31152H13.0461ZM10.8066 8.81152V15.8115L16.8054 12.3115L10.8066 8.81152Z" fill="#9CA3AF"/>
</svg>
