<svg width="26" height="25" viewBox="0 0 26 25" fill="none" xmlns="http://www.w3.org/2000/svg">
<path d="M7.28724 5.31152C7.2739 5.72486 7.15393 6.09819 6.92731 6.43152C6.70069 6.76486 6.40075 7.00819 6.02749 7.16152C5.65423 7.31486 5.26764 7.35152 4.86772 7.27152C4.4678 7.19152 4.12453 7.00486 3.83793 6.71152C3.55132 6.41819 3.37468 6.07152 3.30803 5.67152C3.24138 5.27152 3.28804 4.88486 3.448 4.51152C3.60797 4.13819 3.86125 3.84152 4.20785 3.62152C4.55445 3.40152 4.93437 3.29819 5.34762 3.31152C5.88085 3.32486 6.33743 3.52486 6.71735 3.91152C7.09727 4.29819 7.28724 4.76486 7.28724 5.31152ZM7.34722 8.79152H3.34802V21.3115H7.34722V8.79152ZM13.666 8.79152H9.68676V21.3115H13.626V14.7515C13.626 14.0449 13.7859 13.4449 14.1059 12.9515C14.4125 12.4982 14.8057 12.1849 15.2856 12.0115C15.7655 11.8382 16.2454 11.8249 16.7253 11.9715C17.2053 12.1182 17.5918 12.4115 17.8851 12.8515C18.2184 13.3582 18.385 13.9915 18.385 14.7515V21.3115H22.3442V13.3915C22.3442 12.2182 22.0909 11.2249 21.5844 10.4115C21.1445 9.70486 20.5313 9.17152 19.7447 8.81152C19.0249 8.50486 18.245 8.37152 17.4052 8.41152C16.592 8.45152 15.8389 8.65486 15.1457 9.02152C14.4525 9.38819 13.9459 9.87152 13.626 10.4715L13.666 8.79152Z" fill="#9CA3AF"/>
</svg>
