<svg width="20" height="18" viewBox="0 0 20 18" fill="none" xmlns="http://www.w3.org/2000/svg">
<path d="M13.3207 11.9604L13.452 12.0916L13.5832 11.9604C13.7874 11.7465 14.0305 11.6031 14.3124 11.5302C14.5943 11.4573 14.8763 11.4573 15.1582 11.5302C15.4402 11.6031 15.6881 11.7465 15.902 11.9604C16.1159 12.1743 16.2593 12.4222 16.3322 12.7041C16.4051 12.9861 16.4051 13.2656 16.3322 13.5427C16.2593 13.8198 16.1159 14.0652 15.902 14.2791L13.452 16.7291L11.002 14.2791C10.7881 14.0652 10.6447 13.8198 10.5718 13.5427C10.4989 13.2656 10.4989 12.9861 10.5718 12.7041C10.6447 12.4222 10.7881 12.1743 11.002 11.9604C11.2159 11.7465 11.4638 11.6031 11.7457 11.5302C12.0277 11.4573 12.3096 11.4573 12.5916 11.5302C12.8735 11.6031 13.1166 11.7465 13.3207 11.9604ZM9.0624 10.75V12.2083C8.2749 12.2083 7.54087 12.4076 6.86032 12.8062C6.19921 13.1951 5.67421 13.7201 5.28532 14.3812C4.88671 15.0618 4.6874 15.7958 4.6874 16.5833H3.22907C3.22907 15.543 3.48671 14.5757 4.00199 13.6812C4.49782 12.8159 5.17351 12.1257 6.02907 11.6104C6.90407 11.0659 7.85685 10.7791 8.8874 10.75H9.0624ZM9.0624 1.27079C9.85962 1.27079 10.5985 1.4701 11.2791 1.86871C11.9305 2.2576 12.4506 2.7826 12.8395 3.44371C13.2381 4.11454 13.4374 4.84371 13.4374 5.63121C13.4374 6.41871 13.2478 7.14301 12.8687 7.80413C12.4992 8.45551 11.9912 8.98052 11.3447 9.37913C10.6982 9.77774 9.99087 9.99163 9.22282 10.0208H9.0624C8.2749 10.0208 7.54087 9.82149 6.86032 9.42288C6.19921 9.03399 5.67421 8.50899 5.28532 7.84788C4.88671 7.17704 4.6874 6.44788 4.6874 5.66038C4.6874 4.87288 4.87699 4.14857 5.25615 3.48746C5.6256 2.83607 6.13358 2.31107 6.78011 1.91246C7.42664 1.51385 8.13393 1.29996 8.90199 1.27079H9.0624ZM9.0624 2.72913C8.5374 2.72913 8.05129 2.86038 7.60407 3.12288C7.15685 3.38538 6.80199 3.74024 6.53949 4.18746C6.27699 4.63468 6.14574 5.12079 6.14574 5.64579C6.14574 6.17079 6.27699 6.6569 6.53949 7.10413C6.80199 7.55135 7.15685 7.90621 7.60407 8.16871C8.05129 8.43121 8.5374 8.56246 9.0624 8.56246C9.5874 8.56246 10.0735 8.43121 10.5207 8.16871C10.968 7.90621 11.3228 7.55135 11.5853 7.10413C11.8478 6.6569 11.9791 6.17079 11.9791 5.64579C11.9791 5.12079 11.8478 4.63468 11.5853 4.18746C11.3228 3.74024 10.968 3.38538 10.5207 3.12288C10.0735 2.86038 9.5874 2.72913 9.0624 2.72913Z" fill="white"/>
</svg>
