<svg width="14" height="13" viewBox="0 0 14 13" fill="none" xmlns="http://www.w3.org/2000/svg">
<path d="M1.27897 0.641602H13.279C13.4656 0.641602 13.6234 0.706046 13.7523 0.834934C13.8812 0.963823 13.9456 1.1216 13.9456 1.30827V11.9749C13.9456 12.1616 13.8812 12.3194 13.7523 12.4483C13.6234 12.5772 13.4656 12.6416 13.279 12.6416H1.27897C1.0923 12.6416 0.934527 12.5772 0.805638 12.4483C0.676749 12.3194 0.612305 12.1616 0.612305 11.9749V1.30827C0.612305 1.1216 0.676749 0.963823 0.805638 0.834934C0.934527 0.706046 1.0923 0.641602 1.27897 0.641602ZM12.6123 3.46827L7.3323 8.2016L1.94564 3.45494V11.3083H12.6123V3.46827ZM2.2923 1.97493L7.31897 6.41493L12.279 1.97493H2.2923Z" fill="#0052CC"/>
</svg>
