<svg width="14" height="15" viewBox="0 0 14 15" fill="none" xmlns="http://www.w3.org/2000/svg">
<path d="M7.27897 14.3081C6.3723 14.3081 5.50564 14.1348 4.67897 13.7881C3.88786 13.4503 3.18342 12.9725 2.56564 12.3548C1.94786 11.737 1.47008 11.0325 1.1323 10.2414C0.785638 9.41477 0.612305 8.54811 0.612305 7.64144C0.612305 6.73477 0.785638 5.8681 1.1323 5.04144C1.47008 4.25033 1.94786 3.54588 2.56564 2.92811C3.18342 2.31033 3.88786 1.83255 4.67897 1.49477C5.50564 1.14811 6.3723 0.974771 7.27897 0.974771C8.18564 0.974771 9.05231 1.14811 9.87897 1.49477C10.6701 1.83255 11.3745 2.31033 11.9923 2.92811C12.6101 3.54588 13.0879 4.25033 13.4256 5.04144C13.7723 5.8681 13.9456 6.73477 13.9456 7.64144C13.9456 8.54811 13.7723 9.41477 13.4256 10.2414C13.0879 11.0325 12.6101 11.737 11.9923 12.3548C11.3745 12.9725 10.6701 13.4503 9.87897 13.7881C9.05231 14.1348 8.18564 14.3081 7.27897 14.3081ZM7.27897 12.9748C8.24786 12.9748 9.14564 12.7303 9.97231 12.2414C10.7723 11.7703 11.4079 11.1348 11.879 10.3348C12.3679 9.50811 12.6123 8.61033 12.6123 7.64144C12.6123 6.67255 12.3679 5.77477 11.879 4.9481C11.4079 4.14811 10.7723 3.51255 9.97231 3.04144C9.14564 2.55255 8.24786 2.30811 7.27897 2.30811C6.31008 2.30811 5.4123 2.55255 4.58564 3.04144C3.78564 3.51255 3.15008 4.14811 2.67897 4.9481C2.19008 5.77477 1.94564 6.67255 1.94564 7.64144C1.94564 8.61033 2.19008 9.50811 2.67897 10.3348C3.15008 11.1348 3.78564 11.7703 4.58564 12.2414C5.4123 12.7303 6.31008 12.9748 7.27897 12.9748ZM7.94564 7.64144H10.6123V8.97477H6.6123V4.30811H7.94564V7.64144Z" fill="#0052CC"/>
</svg>
