<svg width="13" height="15" viewBox="0 0 13 15" fill="none" xmlns="http://www.w3.org/2000/svg">
<path d="M6.6123 13.0048L9.90564 9.6981C10.5101 9.10254 10.919 8.40032 11.1323 7.59143C11.3367 6.80032 11.3367 6.00921 11.1323 5.2181C10.919 4.40921 10.5123 3.70477 9.9123 3.10476C9.3123 2.50477 8.60786 2.0981 7.79897 1.88477C7.00786 1.68032 6.21675 1.68032 5.42564 1.88477C4.61675 2.0981 3.9123 2.50477 3.3123 3.10476C2.7123 3.70477 2.30564 4.40921 2.0923 5.2181C1.88786 6.00921 1.88786 6.80032 2.0923 7.59143C2.30564 8.40032 2.71453 9.10254 3.31897 9.6981L6.6123 13.0048ZM6.6123 14.8848L2.3723 10.6448C1.59897 9.88032 1.07897 8.97365 0.812305 7.92477C0.545638 6.91143 0.545638 5.8981 0.812305 4.88477C1.07897 3.83588 1.59675 2.92699 2.36564 2.1581C3.13453 1.38921 4.04342 0.866987 5.0923 0.591432C6.10564 0.333654 7.11897 0.333654 8.1323 0.591432C9.18119 0.866987 10.0901 1.38921 10.859 2.1581C11.6279 2.92699 12.1456 3.83588 12.4123 4.88477C12.679 5.8981 12.679 6.91143 12.4123 7.92477C12.1456 8.97365 11.6256 9.88032 10.8523 10.6448L6.6123 14.8848ZM6.6123 7.7381C6.8523 7.7381 7.07453 7.6781 7.27897 7.5581C7.48342 7.4381 7.64564 7.27588 7.76564 7.07143C7.88564 6.86699 7.94564 6.64477 7.94564 6.40477C7.94564 6.16477 7.88564 5.94254 7.76564 5.7381C7.64564 5.53365 7.48342 5.37143 7.27897 5.25143C7.07453 5.13143 6.8523 5.07143 6.6123 5.07143C6.3723 5.07143 6.15008 5.13143 5.94564 5.25143C5.74119 5.37143 5.57897 5.53365 5.45897 5.7381C5.33897 5.94254 5.27897 6.16477 5.27897 6.40477C5.27897 6.64477 5.33897 6.86699 5.45897 7.07143C5.57897 7.27588 5.74119 7.4381 5.94564 7.5581C6.15008 7.6781 6.3723 7.7381 6.6123 7.7381ZM6.6123 9.07143C6.1323 9.07143 5.68786 8.95143 5.27897 8.71143C4.87008 8.47143 4.54564 8.14699 4.30564 7.7381C4.06564 7.32921 3.94564 6.88254 3.94564 6.3981C3.94564 5.91365 4.06564 5.46921 4.30564 5.06476C4.54564 4.66032 4.87008 4.3381 5.27897 4.0981C5.68786 3.8581 6.1323 3.7381 6.6123 3.7381C7.0923 3.7381 7.53675 3.8581 7.94564 4.0981C8.35453 4.3381 8.67897 4.66032 8.91897 5.06476C9.15897 5.46921 9.27897 5.91365 9.27897 6.3981C9.27897 6.88254 9.15897 7.32921 8.91897 7.7381C8.67897 8.14699 8.35453 8.47143 7.94564 8.71143C7.53675 8.95143 7.0923 9.07143 6.6123 9.07143Z" fill="#0052CC"/>
</svg>
