<svg width="21" height="20" viewBox="0 0 21 20" fill="none" xmlns="http://www.w3.org/2000/svg">
<path d="M10.5 20C9.14 20 7.84 19.74 6.6 19.22C5.41333 18.7133 4.35667 17.9967 3.43 17.07C2.50333 16.1433 1.78667 15.0867 1.28 13.9C0.76 12.66 0.5 11.36 0.5 10C0.5 8.64 0.76 7.34 1.28 6.1C1.78667 4.91333 2.50333 3.85667 3.43 2.93C4.35667 2.00333 5.41333 1.28667 6.6 0.780001C7.84 0.26 9.14 0 10.5 0C11.86 0 13.16 0.26 14.4 0.780001C15.5867 1.28667 16.6433 2.00333 17.57 2.93C18.4967 3.85667 19.2133 4.91333 19.72 6.1C20.24 7.34 20.5 8.64 20.5 10C20.5 11.36 20.24 12.66 19.72 13.9C19.2133 15.0867 18.4967 16.1433 17.57 17.07C16.6433 17.9967 15.5867 18.7133 14.4 19.22C13.16 19.74 11.86 20 10.5 20ZM10.5 18C11.9533 18 13.3 17.6333 14.54 16.9C15.74 16.1933 16.6933 15.24 17.4 14.04C18.1333 12.8 18.5 11.4533 18.5 10C18.5 8.54667 18.1333 7.2 17.4 5.96C16.6933 4.76 15.74 3.80667 14.54 3.1C13.3 2.36667 11.9533 2 10.5 2C9.04667 2 7.7 2.36667 6.46 3.1C5.26 3.80667 4.30667 4.76 3.6 5.96C2.86667 7.2 2.5 8.54667 2.5 10C2.5 11.4533 2.86667 12.8 3.6 14.04C4.30667 15.24 5.26 16.1933 6.46 16.9C7.7 17.6333 9.04667 18 10.5 18Z" fill="#4C93FD"/>
</svg>
