<svg width="32" height="31" viewBox="0 0 32 31" fill="none" xmlns="http://www.w3.org/2000/svg">
<path d="M17.4197 25.1365V27.6365H14.9197V25.1365H4.91968C4.56968 25.1365 4.27384 25.0156 4.03218 24.774C3.79051 24.5323 3.66968 24.2365 3.66968 23.8865V3.88647C3.66968 3.53647 3.79051 3.24064 4.03218 2.99897C4.27384 2.75731 4.56968 2.63647 4.91968 2.63647H12.4197C13.153 2.63647 13.8447 2.78647 14.4947 3.08647C15.1447 3.38647 15.703 3.80314 16.1697 4.33647C16.6363 3.80314 17.1947 3.38647 17.8447 3.08647C18.4947 2.78647 19.1863 2.63647 19.9197 2.63647H27.4197C27.7697 2.63647 28.0655 2.75731 28.3072 2.99897C28.5488 3.24064 28.6697 3.53647 28.6697 3.88647V23.8865C28.6697 24.2365 28.5488 24.5323 28.3072 24.774C28.0655 25.0156 27.7697 25.1365 27.4197 25.1365H17.4197ZM26.1697 22.6365V5.13647H19.9197C19.4697 5.13647 19.053 5.24897 18.6697 5.47397C18.2863 5.69897 17.9822 6.00314 17.7572 6.38647C17.5322 6.76981 17.4197 7.18647 17.4197 7.63647V22.6365H26.1697ZM14.9197 22.6365V7.63647C14.9197 7.18647 14.8072 6.76981 14.5822 6.38647C14.3572 6.00314 14.053 5.69897 13.6697 5.47397C13.2863 5.24897 12.8697 5.13647 12.4197 5.13647H6.16968V22.6365H14.9197Z" fill="#0052CC"/>
</svg>
