<svg width="33" height="31" viewBox="0 0 33 31" fill="none" xmlns="http://www.w3.org/2000/svg">
<path d="M26.8417 2.68188C27.175 2.68188 27.4625 2.80272 27.7042 3.04438C27.9458 3.28605 28.0667 3.58188 28.0667 3.93188V10.1819C28.0833 10.5319 27.9667 10.8277 27.7167 11.0694C27.4667 11.3111 27.1667 11.4319 26.8167 11.4319H20.5917V27.6819C20.575 28.0319 20.4458 28.3277 20.2042 28.5694C19.9625 28.8111 19.675 28.9319 19.3417 28.9319H14.3417C13.9917 28.9319 13.6958 28.8111 13.4542 28.5694C13.2125 28.3277 13.0833 28.0319 13.0667 27.6819V11.4319H6.21668C5.86668 11.4319 5.56668 11.3111 5.31668 11.0694C5.06668 10.8277 4.94168 10.5319 4.94168 10.1819V7.20688C4.95834 6.97355 5.02501 6.75688 5.14168 6.55688C5.25834 6.35688 5.42501 6.19855 5.64168 6.08188L12.4667 2.68188H26.8417ZM20.5917 5.18188H13.0417L7.46668 7.98188V8.93188H15.5917V26.4319H18.0917V8.93188H20.5917V5.18188ZM25.5917 5.18188H23.0917V8.93188H25.5917V5.18188Z" fill="#0052CC"/>
</svg>
