<svg width="32" height="31" viewBox="0 0 32 31" fill="none" xmlns="http://www.w3.org/2000/svg">
<path d="M7.1002 16.7568C7.1002 14.6735 7.4752 12.6818 8.2252 10.7818C8.95853 8.9485 9.9877 7.336 11.3127 5.94434C12.6377 4.55267 14.1502 3.4985 15.8502 2.78184C17.5502 3.4985 19.0627 4.55267 20.3877 5.94434C21.7127 7.336 22.7419 8.9485 23.4752 10.7818C24.2252 12.6818 24.6002 14.6735 24.6002 16.7568C24.6002 17.7735 24.5085 18.7735 24.3252 19.7568L26.7502 22.0318C26.8502 22.1318 26.9127 22.2527 26.9377 22.3943C26.9627 22.536 26.9419 22.6735 26.8752 22.8068L23.7502 28.5068C23.6669 28.6568 23.5419 28.7568 23.3752 28.8068C23.2085 28.8568 23.0502 28.8402 22.9002 28.7568C22.8502 28.7402 22.8002 28.7068 22.7502 28.6568L19.9752 25.8568C19.7252 25.6235 19.4252 25.5068 19.0752 25.5068H12.6252C12.2752 25.5068 11.9752 25.6235 11.7252 25.8568L8.9502 28.6568C8.81687 28.7735 8.66687 28.8318 8.5002 28.8318C8.33353 28.8318 8.18353 28.7735 8.0502 28.6568C8.01687 28.6235 7.98353 28.5735 7.9502 28.5068L4.8252 22.8068C4.75853 22.6735 4.7377 22.536 4.7627 22.3943C4.7877 22.2527 4.8502 22.1318 4.9502 22.0318L7.3752 19.7568C7.19187 18.7735 7.1002 17.7735 7.1002 16.7568ZM8.9502 25.1068L9.9752 24.1068C10.3252 23.7568 10.7294 23.486 11.1877 23.2943C11.646 23.1027 12.1252 23.0068 12.6252 23.0068H19.0752C19.5752 23.0068 20.0544 23.1027 20.5127 23.2943C20.971 23.486 21.3752 23.7568 21.7252 24.1068L22.7502 25.1068L23.9752 22.8568L22.6002 21.5818C22.3002 21.2818 22.0835 20.9318 21.9502 20.5318C21.8169 20.1318 21.7919 19.7235 21.8752 19.3068C22.0252 18.4568 22.1002 17.6068 22.1002 16.7568C22.1002 15.1568 21.8419 13.6235 21.3252 12.1568C20.8085 10.7235 20.0794 9.436 19.1377 8.29434C18.196 7.15267 17.1002 6.24017 15.8502 5.55684C14.6002 6.24017 13.5044 7.15267 12.5627 8.29434C11.621 9.436 10.8919 10.7235 10.3752 12.1568C9.85853 13.6235 9.6002 15.1568 9.6002 16.7568C9.6002 17.6068 9.6752 18.4568 9.8252 19.3068C9.90853 19.7235 9.88353 20.1318 9.7502 20.5318C9.61687 20.9318 9.4002 21.2818 9.1002 21.5818L7.7252 22.8568L8.9502 25.1068ZM15.8502 16.7568C15.4002 16.7568 14.9835 16.6443 14.6002 16.4193C14.2169 16.1943 13.9127 15.8902 13.6877 15.5068C13.4627 15.1235 13.3502 14.7068 13.3502 14.2568C13.3502 13.8068 13.4627 13.3902 13.6877 13.0068C13.9127 12.6235 14.2169 12.3193 14.6002 12.0943C14.9835 11.8693 15.4002 11.7568 15.8502 11.7568C16.3002 11.7568 16.7169 11.8693 17.1002 12.0943C17.4835 12.3193 17.7877 12.6235 18.0127 13.0068C18.2377 13.3902 18.3502 13.8068 18.3502 14.2568C18.3502 14.7068 18.2377 15.1235 18.0127 15.5068C17.7877 15.8902 17.4835 16.1943 17.1002 16.4193C16.7169 16.6443 16.3002 16.7568 15.8502 16.7568Z" fill="#0052CC"/>
</svg>
