<svg width="64" height="65" viewBox="0 0 64 65" fill="none" xmlns="http://www.w3.org/2000/svg">
<rect y="0.669922" width="64" height="64" rx="32" fill="#DBEAFE"/>
<path d="M31.0144 39.2902V29.5694H24.2098V39.2902H31.0144ZM31.0144 27.6252V24.709C31.0144 24.4368 31.1083 24.2067 31.2963 24.0188C31.4842 23.8308 31.7143 23.7369 31.9865 23.7369H40.7352C41.0074 23.7369 41.2375 23.8308 41.4254 24.0188C41.6133 24.2067 41.7073 24.4368 41.7073 24.709V40.2623C41.7073 40.5345 41.6133 40.7645 41.4254 40.9525C41.2375 41.1404 41.0074 41.2344 40.7352 41.2344H23.2377C22.9655 41.2344 22.7355 41.1404 22.5475 40.9525C22.3596 40.7645 22.2656 40.5345 22.2656 40.2623V28.5973C22.2656 28.3251 22.3596 28.095 22.5475 27.9071C22.7355 27.7192 22.9655 27.6252 23.2377 27.6252H31.0144ZM32.9585 25.681V39.2902H39.7631V25.681H32.9585ZM25.1819 36.374H30.0423V38.3181H25.1819V36.374ZM33.9306 36.374H38.791V38.3181H33.9306V36.374ZM33.9306 33.4577H38.791V35.4019H33.9306V33.4577ZM33.9306 30.5415H38.791V32.4856H33.9306V30.5415ZM25.1819 33.4577H30.0423V35.4019H25.1819V33.4577Z" fill="#4C93FD"/>
</svg>
