<svg width="66" height="65" viewBox="0 0 66 65" fill="none" xmlns="http://www.w3.org/2000/svg">
<rect y="0.669922" width="65.3317" height="64" rx="32" fill="#DBEAFE"/>
<path d="M24.2098 25.6908V39.3H39.7631V27.635H31.5782L29.634 25.6908H24.2098ZM32.3947 25.6908H40.7352C41.0074 25.6908 41.2375 25.7848 41.4254 25.9727C41.6133 26.1606 41.7073 26.3907 41.7073 26.6629V40.2721C41.7073 40.5442 41.6133 40.7743 41.4254 40.9622C41.2375 41.1502 41.0074 41.2441 40.7352 41.2441H23.2377C22.9655 41.2441 22.7355 41.1502 22.5475 40.9622C22.3596 40.7743 22.2656 40.5442 22.2656 40.2721V24.7187C22.2656 24.4465 22.3596 24.2165 22.5475 24.0285C22.7355 23.8406 22.9655 23.7466 23.2377 23.7466H30.4506L32.3947 25.6908Z" fill="#4C93FD"/>
</svg>
