<svg width="65" height="65" viewBox="0 0 65 65" fill="none" xmlns="http://www.w3.org/2000/svg">
<rect x="0.553955" y="0.669922" width="64" height="64" rx="32" fill="#DBEAFE"/>
<path d="M37.402 35.839V42.5075C37.402 42.6501 37.3534 42.7667 37.2562 42.8574C37.159 42.9482 37.0455 42.9935 36.9159 42.9935C36.8252 42.9935 36.741 42.9741 36.6632 42.9352L32.5416 40.4661L28.4199 42.9352C28.3033 43 28.1801 43.0162 28.0505 42.9838C27.9209 42.9514 27.8237 42.8769 27.7589 42.7602C27.7071 42.6825 27.6811 42.5982 27.6811 42.5075V35.839C26.7739 35.1132 26.0675 34.2318 25.562 33.1949C25.0306 32.1191 24.7649 30.9786 24.7649 29.7732C24.7649 28.3604 25.1213 27.0514 25.8342 25.846C26.5211 24.6665 27.4478 23.7333 28.6143 23.0464C29.8197 22.3465 31.1288 21.9965 32.5416 21.9965C33.9543 21.9965 35.2634 22.3465 36.4688 23.0464C37.6353 23.7333 38.562 24.6665 39.2489 25.846C39.9618 27.0514 40.3182 28.3604 40.3182 29.7732C40.3182 30.9786 40.0525 32.1191 39.5211 33.1949C39.0156 34.2318 38.3093 35.1132 37.402 35.839ZM29.6253 36.9666V39.9412L32.5416 38.1914L35.4578 39.9412V36.9666C34.5246 37.3554 33.5525 37.5499 32.5416 37.5499C31.5306 37.5499 30.5585 37.3619 29.6253 36.986V36.9666ZM32.5416 35.6057C33.5914 35.6057 34.57 35.34 35.4773 34.8086C36.3586 34.2901 37.0585 33.5902 37.577 32.7089C38.1084 31.8016 38.3741 30.8198 38.3741 29.7635C38.3741 28.7071 38.1084 27.7253 37.577 26.8181C37.0585 25.9367 36.3586 25.2433 35.4773 24.7378C34.57 24.2064 33.5914 23.9407 32.5416 23.9407C31.4917 23.9407 30.5131 24.2064 29.6059 24.7378C28.7245 25.2433 28.0246 25.9367 27.5062 26.8181C26.9748 27.7253 26.7091 28.7071 26.7091 29.7635C26.7091 30.8198 26.9748 31.8016 27.5062 32.7089C28.0246 33.5902 28.7245 34.2901 29.6059 34.8086C30.5131 35.34 31.4917 35.6057 32.5416 35.6057Z" fill="#4C93FD"/>
</svg>
