<svg width="65" height="65" viewBox="0 0 65 65" fill="none" xmlns="http://www.w3.org/2000/svg">
<rect x="0.890381" y="0.669922" width="64" height="64" rx="32" fill="#DBEAFE"/>
<path d="M32.8919 23.2609C34.1232 23.2609 35.2703 23.572 36.3331 24.1941C37.357 24.7903 38.1671 25.6004 38.7633 26.6243C39.3854 27.6871 39.6965 28.8342 39.6965 30.0655V30.396C40.4482 30.6552 41.119 31.057 41.7087 31.6014C42.2984 32.1457 42.7585 32.7905 43.089 33.5358C43.4196 34.2811 43.5848 35.0685 43.5848 35.898C43.5848 36.9478 43.3191 37.9264 42.7877 38.8337C42.2693 39.715 41.5694 40.4149 40.688 40.9334C39.7807 41.4648 38.8022 41.7305 37.7523 41.7305H28.0315C26.9816 41.7305 26.0031 41.4648 25.0958 40.9334C24.2144 40.4149 23.5145 39.715 22.9961 38.8337C22.4647 37.9264 22.199 36.9478 22.199 35.898C22.199 35.0685 22.3642 34.2811 22.6947 33.5358C23.0252 32.7905 23.4854 32.1457 24.0751 31.6014C24.6648 31.057 25.3356 30.6552 26.0873 30.396V30.0655C26.0873 28.8342 26.3984 27.6871 27.0205 26.6243C27.6167 25.6004 28.4268 24.7903 29.4507 24.1941C30.5135 23.572 31.6606 23.2609 32.8919 23.2609ZM32.8919 25.2051C32.0105 25.2051 31.1972 25.4222 30.452 25.8563C29.7067 26.2905 29.117 26.8803 28.6828 27.6255C28.2486 28.3708 28.0315 29.1841 28.0315 30.0655L28.1092 31.7569L26.7483 32.2235C25.9707 32.4957 25.342 32.9688 24.8625 33.6427C24.3829 34.3167 24.1431 35.0685 24.1431 35.898C24.1431 36.5979 24.3181 37.2459 24.6681 37.8421C25.018 38.4383 25.4911 38.9114 26.0873 39.2614C26.6835 39.6113 27.3316 39.7863 28.0315 39.7863H37.7523C38.4522 39.7863 39.1003 39.6113 39.6965 39.2614C40.2927 38.9114 40.7658 38.4383 41.1157 37.8421C41.4657 37.2459 41.6406 36.5979 41.6406 35.898C41.6406 35.1981 41.4657 34.55 41.1157 33.9538C40.7658 33.3576 40.2927 32.8845 39.6965 32.5346C39.1003 32.1846 38.4522 32.0096 37.7523 32.0096C36.9098 32.0096 36.1484 32.2559 35.4679 32.7484C34.7875 33.2409 34.3176 33.8825 34.0584 34.6731L32.2114 34.051C32.4707 33.2863 32.8724 32.5994 33.4168 31.9902C33.9612 31.381 34.6092 30.9079 35.361 30.571C36.1127 30.234 36.9098 30.0655 37.7523 30.0655C37.7523 29.1841 37.5352 28.3708 37.101 27.6255C36.6668 26.8803 36.0771 26.2905 35.3318 25.8563C34.5866 25.4222 33.7732 25.2051 32.8919 25.2051Z" fill="#4C93FD"/>
</svg>
