<svg width="65" height="65" viewBox="0 0 65 65" fill="none" xmlns="http://www.w3.org/2000/svg">
<rect x="0.5" y="0.669922" width="64" height="64" rx="32" fill="#DBEAFE"/>
<path d="M33.5196 28.7138L34.8999 30.0747C35.7683 30.9431 36.3581 31.9735 36.6691 33.1659C36.9672 34.3194 36.9672 35.473 36.6691 36.6265C36.3581 37.806 35.7683 38.8299 34.8999 39.6983L34.55 40.0482C33.6816 40.9166 32.6512 41.5064 31.4588 41.8174C30.3182 42.1155 29.1711 42.1155 28.0176 41.8174C26.8252 41.5064 25.7948 40.9166 24.9264 40.0482C24.058 39.1799 23.4682 38.1494 23.1572 36.957C22.8591 35.8035 22.8591 34.6564 23.1572 33.5158C23.4682 32.3234 24.058 31.293 24.9264 30.4246L26.3067 31.805C25.6846 32.4271 25.2634 33.1529 25.043 33.9824C24.8227 34.812 24.8227 35.6447 25.043 36.4807C25.2634 37.3167 25.6846 38.0458 26.3067 38.6679C26.9289 39.29 27.6579 39.7113 28.4939 39.9316C29.3299 40.1519 30.1627 40.1519 30.9922 39.9316C31.8217 39.7113 32.5475 39.29 33.1696 38.6679L33.5196 38.3374C34.1417 37.7023 34.563 36.97 34.7833 36.1405C35.0036 35.311 35.0036 34.4782 34.7833 33.6422C34.563 32.8062 34.1417 32.0772 33.5196 31.455L32.1392 30.0747L33.5196 28.7138ZM40.052 34.5463L38.6716 33.1659C39.2938 32.5438 39.715 31.8179 39.9353 30.9884C40.1557 30.1589 40.1557 29.3262 39.9353 28.4902C39.715 27.6542 39.2938 26.9251 38.6716 26.303C38.0495 25.6809 37.3204 25.2596 36.4844 25.0393C35.6484 24.8189 34.8157 24.8189 33.9862 25.0393C33.1567 25.2596 32.4308 25.6809 31.8087 26.303L31.4588 26.6335C30.8366 27.2686 30.4154 28.0009 30.1951 28.8304C29.9747 29.6599 29.9747 30.4927 30.1951 31.3287C30.4154 32.1646 30.8366 32.8937 31.4588 33.5158L32.8391 34.8962L31.4588 36.2571L30.0784 34.8962C29.21 34.0278 28.6203 32.9974 28.3092 31.805C28.0111 30.6514 28.0111 29.4979 28.3092 28.3444C28.6203 27.1649 29.21 26.141 30.0784 25.2726L30.4284 24.9226C31.2968 24.0542 32.3272 23.4645 33.5196 23.1534C34.6602 22.8553 35.8072 22.8553 36.9608 23.1534C38.1532 23.4645 39.1836 24.0542 40.052 24.9226C40.9204 25.791 41.5101 26.8214 41.8212 28.0139C42.1193 29.1674 42.1193 30.3145 41.8212 31.455C41.5101 32.6475 40.9204 33.6779 40.052 34.5463Z" fill="#4C93FD"/>
</svg>
