<svg width="64" height="65" viewBox="0 0 64 65" fill="none" xmlns="http://www.w3.org/2000/svg">
<rect y="0.669922" width="64" height="64" rx="32" fill="#DBEAFE"/>
<path d="M27.2238 35.6157C27.7682 35.8231 28.2121 36.1731 28.5556 36.6656C28.899 37.1581 29.0708 37.709 29.0708 38.3181C29.0708 38.8495 28.9412 39.3388 28.6819 39.786C28.4227 40.2331 28.0695 40.5863 27.6224 40.8455C27.1752 41.1048 26.6859 41.2344 26.1545 41.2344C25.6231 41.2344 25.1338 41.1048 24.6867 40.8455C24.2395 40.5863 23.8863 40.2331 23.6271 39.786C23.3679 39.3388 23.2383 38.8495 23.2383 38.3181C23.2383 37.696 23.4197 37.1322 23.7826 36.6267C24.1456 36.1212 24.6122 35.7713 25.1824 35.5768V29.3944C24.6122 29.2 24.1456 28.85 23.7826 28.3446C23.4197 27.8391 23.2383 27.2753 23.2383 26.6531C23.2383 26.1217 23.3679 25.6324 23.6271 25.1853C23.8863 24.7381 24.2395 24.3849 24.6867 24.1257C25.1338 23.8665 25.6231 23.7369 26.1545 23.7369C26.6859 23.7369 27.1752 23.8665 27.6224 24.1257C28.0695 24.3849 28.4227 24.7381 28.6819 25.1853C28.9412 25.6324 29.0708 26.1217 29.0708 26.6531C29.0708 27.2753 28.8893 27.8391 28.5264 28.3446C28.1635 28.85 27.6969 29.2 27.1266 29.3944V32.4856C27.5414 32.1746 27.995 31.9348 28.4875 31.7663C28.9801 31.5978 29.4985 31.5135 30.0429 31.5135H33.9312C34.5922 31.5135 35.1852 31.3126 35.7101 30.9109C36.235 30.5091 36.5817 29.9906 36.7502 29.3555C36.2059 29.1481 35.762 28.7982 35.4185 28.3057C35.075 27.8131 34.9033 27.2623 34.9033 26.6531C34.9033 26.1217 35.0329 25.6324 35.2921 25.1853C35.5513 24.7381 35.9045 24.3849 36.3517 24.1257C36.7988 23.8665 37.2881 23.7369 37.8195 23.7369C38.3509 23.7369 38.8402 23.8665 39.2874 24.1257C39.7345 24.3849 40.0877 24.7381 40.3469 25.1853C40.6062 25.6324 40.7358 26.1217 40.7358 26.6531C40.7358 27.2882 40.5478 27.8617 40.172 28.3737C39.7961 28.8857 39.3101 29.2389 38.7138 29.4333C38.5842 30.185 38.2926 30.8687 37.839 31.4844C37.3853 32.1 36.8183 32.5828 36.1378 32.9328C35.4574 33.2827 34.7218 33.4577 33.9312 33.4577H30.0429C29.3818 33.4577 28.7889 33.6586 28.264 34.0604C27.739 34.4622 27.3923 34.9806 27.2238 35.6157ZM26.1545 37.346C25.8823 37.346 25.6523 37.44 25.4644 37.6279C25.2764 37.8159 25.1824 38.0459 25.1824 38.3181C25.1824 38.5903 25.2764 38.8204 25.4644 39.0083C25.6523 39.1962 25.8823 39.2902 26.1545 39.2902C26.4267 39.2902 26.6568 39.1962 26.8447 39.0083C27.0326 38.8204 27.1266 38.5903 27.1266 38.3181C27.1266 38.0459 27.0326 37.8159 26.8447 37.6279C26.6568 37.44 26.4267 37.346 26.1545 37.346ZM26.1545 25.681C25.8823 25.681 25.6523 25.775 25.4644 25.9629C25.2764 26.1509 25.1824 26.3809 25.1824 26.6531C25.1824 26.9253 25.2764 27.1554 25.4644 27.3433C25.6523 27.5312 25.8823 27.6252 26.1545 27.6252C26.4267 27.6252 26.6568 27.5312 26.8447 27.3433C27.0326 27.1554 27.1266 26.9253 27.1266 26.6531C27.1266 26.3809 27.0326 26.1509 26.8447 25.9629C26.6568 25.775 26.4267 25.681 26.1545 25.681ZM37.8195 25.681C37.5473 25.681 37.3173 25.775 37.1294 25.9629C36.9414 26.1509 36.8474 26.3809 36.8474 26.6531C36.8474 26.9253 36.9414 27.1554 37.1294 27.3433C37.3173 27.5312 37.5473 27.6252 37.8195 27.6252C38.0917 27.6252 38.3218 27.5312 38.5097 27.3433C38.6976 27.1554 38.7916 26.9253 38.7916 26.6531C38.7916 26.3809 38.6976 26.1509 38.5097 25.9629C38.3218 25.775 38.0917 25.681 37.8195 25.681Z" fill="#4C93FD"/>
</svg>
