<svg width="65" height="65" viewBox="0 0 65 65" fill="none" xmlns="http://www.w3.org/2000/svg">
<rect x="0.874512" y="0.669922" width="64" height="64" rx="32" fill="#DBEAFE"/>
<path d="M32.8733 21.8017L40.8638 23.5709C41.0841 23.6227 41.2656 23.7394 41.4082 23.9208C41.5507 24.1023 41.622 24.3032 41.622 24.5235V34.2249C41.622 35.2099 41.392 36.1302 40.9318 36.9856C40.4717 37.841 39.8334 38.5409 39.0168 39.0853L32.8733 43.1875L26.7297 39.0853C25.9131 38.5409 25.2748 37.841 24.8147 36.9856C24.3546 36.1302 24.1245 35.2099 24.1245 34.2249V24.5235C24.1245 24.3032 24.1958 24.1023 24.3384 23.9208C24.4809 23.7394 24.6624 23.6227 24.8827 23.5709L32.8733 21.8017ZM32.8733 23.7847L26.0687 25.3012V34.2249C26.0687 34.8859 26.221 35.5016 26.5256 36.0719C26.8301 36.6421 27.2546 37.1087 27.799 37.4717L32.8733 40.8545L37.9475 37.4717C38.4919 37.1087 38.9164 36.6421 39.221 36.0719C39.5256 35.5016 39.6778 34.8859 39.6778 34.2249V25.3012L32.8733 23.7847ZM37.2088 28.8201L38.5697 30.2005L32.3872 36.3829L28.2656 32.2613L29.6459 30.8809L32.3872 33.6416L37.2088 28.8201Z" fill="#4C93FD"/>
</svg>
