<svg width="65" height="65" viewBox="0 0 65 65" fill="none" xmlns="http://www.w3.org/2000/svg">
<rect x="0.506592" y="0.669922" width="64" height="64" rx="32" fill="#DBEAFE"/>
<path d="M33.4769 40.1744C34.2156 40.0319 34.8799 39.7305 35.4696 39.2704C36.0594 38.8103 36.5227 38.2432 36.8597 37.5693C37.1967 36.8953 37.3652 36.1759 37.3652 35.4112V32.495C37.3652 31.821 37.2291 31.173 36.9569 30.5508H28.0526C27.7804 31.173 27.6444 31.821 27.6444 32.495V35.4112C27.6444 36.1759 27.8128 36.8953 28.1498 37.5693C28.4868 38.2432 28.9502 38.8103 29.5399 39.2704C30.1296 39.7305 30.7939 40.0319 31.5327 40.1744V34.4392H33.4769V40.1744ZM26.2251 38.0359C25.8752 37.1934 25.7002 36.3185 25.7002 35.4112H22.7839V33.4671H25.7002V32.495C25.7002 31.8858 25.778 31.2831 25.9335 30.6869L23.7949 29.4426L24.767 27.7707L26.7306 28.8983L26.925 28.6067H38.0845L38.2789 28.8983L40.2426 27.7707L41.2146 29.4426L39.0761 30.6869C39.2316 31.2831 39.3094 31.8858 39.3094 32.495V33.4671H42.2256V35.4112H39.3094C39.3094 36.3185 39.1344 37.1934 38.7844 38.0359L41.2146 39.4357L40.2426 41.1076L37.7929 39.6884C37.1578 40.479 36.3866 41.0947 35.4793 41.5354C34.5461 41.989 33.5546 42.2158 32.5048 42.2158C31.4549 42.2158 30.4634 41.989 29.5302 41.5354C28.6229 41.0947 27.8517 40.479 27.2166 39.6884L24.767 41.1076L23.7949 39.4357L26.2251 38.0359ZM28.6164 26.6625C28.6164 25.9626 28.7914 25.3145 29.1414 24.7183C29.4913 24.1221 29.9644 23.649 30.5606 23.2991C31.1568 22.9491 31.8049 22.7742 32.5048 22.7742C33.2047 22.7742 33.8527 22.9491 34.4489 23.2991C35.0451 23.649 35.5182 24.1221 35.8682 24.7183C36.2181 25.3145 36.3931 25.9626 36.3931 26.6625H28.6164Z" fill="#4C93FD"/>
</svg>
