<svg width="65" height="65" viewBox="0 0 65 65" fill="none" xmlns="http://www.w3.org/2000/svg">
<rect x="0.459229" y="0.669922" width="64" height="64" rx="32" fill="#DBEAFE"/>
<path d="M25.6561 33.2342C25.6561 31.6141 25.9477 30.0652 26.5309 28.5876C27.1012 27.1619 27.9016 25.9079 28.932 24.8257C29.9624 23.7434 31.1386 22.9236 32.4607 22.3663C33.7827 22.9236 34.9589 23.7434 35.9893 24.8257C37.0197 25.9079 37.8201 27.1619 38.3904 28.5876C38.9736 30.0652 39.2652 31.6141 39.2652 33.2342C39.2652 34.0248 39.194 34.8025 39.0514 35.5672L40.9372 37.3364C41.015 37.4142 41.0636 37.5081 41.083 37.6183C41.1025 37.7285 41.0863 37.8354 41.0344 37.9391L38.6042 42.3718C38.5394 42.4884 38.4422 42.5662 38.3126 42.6051C38.183 42.644 38.0599 42.631 37.9432 42.5662C37.9043 42.5532 37.8654 42.5273 37.8266 42.4884L35.6685 40.311C35.4741 40.1295 35.2408 40.0388 34.9686 40.0388H29.9527C29.6805 40.0388 29.4472 40.1295 29.2528 40.311L27.0948 42.4884C26.9911 42.5792 26.8744 42.6245 26.7448 42.6245C26.6152 42.6245 26.4985 42.5792 26.3949 42.4884C26.3689 42.4625 26.343 42.4236 26.3171 42.3718L23.8869 37.9391C23.835 37.8354 23.8188 37.7285 23.8383 37.6183C23.8577 37.5081 23.9063 37.4142 23.9841 37.3364L25.8699 35.5672C25.7274 34.8025 25.6561 34.0248 25.6561 33.2342ZM27.0948 39.7277L27.8919 38.95C28.164 38.6779 28.4784 38.4672 28.8348 38.3182C29.1912 38.1691 29.5638 38.0946 29.9527 38.0946H34.9686C35.3575 38.0946 35.7301 38.1691 36.0865 38.3182C36.443 38.4672 36.7573 38.6779 37.0294 38.95L37.8266 39.7277L38.7792 37.978L37.7099 36.9864C37.4766 36.7531 37.3081 36.481 37.2044 36.1699C37.1007 35.8588 37.0813 35.5413 37.1461 35.2172C37.2627 34.5562 37.3211 33.8952 37.3211 33.2342C37.3211 31.9899 37.1202 30.7975 36.7184 29.6569C36.3166 28.5423 35.7495 27.541 35.0172 26.6532C34.2849 25.7654 33.4327 25.0557 32.4607 24.5243C31.4886 25.0557 30.6364 25.7654 29.9041 26.6532C29.1718 27.541 28.6047 28.5423 28.2029 29.6569C27.8011 30.7975 27.6002 31.9899 27.6002 33.2342C27.6002 33.8952 27.6586 34.5562 27.7752 35.2172C27.84 35.5413 27.8206 35.8588 27.7169 36.1699C27.6132 36.481 27.4447 36.7531 27.2114 36.9864L26.1421 37.978L27.0948 39.7277ZM32.4607 33.2342C32.1107 33.2342 31.7867 33.1467 31.4886 32.9717C31.1905 32.7968 30.9539 32.5602 30.779 32.2621C30.604 31.964 30.5165 31.64 30.5165 31.29C30.5165 30.9401 30.604 30.6161 30.779 30.3179C30.9539 30.0198 31.1905 29.7833 31.4886 29.6083C31.7867 29.4334 32.1107 29.3459 32.4607 29.3459C32.8106 29.3459 33.1346 29.4334 33.4327 29.6083C33.7308 29.7833 33.9674 30.0198 34.1424 30.3179C34.3173 30.6161 34.4048 30.9401 34.4048 31.29C34.4048 31.64 34.3173 31.964 34.1424 32.2621C33.9674 32.5602 33.7308 32.7968 33.4327 32.9717C33.1346 33.1467 32.8106 33.2342 32.4607 33.2342Z" fill="#4C93FD"/>
</svg>
