<svg width="26" height="24" viewBox="0 0 26 24" fill="none" xmlns="http://www.w3.org/2000/svg">
<path d="M12.6123 22C11.2523 22 9.9523 21.74 8.7123 21.22C7.52564 20.7133 6.46897 19.9967 5.5423 19.07C4.61564 18.1433 3.89897 17.0867 3.3923 15.9C2.8723 14.66 2.6123 13.36 2.6123 12C2.6123 10.64 2.8723 9.34 3.3923 8.1C3.89897 6.91333 4.61564 5.85667 5.5423 4.93C6.46897 4.00333 7.52564 3.28667 8.7123 2.78C9.9523 2.26 11.2523 2 12.6123 2C13.9723 2 15.2723 2.26 16.5123 2.78C17.699 3.28667 18.7556 4.00333 19.6823 4.93C20.609 5.85667 21.3256 6.91333 21.8323 8.1C22.3523 9.34 22.6123 10.64 22.6123 12C22.6123 13.36 22.3523 14.66 21.8323 15.9C21.3256 17.0867 20.609 18.1433 19.6823 19.07C18.7556 19.9967 17.699 20.7133 16.5123 21.22C15.2723 21.74 13.9723 22 12.6123 22ZM12.6123 20C14.0656 20 15.4123 19.6333 16.6523 18.9C17.8523 18.1933 18.8056 17.24 19.5123 16.04C20.2456 14.8 20.6123 13.4533 20.6123 12C20.6123 10.5467 20.2456 9.2 19.5123 7.96C18.8056 6.76 17.8523 5.80667 16.6523 5.1C15.4123 4.36667 14.0656 4 12.6123 4C11.159 4 9.8123 4.36667 8.5723 5.1C7.3723 5.80667 6.41897 6.76 5.7123 7.96C4.97897 9.2 4.6123 10.5467 4.6123 12C4.6123 13.4533 4.97897 14.8 5.7123 16.04C6.41897 17.24 7.3723 18.1933 8.5723 18.9C9.8123 19.6333 11.159 20 12.6123 20Z" fill="#0052CC"/>
</svg>
