<svg width="26" height="24" viewBox="0 0 26 24" fill="none" xmlns="http://www.w3.org/2000/svg">
<path d="M6.2942 3.55989C6.92087 3.33323 7.5642 3.29323 8.2242 3.43989C8.8842 3.58656 9.46087 3.89989 9.9542 4.37989C10.5009 4.93989 10.8275 5.60323 10.9342 6.36989C11.0409 7.13656 10.9142 7.85323 10.5542 8.51989L21.2542 19.2399L19.8542 20.6399L9.1342 9.93989C8.46754 10.2999 7.75087 10.4266 6.9842 10.3199C6.21754 10.2132 5.5542 9.88656 4.9942 9.33989C4.5142 8.84656 4.20087 8.26989 4.0542 7.60989C3.90754 6.94989 3.94754 6.30656 4.1742 5.67989L6.4142 7.91989C6.70754 8.21323 7.06087 8.35989 7.4742 8.35989C7.88754 8.35989 8.24087 8.21323 8.5342 7.91989C8.82754 7.62656 8.9742 7.27323 8.9742 6.85989C8.9742 6.44656 8.82754 6.09323 8.5342 5.79989L6.2942 3.55989ZM16.6542 5.43989L19.8542 3.67989L21.2542 5.07989L19.4942 8.25989L17.7142 8.61989L15.5942 10.7399L14.1942 9.33989L16.3142 7.19989L16.6542 5.43989ZM9.9542 13.5799L11.3542 14.9799L6.0542 20.2999C5.8542 20.4866 5.61754 20.5799 5.3442 20.5799C5.07087 20.5799 4.84087 20.4866 4.6542 20.2999C4.46754 20.1132 4.36754 19.8932 4.3542 19.6399C4.34087 19.3866 4.40754 19.1599 4.5542 18.9599L4.6342 18.8799L9.9542 13.5799Z" fill="#0052CC"/>
</svg>
