<svg width="22" height="21" viewBox="0 0 22 21" fill="none" xmlns="http://www.w3.org/2000/svg">
<path d="M10.5908 1.15567L17.443 2.67282C17.6319 2.71728 17.7875 2.81732 17.9098 2.97292C18.032 3.12853 18.0932 3.3008 18.0932 3.48975V11.8091C18.0932 12.6538 17.8959 13.4429 17.5013 14.1765C17.1068 14.9101 16.5594 15.5103 15.8591 15.9771L10.5908 19.4949L5.32243 15.9771C4.6222 15.5103 4.07481 14.9101 3.68023 14.1765C3.28566 13.4429 3.08838 12.6538 3.08838 11.8091V3.48975C3.08838 3.3008 3.14951 3.12853 3.27177 2.97292C3.39403 2.81732 3.54964 2.71728 3.73859 2.67282L10.5908 1.15567ZM10.5908 2.85622L4.75558 4.15663V11.8091C4.75558 12.3759 4.88618 12.9039 5.14737 13.3929C5.40857 13.882 5.77257 14.2821 6.23939 14.5933L10.5908 17.4942L14.9422 14.5933C15.409 14.2821 15.773 13.882 16.0342 13.3929C16.2954 12.9039 16.426 12.3759 16.426 11.8091V4.15663L10.5908 2.85622ZM14.3086 7.17426L15.4757 8.35798L10.174 13.6597L6.63951 10.1252L7.82323 8.9415L10.174 11.3089L14.3086 7.17426Z" fill="#0052CC"/>
</svg>
