<svg width="22" height="21" viewBox="0 0 22 21" fill="none" xmlns="http://www.w3.org/2000/svg">
<path d="M14.772 13.1963V18.9121C14.772 19.0343 14.7304 19.1343 14.647 19.212C14.5637 19.2898 14.4665 19.3287 14.3554 19.3287C14.2777 19.3287 14.2055 19.312 14.1388 19.2787L10.606 17.1624L7.07326 19.2787C6.97328 19.3342 6.86774 19.3481 6.75665 19.3203C6.64555 19.2926 6.56223 19.2287 6.50669 19.1287C6.46225 19.062 6.44003 18.9898 6.44003 18.9121V13.1963C5.66238 12.5742 5.05692 11.8188 4.62365 10.93C4.16817 10.0079 3.94043 9.03032 3.94043 7.99715C3.94043 6.78624 4.24594 5.66419 4.85695 4.63103C5.44574 3.62008 6.24006 2.8202 7.2399 2.23141C8.27307 1.6315 9.39511 1.33155 10.606 1.33155C11.8169 1.33155 12.939 1.6315 13.9722 2.23141C14.972 2.8202 15.7663 3.62008 16.3551 4.63103C16.9661 5.66419 17.2716 6.78624 17.2716 7.99715C17.2716 9.03032 17.0439 10.0079 16.5884 10.93C16.1551 11.8188 15.5497 12.5742 14.772 13.1963ZM8.10643 14.1628V16.7124L10.606 15.2127L13.1056 16.7124V14.1628C12.3058 14.4961 11.4726 14.6628 10.606 14.6628C9.7395 14.6628 8.9063 14.5017 8.10643 14.1795V14.1628ZM10.606 12.9964C11.5059 12.9964 12.3446 12.7686 13.1223 12.3131C13.8777 11.8688 14.4776 11.2689 14.922 10.5134C15.3775 9.73576 15.6052 8.89423 15.6052 7.98882C15.6052 7.08341 15.3775 6.24188 14.922 5.46423C14.4776 4.70879 13.8777 4.11444 13.1223 3.68118C12.3446 3.22569 11.5059 2.99795 10.606 2.99795C9.70617 2.99795 8.86742 3.22569 8.08977 3.68118C7.33433 4.11444 6.73443 4.70879 6.29005 5.46423C5.83457 6.24188 5.60683 7.08341 5.60683 7.98882C5.60683 8.89423 5.83457 9.73576 6.29005 10.5134C6.73443 11.2689 7.33433 11.8688 8.08977 12.3131C8.86742 12.7686 9.70617 12.9964 10.606 12.9964Z" fill="#0052CC"/>
</svg>
