<svg width="18" height="17" viewBox="0 0 18 17" fill="none" xmlns="http://www.w3.org/2000/svg">
<path d="M8.80617 15.3042C7.90005 15.3042 7.0339 15.131 6.20773 14.7845C5.41709 14.4469 4.71307 13.9694 4.09566 13.352C3.47826 12.7346 3.00076 12.0306 2.66319 11.24C2.31673 10.4138 2.1435 9.54765 2.1435 8.64153C2.1435 7.73541 2.31673 6.86926 2.66319 6.04309C3.00076 5.25245 3.47826 4.54843 4.09566 3.93103C4.71307 3.31362 5.41709 2.83613 6.20773 2.49855C7.0339 2.15209 7.90005 1.97886 8.80617 1.97886C9.71229 1.97886 10.5784 2.15209 11.4046 2.49855C12.1952 2.83613 12.8993 3.31362 13.5167 3.93103C14.1341 4.54843 14.6116 5.25245 14.9491 6.04309C15.2956 6.86926 15.4688 7.73541 15.4688 8.64153C15.4688 9.54765 15.2956 10.4138 14.9491 11.24C14.6116 12.0306 14.1341 12.7346 13.5167 13.352C12.8993 13.9694 12.1952 14.4469 11.4046 14.7845C10.5784 15.131 9.71229 15.3042 8.80617 15.3042ZM8.80617 13.9717C9.77448 13.9717 10.6717 13.7274 11.4979 13.2388C12.2974 12.7679 12.9326 12.1328 13.4034 11.3332C13.892 10.5071 14.1363 9.60984 14.1363 8.64153C14.1363 7.67322 13.892 6.77598 13.4034 5.94981C12.9326 5.15029 12.2974 4.51512 11.4979 4.04429C10.6717 3.5557 9.77448 3.3114 8.80617 3.3114C7.83786 3.3114 6.94062 3.5557 6.11445 4.04429C5.31493 4.51512 4.67976 5.15029 4.20893 5.94981C3.72033 6.77598 3.47603 7.67322 3.47603 8.64153C3.47603 9.60984 3.72033 10.5071 4.20893 11.3332C4.67976 12.1328 5.31493 12.7679 6.11445 13.2388C6.94062 13.7274 7.83786 13.9717 8.80617 13.9717ZM6.47424 9.97406H10.1387C10.2275 9.97406 10.3053 9.94075 10.3719 9.87413C10.4385 9.8075 10.4718 9.72977 10.4718 9.64093C10.4718 9.5521 10.4385 9.47436 10.3719 9.40774C10.3053 9.34111 10.2275 9.3078 10.1387 9.3078H7.47364C7.17159 9.3078 6.89398 9.23229 6.6408 9.08127C6.38762 8.93025 6.18552 8.72815 6.0345 8.47496C5.88348 8.22178 5.80797 7.94417 5.80797 7.64213C5.80797 7.34009 5.88348 7.06248 6.0345 6.8093C6.18552 6.55612 6.38762 6.35402 6.6408 6.203C6.89398 6.05197 7.17159 5.97646 7.47364 5.97646H8.1399V4.64393H9.47244V5.97646H11.1381V7.309H7.47364C7.3848 7.309 7.30707 7.34231 7.24044 7.40894C7.17382 7.47556 7.1405 7.5533 7.1405 7.64213C7.1405 7.73097 7.17382 7.8087 7.24044 7.87532C7.30707 7.94195 7.3848 7.97526 7.47364 7.97526H10.1387C10.4407 7.97526 10.7184 8.05078 10.9715 8.2018C11.2247 8.35282 11.4268 8.55492 11.5778 8.8081C11.7289 9.06128 11.8044 9.33889 11.8044 9.64093C11.8044 9.94297 11.7289 10.2206 11.5778 10.4738C11.4268 10.7269 11.2247 10.929 10.9715 11.0801C10.7184 11.2311 10.4407 11.3066 10.1387 11.3066H9.47244V12.6391H8.1399V11.3066H6.47424V9.97406Z" fill="#16A34A"/>
</svg>
