<svg width="17" height="17" viewBox="0 0 17 17" fill="none" xmlns="http://www.w3.org/2000/svg">
<path d="M7.13774 2.04152C6.83552 1.94375 6.52663 1.92152 6.21107 1.97486C5.89552 2.02819 5.60885 2.14597 5.35107 2.32819C5.09329 2.51041 4.89329 2.74819 4.75107 3.04152L4.2044 4.09486C4.14218 4.2193 4.04885 4.31263 3.9244 4.37486L2.87107 4.92152C2.57774 5.06375 2.33996 5.26375 2.15774 5.52152C1.97552 5.7793 1.85774 6.06597 1.8044 6.38152C1.75107 6.69708 1.77329 7.00597 1.87107 7.30819L2.23107 8.44152C2.27552 8.57486 2.27552 8.70819 2.23107 8.84152L1.87107 9.97486C1.77329 10.2771 1.75107 10.586 1.8044 10.9015C1.85774 11.2171 1.97552 11.5037 2.15774 11.7615C2.33996 12.0193 2.57774 12.2193 2.87107 12.3615L3.9244 12.9082C4.04885 12.9704 4.14218 13.0637 4.2044 13.1882L4.75107 14.2415C4.89329 14.5349 5.09329 14.7726 5.35107 14.9549C5.60885 15.1371 5.89552 15.2549 6.21107 15.3082C6.52663 15.3615 6.83552 15.3393 7.13774 15.2415L8.27107 14.8815C8.4044 14.8371 8.53774 14.8371 8.67107 14.8815L9.8044 15.2415C10.1066 15.3393 10.4155 15.3615 10.7311 15.3082C11.0466 15.2549 11.3333 15.1371 11.5911 14.9549C11.8488 14.7726 12.0488 14.5349 12.1911 14.2415L12.7377 13.1882C12.8 13.0637 12.8933 12.9704 13.0177 12.9082L14.0711 12.3615C14.3644 12.2193 14.6022 12.0193 14.7844 11.7615C14.9666 11.5037 15.0844 11.2171 15.1377 10.9015C15.1911 10.586 15.1688 10.2771 15.0711 9.97486L14.7111 8.84152C14.6666 8.70819 14.6666 8.57486 14.7111 8.44152L15.0711 7.30819C15.1688 7.00597 15.1911 6.69708 15.1377 6.38152C15.0844 6.06597 14.9666 5.7793 14.7844 5.52152C14.6022 5.26375 14.3644 5.06375 14.0711 4.92152L13.0177 4.37486C12.8933 4.31263 12.8 4.2193 12.7377 4.09486L12.1911 3.04152C12.0488 2.74819 11.8488 2.51041 11.5911 2.32819C11.3333 2.14597 11.0466 2.02819 10.7311 1.97486C10.4155 1.92152 10.1066 1.94375 9.8044 2.04152L8.67107 2.40152C8.53774 2.44597 8.4044 2.44597 8.27107 2.40152L7.13774 2.04152ZM5.93774 3.64152C6.00885 3.4993 6.11996 3.39708 6.27107 3.33486C6.42218 3.27263 6.57774 3.26375 6.73774 3.30819L7.85774 3.68152C8.26663 3.81486 8.67552 3.81486 9.0844 3.68152L10.2044 3.30819C10.3644 3.26375 10.52 3.27263 10.6711 3.33486C10.8222 3.39708 10.9333 3.4993 11.0044 3.64152L11.5511 4.69486C11.7466 5.07708 12.0355 5.36597 12.4177 5.56152L13.4711 6.10819C13.6133 6.1793 13.7155 6.29041 13.7777 6.44152C13.84 6.59263 13.8488 6.74819 13.8044 6.90819L13.4311 8.02819C13.2977 8.43708 13.2977 8.84597 13.4311 9.25486L13.8044 10.3749C13.8488 10.5349 13.84 10.6904 13.7777 10.8415C13.7155 10.9926 13.6133 11.1037 13.4711 11.1749L12.4177 11.7215C12.0355 11.9171 11.7466 12.206 11.5511 12.5882L11.0044 13.6415C10.9333 13.7837 10.8222 13.886 10.6711 13.9482C10.52 14.0104 10.3644 14.0193 10.2044 13.9749L9.0844 13.6015C8.67552 13.4682 8.26663 13.4682 7.85774 13.6015L6.73774 13.9749C6.57774 14.0193 6.42218 14.0104 6.27107 13.9482C6.11996 13.886 6.00885 13.7837 5.93774 13.6415L5.39107 12.5882C5.19552 12.206 4.90663 11.9171 4.5244 11.7215L3.47107 11.1749C3.32885 11.1037 3.22663 10.9926 3.1644 10.8415C3.10218 10.6904 3.09329 10.5349 3.13774 10.3749L3.51107 9.25486C3.6444 8.84597 3.6444 8.43708 3.51107 8.02819L3.13774 6.90819C3.09329 6.74819 3.10218 6.59263 3.1644 6.44152C3.22663 6.29041 3.32885 6.1793 3.47107 6.10819L4.5244 5.56152C4.90663 5.36597 5.19552 5.07708 5.39107 4.69486L5.93774 3.64152ZM4.97774 8.48152L7.8044 11.3082L12.5244 6.58819L11.5777 5.65486L7.8044 9.42819L5.9244 7.53486L4.97774 8.48152Z" fill="#16A34A"/>
</svg>
