<svg width="23" height="22" viewBox="0 0 23 22" fill="none" xmlns="http://www.w3.org/2000/svg">
<path d="M6.80267 5.50008V2.75008C6.80267 2.49341 6.88772 2.27647 7.05782 2.09925C7.22792 1.92202 7.43614 1.83341 7.68249 1.83341H14.7211C14.9674 1.83341 15.1757 1.92202 15.3458 2.09925C15.5159 2.27647 15.6009 2.49341 15.6009 2.75008V5.50008H19.1202C19.3666 5.50008 19.5748 5.58869 19.7449 5.76591C19.915 5.94314 20 6.16008 20 6.41675V19.2501C20 19.5067 19.915 19.7237 19.7449 19.9009C19.5748 20.0781 19.3666 20.1667 19.1202 20.1667H3.28337C3.03702 20.1667 2.8288 20.0781 2.6587 19.9009C2.4886 19.7237 2.40355 19.5067 2.40355 19.2501V6.41675C2.40355 6.16008 2.4886 5.94314 2.6587 5.76591C2.8288 5.58869 3.03702 5.50008 3.28337 5.50008H6.80267ZM4.1632 15.5834V18.3334H18.2404V15.5834H4.1632ZM4.1632 13.7501H18.2404V7.33341H4.1632V13.7501ZM8.56232 3.66675V5.50008H13.8413V3.66675H8.56232ZM10.322 11.0001H12.0816V12.8334H10.322V11.0001Z" fill="#0052CC"/>
</svg>
