<svg width="26" height="25" viewBox="0 0 26 25" fill="none" xmlns="http://www.w3.org/2000/svg">
<path d="M13.826 2.31152C14.8391 2.31152 15.5723 2.31819 16.0255 2.33152L16.9253 2.37152C17.8585 2.41152 18.665 2.56486 19.3449 2.83152C20.0247 3.09819 20.6179 3.48486 21.1245 3.99152C21.6311 4.49819 22.0177 5.09152 22.2843 5.77152C22.5509 6.45152 22.7042 7.25819 22.7442 8.19152L22.7842 9.09152C22.7975 9.55819 22.8042 10.2915 22.8042 11.2915V13.3315C22.8042 14.3449 22.7975 15.0782 22.7842 15.5315L22.7442 16.4315C22.7042 17.3649 22.5509 18.1715 22.2843 18.8515C22.0177 19.5315 21.6311 20.1249 21.1245 20.6315C20.6179 21.1382 20.0247 21.5249 19.3449 21.7915C18.665 22.0582 17.8585 22.2115 16.9253 22.2515L16.0255 22.2915C15.559 22.3049 14.8258 22.3115 13.826 22.3115H11.7864C10.7732 22.3115 10.0401 22.3049 9.58681 22.2915L8.68699 22.2515C7.75384 22.2115 6.94734 22.0582 6.26747 21.7915C5.58761 21.5249 4.9944 21.1382 4.48783 20.6315C3.98127 20.1249 3.59468 19.5315 3.32806 18.8515C3.06145 18.1715 2.90815 17.3649 2.86815 16.4315L2.82816 15.5315C2.81483 15.0649 2.80817 14.3315 2.80817 13.3315V11.2915C2.80817 10.2782 2.81483 9.54486 2.82816 9.09152L2.86815 8.19152C2.90815 7.25819 3.06145 6.45152 3.32806 5.77152C3.59468 5.09152 3.98127 4.49819 4.48783 3.99152C4.9944 3.48486 5.58761 3.09819 6.26747 2.83152C6.94734 2.56486 7.75384 2.41152 8.68699 2.37152L9.58681 2.33152C10.0534 2.31819 10.7866 2.31152 11.7864 2.31152H13.826ZM12.8062 7.31152C11.8997 7.31152 11.0632 7.53486 10.2967 7.98152C9.53016 8.42819 8.92361 9.03486 8.47703 9.80152C8.03046 10.5682 7.80717 11.4049 7.80717 12.3115C7.80717 13.2182 8.03046 14.0549 8.47703 14.8215C8.92361 15.5882 9.53016 16.1949 10.2967 16.6415C11.0632 17.0882 11.8997 17.3115 12.8062 17.3115C13.7127 17.3115 14.5492 17.0882 15.3157 16.6415C16.0822 16.1949 16.6887 15.5882 17.1353 14.8215C17.5819 14.0549 17.8052 13.2182 17.8052 12.3115C17.8052 11.4049 17.5819 10.5682 17.1353 9.80152C16.6887 9.03486 16.0822 8.42819 15.3157 7.98152C14.5492 7.53486 13.7127 7.31152 12.8062 7.31152ZM12.8062 9.31152C13.3527 9.31152 13.856 9.44486 14.3159 9.71152C14.7758 9.97819 15.139 10.3415 15.4056 10.8015C15.6723 11.2615 15.8056 11.7649 15.8056 12.3115C15.8056 12.8582 15.6723 13.3615 15.4056 13.8215C15.139 14.2815 14.7758 14.6449 14.3159 14.9115C13.856 15.1782 13.3527 15.3115 12.8062 15.3115C12.2596 15.3115 11.7564 15.1782 11.2965 14.9115C10.8366 14.6449 10.4733 14.2815 10.2067 13.8215C9.94007 13.3615 9.80677 12.8582 9.80677 12.3115C9.80677 11.7649 9.94007 11.2615 10.2067 10.8015C10.4733 10.3415 10.8366 9.97819 11.2965 9.71152C11.7564 9.44486 12.2596 9.31152 12.8062 9.31152ZM18.0451 5.81152C17.7119 5.81152 17.4219 5.93486 17.1753 6.18152C16.9287 6.42819 16.8054 6.72152 16.8054 7.06152C16.8054 7.40152 16.9287 7.69486 17.1753 7.94152C17.4219 8.18819 17.7152 8.31152 18.0551 8.31152C18.3951 8.31152 18.6883 8.18819 18.9349 7.94152C19.1816 7.69486 19.3049 7.40152 19.3049 7.06152C19.3049 6.72152 19.1816 6.42819 18.9349 6.18152C18.6883 5.93486 18.3917 5.81152 18.0451 5.81152Z" fill="#9CA3AF"/>
</svg>
