<svg width="20" height="18" viewBox="0 0 20 18" fill="none" xmlns="http://www.w3.org/2000/svg">
<path d="M4.22283 11.5521H15.8895V3.53129H4.22283V11.5521ZM10.7853 13.0105V14.4688H13.702V15.9271H6.41033V14.4688H9.327V13.0105H3.49366C3.2895 13.0105 3.11693 12.94 2.97595 12.799C2.83498 12.658 2.7645 12.4855 2.7645 12.2813V2.80212C2.7645 2.60768 2.83498 2.43754 2.97595 2.29171C3.11693 2.14587 3.2895 2.07296 3.49366 2.07296H16.6187C16.8228 2.07296 16.9954 2.14344 17.1364 2.28442C17.2773 2.42539 17.3478 2.59796 17.3478 2.80212V12.2813C17.3478 12.4757 17.2773 12.6459 17.1364 12.7917C16.9954 12.9375 16.8228 13.0105 16.6187 13.0105H10.7853Z" fill="white"/>
</svg>
