<svg width="19" height="18" viewBox="0 0 19 18" fill="none" xmlns="http://www.w3.org/2000/svg">
<path d="M15.3457 6.08337H16.1187C16.3812 6.08337 16.6242 6.149 16.8478 6.28025C17.0714 6.4115 17.2489 6.58893 17.3801 6.81254C17.5114 7.03615 17.577 7.27921 17.577 7.54171V10.4584C17.577 10.7209 17.5114 10.9639 17.3801 11.1875C17.2489 11.4112 17.0714 11.5886 16.8478 11.7198C16.6242 11.8511 16.3812 11.9167 16.1187 11.9167H15.3457C15.2291 12.8695 14.8985 13.7348 14.3541 14.5125C13.8096 15.2903 13.1242 15.898 12.2978 16.3355C11.4423 16.7924 10.5284 17.0209 9.55616 17.0209V15.5625C10.3437 15.5625 11.0777 15.3632 11.7582 14.9646C12.4194 14.5757 12.9444 14.0507 13.3332 13.3896C13.7319 12.7091 13.9312 11.975 13.9312 11.1875V6.81254C13.9312 6.02504 13.7319 5.29101 13.3332 4.61046C12.9444 3.94935 12.4194 3.42435 11.7582 3.03546C11.0777 2.63685 10.3437 2.43754 9.55616 2.43754C8.76866 2.43754 8.03463 2.63685 7.35407 3.03546C6.69296 3.42435 6.16796 3.94935 5.77907 4.61046C5.38046 5.29101 5.18116 6.02504 5.18116 6.81254V11.9167H2.99366C2.73116 11.9167 2.4881 11.8511 2.26449 11.7198C2.04088 11.5886 1.86345 11.4112 1.7322 11.1875C1.60095 10.9639 1.53532 10.7209 1.53532 10.4584V7.54171C1.53532 7.27921 1.60095 7.03615 1.7322 6.81254C1.86345 6.58893 2.04088 6.4115 2.26449 6.28025C2.4881 6.149 2.73116 6.08337 2.99366 6.08337H3.76657C3.88324 5.1306 4.2138 4.26532 4.75824 3.48754C5.30269 2.70976 5.9881 2.10213 6.81449 1.66463C7.67005 1.20768 8.58393 0.979208 9.55616 0.979208C10.5284 0.979208 11.4423 1.20768 12.2978 1.66463C13.1242 2.10213 13.8096 2.70976 14.3541 3.48754C14.8985 4.26532 15.2291 5.1306 15.3457 6.08337ZM2.99366 7.54171V10.4584H3.72282V7.54171H2.99366ZM15.3895 7.54171V10.4584H16.1187V7.54171H15.3895ZM6.46449 11.7563L7.23741 10.5167C7.94713 10.9639 8.72005 11.1875 9.55616 11.1875C10.3923 11.1875 11.1652 10.9639 11.8749 10.5167L12.6478 11.7563C12.1909 12.048 11.6999 12.2691 11.1749 12.4198C10.6499 12.5705 10.1103 12.6459 9.55616 12.6459C9.00199 12.6459 8.46241 12.5705 7.93741 12.4198C7.41241 12.2691 6.92143 12.048 6.46449 11.7563Z" fill="white"/>
</svg>
