<svg width="13" height="13" viewBox="0 0 13 13" fill="none" xmlns="http://www.w3.org/2000/svg">
<path d="M4.8523 5.7616C5.16342 6.31271 5.54342 6.81271 5.9923 7.2616C6.44119 7.71049 6.94119 8.09049 7.4923 8.4016L8.07897 7.57493C8.17675 7.43271 8.30786 7.34382 8.4723 7.30827C8.63675 7.27271 8.79453 7.29493 8.94564 7.37493C9.89675 7.89938 10.9145 8.2016 11.999 8.2816C12.1679 8.29938 12.3123 8.37049 12.4323 8.49493C12.5523 8.61938 12.6123 8.77049 12.6123 8.94827V11.9216C12.6123 12.0905 12.5545 12.2394 12.439 12.3683C12.3234 12.4972 12.1812 12.5705 12.0123 12.5883C11.6567 12.6238 11.3012 12.6416 10.9456 12.6416C9.54119 12.6416 8.19897 12.3705 6.91897 11.8283C5.68342 11.3038 4.59008 10.566 3.63897 9.61493C2.68786 8.66382 1.95008 7.57049 1.42564 6.33493C0.883416 5.05493 0.612305 3.71271 0.612305 2.30827C0.612305 1.95271 0.630082 1.59716 0.665638 1.2416C0.683416 1.07271 0.756749 0.93049 0.885638 0.814935C1.01453 0.699379 1.16342 0.641602 1.3323 0.641602H4.30564C4.48342 0.641602 4.63453 0.701601 4.75897 0.821601C4.88342 0.941602 4.95453 1.08605 4.9723 1.25493C5.0523 2.33938 5.35453 3.35716 5.87897 4.30827C5.95897 4.45938 5.98119 4.61716 5.94564 4.7816C5.91008 4.94605 5.82119 5.07716 5.67897 5.17493L4.8523 5.7616ZM3.1723 5.3216L4.43897 4.41494C4.08342 3.6416 3.83897 2.82827 3.70564 1.97493H1.94564V2.30827C1.94564 3.52605 2.18119 4.69493 2.6523 5.81493C3.10564 6.89049 3.74786 7.84382 4.57897 8.67493C5.41008 9.50605 6.36342 10.1483 7.43897 10.6016C8.55897 11.0727 9.72786 11.3083 10.9456 11.3083H11.279V9.54827C10.4256 9.41493 9.6123 9.17049 8.83897 8.81493L7.9323 10.0816C7.56786 9.93938 7.21231 9.77049 6.86564 9.57493L6.82564 9.5616C6.17675 9.18827 5.58564 8.73493 5.0523 8.2016C4.51897 7.66827 4.06564 7.07716 3.6923 6.42827L3.67897 6.38827C3.48342 6.0416 3.31453 5.68605 3.1723 5.3216Z" fill="#0052CC"/>
</svg>
