<svg width="18" height="17" viewBox="0 0 18 17" fill="none" xmlns="http://www.w3.org/2000/svg">
<path d="M5.2673 3.97493C5.25841 4.25049 5.17841 4.49938 5.0273 4.7216C4.87619 4.94382 4.67619 5.10605 4.4273 5.20827C4.17841 5.31049 3.92063 5.33493 3.65397 5.2816C3.3873 5.22827 3.15841 5.10382 2.9673 4.90827C2.77619 4.71271 2.65841 4.4816 2.61397 4.21493C2.56952 3.94827 2.60063 3.69049 2.7073 3.4416C2.81397 3.19271 2.98286 2.99494 3.21397 2.84827C3.44508 2.7016 3.69841 2.63271 3.97397 2.6416C4.32952 2.65049 4.63397 2.78382 4.8873 3.0416C5.14063 3.29938 5.2673 3.61049 5.2673 3.97493ZM5.3073 6.29493H2.64063V14.6416H5.3073V6.29493ZM9.52064 6.29493H6.8673V14.6416H9.49397V10.2683C9.49397 9.79716 9.60064 9.39716 9.81397 9.06827C10.0184 8.76605 10.2806 8.55716 10.6006 8.4416C10.9206 8.32605 11.2406 8.31716 11.5606 8.41493C11.8806 8.51271 12.1384 8.70827 12.334 9.0016C12.5562 9.33938 12.6673 9.7616 12.6673 10.2683V14.6416H15.3073V9.3616C15.3073 8.57938 15.1384 7.91716 14.8006 7.37493C14.5073 6.90382 14.0984 6.54827 13.574 6.30827C13.094 6.10382 12.574 6.01493 12.014 6.0416C11.4717 6.06827 10.9695 6.20382 10.5073 6.44827C10.0451 6.69271 9.7073 7.01493 9.49397 7.41493L9.52064 6.29493Z" fill="#2563EB"/>
</svg>
