<svg width="18" height="17" viewBox="0 0 18 17" fill="none" xmlns="http://www.w3.org/2000/svg">
<path d="M9.10731 3.30843C9.87175 3.30843 10.6051 3.32621 11.3073 3.36176L11.6406 3.3751C12.814 3.42843 13.6051 3.51288 14.014 3.62843C14.334 3.71732 14.6095 3.88176 14.8406 4.12176C15.0718 4.36176 15.2273 4.64621 15.3073 4.9751C15.4229 5.41954 15.5073 6.08176 15.5606 6.96176C15.5873 7.47732 15.6051 8.00176 15.614 8.5351V8.74843C15.6051 9.28176 15.5873 9.80621 15.5606 10.3218C15.5073 11.2018 15.4229 11.864 15.3073 12.3084C15.2273 12.6373 15.0718 12.9218 14.8406 13.1618C14.6095 13.4018 14.334 13.5662 14.014 13.6551C13.6051 13.7707 12.814 13.8551 11.6406 13.9084L11.3073 13.9218C10.6051 13.9484 9.87175 13.9662 9.10731 13.9751H8.78731C7.96064 13.9662 7.17397 13.9484 6.42731 13.9218C5.1562 13.8684 4.30731 13.7795 3.88064 13.6551C3.56064 13.5662 3.28508 13.4018 3.05397 13.1618C2.82286 12.9218 2.66731 12.6373 2.58731 12.3084C2.47175 11.864 2.38731 11.2018 2.33397 10.3218C2.30731 9.80621 2.28953 9.28176 2.28064 8.74843V8.5351C2.28953 8.00176 2.30731 7.47732 2.33397 6.96176C2.38731 6.08176 2.47175 5.41954 2.58731 4.9751C2.66731 4.64621 2.82286 4.36176 3.05397 4.12176C3.28508 3.88176 3.56064 3.71732 3.88064 3.62843C4.30731 3.50399 5.1562 3.4151 6.42731 3.36176C7.16508 3.3351 7.95175 3.31732 8.78731 3.30843H9.10731ZM7.61397 6.30843V10.9751L11.614 8.64176L7.61397 6.30843Z" fill="#DC2626"/>
</svg>
