<svg width="18" height="17" viewBox="0 0 18 17" fill="none" xmlns="http://www.w3.org/2000/svg">
<path d="M9.62731 1.97477C10.3029 1.97477 10.7918 1.97922 11.094 1.9881L11.694 2.01477C12.3162 2.04144 12.854 2.14366 13.3073 2.32144C13.7606 2.49922 14.1562 2.75699 14.494 3.09477C14.8318 3.43255 15.0895 3.8281 15.2673 4.28144C15.4451 4.73477 15.5473 5.27255 15.574 5.89477L15.6006 6.49477C15.6095 6.80588 15.614 7.29477 15.614 7.96144V9.32144C15.614 9.99699 15.6095 10.4859 15.6006 10.7881L15.574 11.3881C15.5473 12.0103 15.4451 12.5481 15.2673 13.0014C15.0895 13.4548 14.8318 13.8503 14.494 14.1881C14.1562 14.5259 13.7606 14.7837 13.3073 14.9614C12.854 15.1392 12.3162 15.2414 11.694 15.2681L11.094 15.2948C10.7829 15.3037 10.294 15.3081 9.62731 15.3081H8.26731C7.59175 15.3081 7.10286 15.3037 6.80064 15.2948L6.20064 15.2681C5.57842 15.2414 5.04064 15.1392 4.58731 14.9614C4.13397 14.7837 3.73842 14.5259 3.40064 14.1881C3.06286 13.8503 2.80508 13.4548 2.62731 13.0014C2.44953 12.5481 2.34731 12.0103 2.32064 11.3881L2.29397 10.7881C2.28508 10.477 2.28064 9.98811 2.28064 9.32144V7.96144C2.28064 7.28588 2.28508 6.79699 2.29397 6.49477L2.32064 5.89477C2.34731 5.27255 2.44953 4.73477 2.62731 4.28144C2.80508 3.8281 3.06286 3.43255 3.40064 3.09477C3.73842 2.75699 4.13397 2.49922 4.58731 2.32144C5.04064 2.14366 5.57842 2.04144 6.20064 2.01477L6.80064 1.9881C7.11175 1.97922 7.60064 1.97477 8.26731 1.97477H9.62731ZM8.94731 5.30811C8.34286 5.30811 7.78508 5.45699 7.27397 5.75477C6.76286 6.05255 6.35842 6.45699 6.06064 6.96811C5.76286 7.47922 5.61397 8.03699 5.61397 8.64144C5.61397 9.24588 5.76286 9.80366 6.06064 10.3148C6.35842 10.8259 6.76286 11.2303 7.27397 11.5281C7.78508 11.8259 8.34286 11.9748 8.94731 11.9748C9.55175 11.9748 10.1095 11.8259 10.6206 11.5281C11.1318 11.2303 11.5362 10.8259 11.834 10.3148C12.1318 9.80366 12.2806 9.24588 12.2806 8.64144C12.2806 8.03699 12.1318 7.47922 11.834 6.96811C11.5362 6.45699 11.1318 6.05255 10.6206 5.75477C10.1095 5.45699 9.55175 5.30811 8.94731 5.30811ZM8.94731 6.64144C9.31175 6.64144 9.64731 6.73033 9.95397 6.9081C10.2606 7.08588 10.5029 7.32811 10.6806 7.63477C10.8584 7.94144 10.9473 8.27699 10.9473 8.64144C10.9473 9.00588 10.8584 9.34144 10.6806 9.64811C10.5029 9.95477 10.2606 10.197 9.95397 10.3748C9.64731 10.5525 9.31175 10.6414 8.94731 10.6414C8.58286 10.6414 8.24731 10.5525 7.94064 10.3748C7.63397 10.197 7.39175 9.95477 7.21397 9.64811C7.0362 9.34144 6.94731 9.00588 6.94731 8.64144C6.94731 8.27699 7.0362 7.94144 7.21397 7.63477C7.39175 7.32811 7.63397 7.08588 7.94064 6.9081C8.24731 6.73033 8.58286 6.64144 8.94731 6.64144ZM12.4406 4.30811C12.2184 4.30811 12.0251 4.39033 11.8606 4.55477C11.6962 4.71922 11.614 4.91477 11.614 5.14144C11.614 5.3681 11.6962 5.56366 11.8606 5.72811C12.0251 5.89255 12.2206 5.97477 12.4473 5.97477C12.674 5.97477 12.8695 5.89255 13.034 5.72811C13.1984 5.56366 13.2806 5.3681 13.2806 5.14144C13.2806 4.91477 13.1984 4.71922 13.034 4.55477C12.8695 4.39033 12.6718 4.30811 12.4406 4.30811Z" fill="#DB2777"/>
</svg>
