<svg width="25" height="24" viewBox="0 0 25 24" fill="none" xmlns="http://www.w3.org/2000/svg">
<path d="M17.5 15.44V22.3C17.5 22.4466 17.45 22.5666 17.35 22.66C17.25 22.7533 17.1333 22.8 17 22.8C16.9067 22.8 16.82 22.78 16.74 22.74L12.5 20.2L8.26 22.74C8.14 22.8066 8.01333 22.8233 7.88 22.79C7.74667 22.7566 7.64667 22.68 7.58 22.56C7.52667 22.48 7.5 22.3933 7.5 22.3V15.44C6.56667 14.6933 5.84 13.7866 5.32 12.72C4.77333 11.6133 4.5 10.44 4.5 9.19998C4.5 7.74664 4.86667 6.39997 5.6 5.15998C6.30667 3.94664 7.26 2.98664 8.46 2.27997C9.7 1.55997 11.0467 1.19997 12.5 1.19997C13.9533 1.19997 15.3 1.55997 16.54 2.27997C17.74 2.98664 18.6933 3.94664 19.4 5.15998C20.1333 6.39997 20.5 7.74664 20.5 9.19998C20.5 10.44 20.2267 11.6133 19.68 12.72C19.16 13.7866 18.4333 14.6933 17.5 15.44ZM9.5 16.6V19.66L12.5 17.86L15.5 19.66V16.6C14.54 17 13.54 17.2 12.5 17.2C11.46 17.2 10.46 17.0066 9.5 16.62V16.6ZM12.5 15.2C13.58 15.2 14.5867 14.9266 15.52 14.38C16.4267 13.8466 17.1467 13.1266 17.68 12.22C18.2267 11.2866 18.5 10.2766 18.5 9.18997C18.5 8.10331 18.2267 7.09331 17.68 6.15998C17.1467 5.25331 16.4267 4.53997 15.52 4.01998C14.5867 3.47331 13.58 3.19997 12.5 3.19997C11.42 3.19997 10.4133 3.47331 9.48 4.01998C8.57333 4.53997 7.85333 5.25331 7.32 6.15998C6.77333 7.09331 6.5 8.10331 6.5 9.18997C6.5 10.2766 6.77333 11.2866 7.32 12.22C7.85333 13.1266 8.57333 13.8466 9.48 14.38C10.4133 14.9266 11.42 15.2 12.5 15.2Z" fill="#4C93FD"/>
</svg>
