<svg width="25" height="24" viewBox="0 0 25 24" fill="none" xmlns="http://www.w3.org/2000/svg">
<path d="M7.5 6V3C7.5 2.72 7.59667 2.48333 7.79 2.29C7.98333 2.09667 8.22 2 8.5 2H16.5C16.78 2 17.0167 2.09667 17.21 2.29C17.4033 2.48333 17.5 2.72 17.5 3V6H21.5C21.78 6 22.0167 6.09667 22.21 6.29C22.4033 6.48333 22.5 6.72 22.5 7V21C22.5 21.28 22.4033 21.5167 22.21 21.71C22.0167 21.9033 21.78 22 21.5 22H3.5C3.22 22 2.98333 21.9033 2.79 21.71C2.59667 21.5167 2.5 21.28 2.5 21V7C2.5 6.72 2.59667 6.48333 2.79 6.29C2.98333 6.09667 3.22 6 3.5 6H7.5ZM4.5 17V20H20.5V17H4.5ZM4.5 15H20.5V8H4.5V15ZM9.5 4V6H15.5V4H9.5ZM11.5 12H13.5V14H11.5V12Z" fill="#4C93FD"/>
</svg>
