<svg width="25" height="24" viewBox="0 0 25 24" fill="none" xmlns="http://www.w3.org/2000/svg">
<path d="M6.1819 3.55965C6.80856 3.33298 7.4519 3.29298 8.1119 3.43965C8.7719 3.58632 9.34856 3.89965 9.8419 4.37965C10.3886 4.93965 10.7152 5.60298 10.8219 6.36965C10.9286 7.13632 10.8019 7.85298 10.4419 8.51965L21.1419 19.2396L19.7419 20.6396L9.0219 9.93965C8.35523 10.2996 7.63856 10.4263 6.8719 10.3196C6.10523 10.213 5.4419 9.88632 4.8819 9.33965C4.4019 8.84632 4.08856 8.26965 3.9419 7.60965C3.79523 6.94965 3.83523 6.30632 4.0619 5.67965L6.3019 7.91965C6.59523 8.21298 6.94856 8.35965 7.3619 8.35965C7.77523 8.35965 8.12856 8.21298 8.4219 7.91965C8.71523 7.62632 8.8619 7.27298 8.8619 6.85965C8.8619 6.44632 8.71523 6.09298 8.4219 5.79965L6.1819 3.55965ZM16.5419 5.43965L19.7419 3.67965L21.1419 5.07965L19.3819 8.25965L17.6019 8.61965L15.4819 10.7396L14.0819 9.33965L16.2019 7.19965L16.5419 5.43965ZM9.8419 13.5796L11.2419 14.9796L5.9419 20.2996C5.7419 20.4863 5.50523 20.5796 5.2319 20.5796C4.95856 20.5796 4.72856 20.4863 4.5419 20.2996C4.35523 20.113 4.25523 19.893 4.2419 19.6396C4.22856 19.3863 4.29523 19.1596 4.4419 18.9596L4.5219 18.8796L9.8419 13.5796Z" fill="#4C93FD"/>
</svg>
