<svg width="163" height="96" viewBox="0 0 163 96" fill="none" xmlns="http://www.w3.org/2000/svg">
<path d="M124.86 31.5322L123.052 30.1942C122.401 29.6312 121.794 29.0187 121.236 28.3622C120.748 27.7752 120.308 27.0102 119.916 26.0652C119.594 25.5436 119.322 24.9929 119.103 24.4202C118.882 23.8115 118.695 23.1909 118.543 22.5612C118.366 21.8502 118.149 20.9622 117.892 19.8992C117.655 18.9142 117.594 18.0672 117.708 17.3602C117.823 16.6532 117.904 16.1832 117.952 15.9502C118.368 15.3402 118.788 15.1312 119.212 15.3222C119.636 15.5122 120.021 15.9192 120.368 16.5442C120.715 17.1692 120.975 17.8582 121.15 18.6122C121.965 21.3482 122.698 23.3872 123.348 24.7322C123.998 26.0762 124.574 26.8602 125.076 27.0852C125.406 27.0792 125.668 26.9752 125.862 26.7712C126.056 26.5672 126.282 26.2022 126.542 25.6772C126.898 24.9693 127.27 24.2691 127.656 23.5772C128.178 22.6372 128.686 21.6522 129.183 20.6212C129.68 19.5912 130.153 18.6012 130.603 17.6532C131.053 16.7032 131.466 15.8752 131.843 15.1672C132.219 14.4592 132.537 13.9742 132.798 13.7102C132.86 13.5282 133.004 13.3452 133.23 13.1602C133.457 12.9752 133.684 12.8172 133.911 12.6872L134.252 12.4922C134.472 12.4892 134.632 12.6192 134.729 12.8822C134.828 13.1462 135.001 13.3822 135.251 13.5922C135.33 13.6812 135.487 13.8042 135.723 13.9622C135.958 14.1202 136.08 14.2662 136.089 14.4022C136.109 14.4792 136.041 14.6842 135.881 15.0172C135.721 15.3492 135.548 15.6792 135.359 16.0062L134.935 16.7412C134.676 17.1142 134.287 17.7492 133.769 18.6472C133.226 19.5913 132.701 20.5465 132.197 21.5122C131.73 22.3937 131.294 23.2909 130.888 24.2022C130.208 25.6199 129.5 27.0245 128.766 28.4152C128.133 29.6062 127.738 30.3192 127.58 30.5552C127.568 30.6132 127.41 30.6902 127.103 30.7862C126.798 30.8822 126.608 31.0502 126.535 31.2902L124.86 31.5322ZM126.165 45.0552C126.055 45.0572 125.811 44.9982 125.434 44.8782C125.057 44.7582 124.715 44.6432 124.409 44.5322C124.191 44.3936 124.016 44.196 123.905 43.9622C123.805 43.7422 123.753 43.4242 123.753 43.0102C123.753 42.5962 123.749 42.0172 123.743 41.2732C123.61 40.6732 123.539 39.9202 123.53 39.0112C123.522 38.1022 123.596 37.3232 123.753 36.6742C123.677 36.3902 123.638 35.9872 123.636 35.4632C123.633 34.9392 123.658 34.3872 123.71 33.8072C123.761 33.2272 123.813 32.7242 123.864 32.2962L124.021 30.1012L125.214 28.3732L127.596 29.2252C127.531 29.4245 127.489 29.6305 127.471 29.8392C127.444 30.2139 127.434 30.5896 127.441 30.9652C127.444 31.4892 127.454 32.3002 127.472 33.4002C127.452 34.1502 127.427 34.9582 127.397 35.8222C127.366 36.6862 127.341 37.4932 127.321 38.2442C127.301 38.9942 127.273 39.6102 127.236 40.0892C127.237 41.3312 127.206 42.3192 127.14 43.0552C127.075 43.7902 126.965 44.3092 126.812 44.6132C126.659 44.9162 126.442 45.0632 126.165 45.0552ZM138.016 38.4422C137.682 38.5322 137.401 38.5382 137.173 38.4622C136.881 38.3591 136.594 38.2423 136.313 38.1122C135.708 37.7467 135.161 37.293 134.69 36.7662C134.235 36.2532 133.987 35.7672 133.947 35.3092C133.969 35.0822 133.948 34.8742 133.883 34.6842L133.786 34.4002C133.623 34.3052 133.562 34.2322 133.603 34.1802C133.654 34.1038 133.688 34.0171 133.701 33.9262C133.855 33.8842 133.869 33.7292 133.741 33.4592C133.635 33.2672 133.599 32.8002 133.635 32.0592C133.672 31.3144 133.802 30.577 134.021 29.8642C134.106 29.5652 134.246 29.1622 134.441 28.6542C134.637 28.1462 134.864 27.6302 135.124 27.1042C135.384 26.5802 135.634 26.1472 135.874 25.8072C136.372 25.0932 136.854 24.4952 137.318 24.0112C137.751 23.5518 138.256 23.1652 138.812 22.8662C139.345 22.5852 139.913 22.3642 140.519 22.2012C141.124 22.0392 141.675 22.1122 142.172 22.4212C142.833 22.5202 143.345 22.7552 143.707 23.1282C144.069 23.5002 144.382 24.0242 144.646 24.6982C144.93 25.4502 145.106 26.4182 145.175 27.6002C145.243 28.7832 144.959 30.2462 144.322 31.9902C143.926 33.0902 143.489 33.9802 143.008 34.6622C142.528 35.3422 141.973 36.0022 141.344 36.6402C140.899 37.1452 140.379 37.5202 139.781 37.7632C139.184 38.0052 138.596 38.2332 138.017 38.4432L138.016 38.4422ZM140.695 32.6722C141.13 32.0322 141.391 31.3822 141.477 30.7242C141.563 30.0662 141.641 29.3002 141.71 28.4252C141.772 28.2432 141.774 27.9662 141.716 27.5952C141.66 27.2323 141.571 26.8752 141.45 26.5282C141.331 26.1872 141.188 26.0112 141.02 26.0012C140.74 25.8832 140.495 25.9012 140.288 26.0522C140.08 26.2052 139.83 26.4582 139.538 26.8122C138.938 27.6632 138.422 28.5952 137.99 29.6082C137.557 30.6222 137.374 31.7682 137.441 33.0482C137.536 33.7122 137.737 34.1762 138.041 34.4402C138.347 34.7032 138.731 34.6962 139.196 34.4202C139.66 34.1442 140.16 33.5602 140.695 32.6722ZM157.934 33.6442C157.781 33.7952 157.532 33.8212 157.188 33.7202C156.843 33.6192 156.481 33.4262 156.101 33.1412C155.846 32.8913 155.625 32.6096 155.441 32.3032C155.265 32.0052 155.091 31.5352 154.918 30.8912C154.847 30.5311 154.759 30.1747 154.653 29.8232C154.588 29.6332 154.469 29.6512 154.295 29.8772C154.121 30.1042 153.795 30.6122 153.316 31.4032C152.896 32.1426 152.43 32.8553 151.921 33.5372C151.462 34.1432 151.049 34.4812 150.681 34.5522C150.501 34.6002 150.225 34.5502 149.854 34.4012C149.456 34.2372 149.08 34.0253 148.733 33.7702C148.401 33.5405 148.104 33.2643 147.85 32.9502C147.53 32.3732 147.31 31.5772 147.19 30.5602C147.067 29.4772 147.031 28.3861 147.081 27.2972C147.129 26.1372 147.241 25.0322 147.413 23.9772C147.586 22.9232 147.808 22.0502 148.077 21.3572C148.347 20.6632 148.64 20.2872 148.957 20.2312C149.407 20.1652 149.845 20.2752 150.267 20.5632C150.68 20.8411 151.044 21.1839 151.347 21.5782C151.497 21.7312 151.584 21.8732 151.606 22.0052C151.627 22.1372 151.559 22.3212 151.401 22.5572C151.252 22.9282 151.095 23.4472 150.928 24.1122C150.753 24.8185 150.598 25.5298 150.464 26.2452C150.322 27.0012 150.209 27.7152 150.127 28.3852C150.054 28.925 150.013 29.4686 150.004 30.0132C150.004 30.4272 150.056 30.6202 150.159 30.5932C150.519 30.4962 150.829 30.3092 151.086 30.0332C151.343 29.7572 151.645 29.3382 151.991 28.7762C152.387 28.0902 152.717 27.4162 152.981 26.7512C153.245 26.0872 153.499 25.3352 153.743 24.4972C153.94 23.8922 154.143 23.2302 154.35 22.5122C154.558 21.7942 154.68 21.2922 154.713 21.0072L155.121 19.2832C155.211 18.9002 155.375 18.6352 155.612 18.4882L156.152 18.3442L156.501 18.2502C156.662 18.2352 156.873 18.3022 157.135 18.4532C157.368 18.5012 157.619 18.5862 157.886 18.7072C158.153 18.8292 158.304 18.9542 158.339 19.0832C158.305 19.3682 158.246 19.7912 158.161 20.3532C158.077 20.9132 158.014 21.3232 157.973 21.5832C157.785 22.7957 157.606 24.0097 157.438 25.2252C157.275 26.3945 157.238 27.578 157.328 28.7552C157.373 29.1292 157.478 29.5492 157.645 30.0152C157.811 30.4812 157.973 30.8042 158.131 30.9822C158.251 31.1162 158.393 31.2642 158.561 31.4262C158.729 31.5882 158.907 31.7132 159.096 31.8002C159.369 31.8932 159.415 32.0882 159.232 32.3852C159.034 32.7003 158.789 32.9827 158.504 33.2222C158.201 33.4822 158.011 33.6232 157.934 33.6442Z" fill="black"/>
<path d="M81.7692 35.3361C71.5212 49.4341 70.1092 45.2661 88.5542 46.6641M74.4172 45.6051L111.956 33.3101" stroke="black" stroke-width="3" stroke-linecap="round"/>
<g clip-path="url(#clip0_3_626)">
<path d="M15.5156 77.1093C9.06863 77.3993 1.77863 76.2913 1.77863 73.7863C1.77863 69.2953 7.02563 65.6543 13.4986 65.6543C17.1716 65.6543 20.4496 66.8273 22.5986 68.6623" stroke="black" stroke-width="3"/>
<path d="M13.2786 59.6543C15.7639 59.6543 17.7786 57.6396 17.7786 55.1543C17.7786 52.669 15.7639 50.6543 13.2786 50.6543C10.7933 50.6543 8.77863 52.669 8.77863 55.1543C8.77863 57.6396 10.7933 59.6543 13.2786 59.6543Z" stroke="black" stroke-width="3"/>
<path d="M41.9605 68.6623C44.1085 66.8273 47.3875 65.6543 51.0605 65.6543C57.5335 65.6543 62.7805 69.2943 62.7805 73.7863C62.7805 76.2903 55.4905 77.3983 49.0425 77.1093" stroke="black" stroke-width="3"/>
<path d="M51.2786 59.6543C53.7639 59.6543 55.7786 57.6396 55.7786 55.1543C55.7786 52.669 53.7639 50.6543 51.2786 50.6543C48.7933 50.6543 46.7786 52.669 46.7786 55.1543C46.7786 57.6396 48.7933 59.6543 51.2786 59.6543Z" stroke="black" stroke-width="3"/>
<path fill-rule="evenodd" clip-rule="evenodd" d="M32.2786 66.6543C41.3916 66.6543 48.7786 71.7193 48.7786 77.9683C48.7786 84.2163 15.7786 84.2163 15.7786 77.9683C15.7786 71.7193 23.1656 66.6543 32.2786 66.6543ZM32.2786 59.6543C34.1351 59.6543 35.9156 58.9168 37.2284 57.604C38.5411 56.2913 39.2786 54.5108 39.2786 52.6543C39.2786 50.7978 38.5411 49.0173 37.2284 47.7045C35.9156 46.3918 34.1351 45.6543 32.2786 45.6543C30.4221 45.6543 28.6416 46.3918 27.3289 47.7045C26.0161 49.0173 25.2786 50.7978 25.2786 52.6543C25.2786 54.5108 26.0161 56.2913 27.3289 57.604C28.6416 58.9168 30.4221 59.6543 32.2786 59.6543Z" fill="black" fill-opacity="0.2" stroke="black" stroke-width="3"/>
</g>
<defs>
<clipPath id="clip0_3_626">
<rect width="162" height="64" fill="white" transform="translate(0.306213 32)"/>
</clipPath>
</defs>
</svg>
