<svg width="26" height="24" viewBox="0 0 26 24" fill="none" xmlns="http://www.w3.org/2000/svg">
<path d="M7.6123 6V3C7.6123 2.72 7.70897 2.48333 7.9023 2.29C8.09564 2.09667 8.3323 2 8.6123 2H16.6123C16.8923 2 17.129 2.09667 17.3223 2.29C17.5156 2.48333 17.6123 2.72 17.6123 3V6H21.6123C21.8923 6 22.129 6.09667 22.3223 6.29C22.5156 6.48333 22.6123 6.72 22.6123 7V21C22.6123 21.28 22.5156 21.5167 22.3223 21.71C22.129 21.9033 21.8923 22 21.6123 22H3.6123C3.3323 22 3.09564 21.9033 2.9023 21.71C2.70897 21.5167 2.6123 21.28 2.6123 21V7C2.6123 6.72 2.70897 6.48333 2.9023 6.29C3.09564 6.09667 3.3323 6 3.6123 6H7.6123ZM4.6123 17V20H20.6123V17H4.6123ZM4.6123 15H20.6123V8H4.6123V15ZM9.6123 4V6H15.6123V4H9.6123ZM11.6123 12H13.6123V14H11.6123V12Z" fill="#0052CC"/>
</svg>
